<mxfile host="app.diagrams.net" modified="2023-08-18T14:49:53.384Z" agent="Mozilla/5.0 (Windows NT 10.0; Win64; x64) AppleWebKit/537.36 (KHTML, like Gecko) Chrome/115.0.0.0 Safari/537.36" etag="WQuE6KrZva11sf5EW-8g" version="21.6.8" type="github">
  <diagram id="C5RBs43oDa-KdzZeNtuy" name="Page-1">
    <mxGraphModel dx="1434" dy="750" grid="1" gridSize="10" guides="1" tooltips="1" connect="1" arrows="1" fold="1" page="1" pageScale="1" pageWidth="827" pageHeight="1169" math="0" shadow="0">
      <root>
        <mxCell id="WIyWlLk6GJQsqaUBKTNV-0" />
        <mxCell id="WIyWlLk6GJQsqaUBKTNV-1" parent="WIyWlLk6GJQsqaUBKTNV-0" />
        <mxCell id="npavAp8itlem58TFKgtB-9" value="" style="shape=image;verticalLabelPosition=bottom;labelBackgroundColor=default;verticalAlign=top;aspect=fixed;imageAspect=0;image=data:image/png,iVBORw0KGgoAAAANSUhEUgAABAYAAAGHCAYAAAAjjlADAAAAKnRFWHRjb3B5bGVmdABHZW5lcmF0ZWQgYnkgaHR0cHM6Ly9wbGFudHVtbC5jb212zsofAAAHkGlUWHRwbGFudHVtbAABAAAAeJztWltT4zYUfo5/hZbtA7TN1g4khAzDrEPCZQcoQ2Bn+rSj2EpQceTUVqC03f/eI0t2JFtOljbwtN7ZYawjnfOduyTnY8pxwhezyHnH78mMoCCKF2Ea4DlphiSlU+YEEU5TdEJJFKK/HYR+OjzE45QnOOAzwu/j8OgITQmnnMy2d3rIZ8/OV0etusLAUixqPuJoQXpoxBPKpoKLtkQNFquu72NmLrugKT+U045Kiw1SwaJPE34f4meDywBzUlqdDRWrhjNMo5fjHXHMF+nL113F/D9Y54YEcSJd0RwrNXuFwmKUgdV7me3F21xYM+1Jq4oBIrTsSWXFe5rB7yk1MgYArJfBE1iAa/qFx19yYQLUOeMCkYyKw3+aTSlOe5fitIECoTYmMWgDCoPOV6BQOm95W+hHGBN/C3YWWobFMi4xWQgSh4Wg8NhkCFwfCQtF8jgfizxKHyib4wTPUB8HD9MkXrDwOI7iBEHKsBRIBGy3nLVISZ9wPOLPEUETHKXC5gi9A1cvIHm0RSii03t9aUgmeBHxk5jxLNHks/WZJCFmeMs+c0T/ymd6LX3KnKLq47muNie9x2H8BNFozJGgl7MylcFejCTarK424xpsRQM6x4xf4zBUDPd0Uf34T42UP8YUCx2etjbDT5L4SRpfe967rrvvdXS9OElIzJ/nMh0ROi777v1J9igixAJJFKE/FP8ygl9Z5e4ddN2cqK9yW52O62eE88qqYX+3tdtSRH2VP/TgyQhDG0LPO1ZEA+GgL9woCFeVVd5ut3vSVkQD4X677x9Aki/NBCUpEhZq5HHUEMsahWFbrtOQPG6khFIIQAwo+u09DR6gKqXaag+IJXS52ZvvSfZIyTnAg/1WuJtzVINqHpSmJeyITCFNlWcbBgsZCI2GzaONCpwyGsFvVZIbKNInOotw1tdMcaYeS8u0nMatMPh6o2TTqpYxxEO3po+Ui4bYMGwQemE7HJdtkIOq2kAGTHMJGxdrdvcnbuA0RqIUlvgMlymhRgYUz2IWVvgXti1mWLMtp1a9aag9X1aajWuuVbGq78rGBwablr9GdSyKnxBqhFReSfZ8v++u5ZGSPxaEBVnQZsXU4GXFXROMFXX0RPnGkIGesIJL15UzdFAdf7+172fjGqR8dEAi/GxxyAWdkAvKiFU/k7i0h6uRamK6cQqDc5OrqkAaZcnSU+OWipWNnxEM8y22ltzsKISZlLTweY05NSkr3TeA0mKZU+id03XNtYZq0vUQ06kWK9yQCTRuiE8ftkZslu2RyIRrhDUKLudZmkiZasR+QVsFq9ZBpRkrXDUqtiaWQDWJ2c7Oa1kKIKcxq+07L8xVg3sQRxEJBPt00+WtJIfxJI7euoSCvq/RMtdIHYulOHlzuXhKZJeshmMQhq5bih+139S5djtdclDiyuQht7K9sWz37Fs6C3pROEq9jtMJdFkr+jwty4W3A7liMW8p8GZzODNufvdgSKEMEhnwExv+YttvSAIAB17ba69v4bD1AM+u8ivUWNuBYb1nQztgozcYnHOjrbO6uISysa7nnDt5jTVCzPEYp+QNcsteum2g5L3OKyIS+dKoaTXlZatQ25LY5zyh4wW39SeDJtuTZ6oej38nwea35m+rxCIlwWvElGXbYVfMUlISMCtm08iaoUYa1VpojdlegmYOAGqKkI6lXIjqk9qCxhA4iSMg24teccA0N32qx2myzLZXLyuRt9zfLGrVzmu1KHFVu/k4+7bTly1Hcm+szxE4Ry42jtysojix9oyaXYW83lq5q5hQe/oUB4R1vc3ej4HbKxhCEzHD81cQcJiKK+oj52mcDiiegqCf0YyyEKSp9+yKLYljru7aVqc6QlV4YvQMykkCx+gHE6MgicO16b98VK/mYuwSJ1PKkCevPfOb4k72Nipusd0Pgv4V/qu9TOWG8H+aTRfuyVtW/Wq0lYsP8Fyd0aoK5XMmYNispNVPmS7P6zUu0K8uq+UnH5UfI8ZQQxXje52nXXZiHmlfHgIqWWoxpEREt7xIs6pWYlAvsMK6crH9xlfZeZTZbiEEwq8Oewohx/Q8Y4Q/xcnD5oNWsCtl2w/XN+eX/s1vX/qntoz74FZ8mWendFzyWATEZrNLsM/vOesg2MtGkS5aNJ1qsn64OD89u9UVVhx8zz/oty1maCkzqNLTNpK/rfw4xYxz3Y0cp6/gQ3EXWee8+tIoCyEvMkE/PdhLb9lqpmf0jNUZlD6f6Aw2/XnGVl8EtBm0djgZs7Ku+tZM7mPU9lPWDMpxRAOZ3Ua0DM79y1+vBsLGuqbF5wpZZWYkooy8sDTrsOFgnBL7LsdyaJf3qyLsDn9Rzfv7rzm+/5rj+6851v2a4zqCMn13eYGgb6ViX+Z9aLmt3Q+eNyYct7bv2AOLn1h2OyjOCCKzd5zt0+sLlMaLJCAohDjOTkSwesf5hB8xulkwMa+HxNv27eUOGg3zQTRkjzSJs08YzqfPl3ISOov5aB7zbHJnr9mnHI1kM/186QzkbzpgaRCLEt5Dd7cnza5zAcf+BRy2e4gw5xgqBE8gou5Gzr90faGouR5rHAAAgABJREFUeF7svQd8FVXe/++z/+fZtVASErqIUsSCgt1VbGtZC7ZdXTsi9lUURCD0NAi9Q+ghyU27l+TeCxh6VTqCFBVySyogqLu/x3X32er3f75zZu5MZhLMhZS5yef9en1emVPmnDNz58L9fubMmQsuAAAAAAAAAAAAAAAAAAAAAAAAAAAAAAAAAAAAAAAAAAAAAAAAAAAAAAAAAAAAAAAAAAAAAAAAAAAAAAAAAAAAAAAAAAAAAAAAAAAAsD+XjD/dtllc8MTFQ4//dNFHRwiCGkoXDztOzeIC3/A1ab5OAQAAAAAAAADUARyAXfzxsZ8uiQtQVNL3FD3hB2qV8iME1bv42uNrkK9F5ZqEOQAAAAAAAAAAdU+zOH/FJcMDP7Wa8BeCILuIzYFLhvtPmK9XAAAAAAAAAAC1zMVDv/4pKvE7EYz9AEG2EV+TfG2ar1cAAAAAAAAAALVJPP3yoo+OUlTy/6Po8f8LQbYRX5N8bfI1ar5sAQAAAAAAAADUFsMDLXnBt+ikP1M0mwMQZBeJa5KvTb5GzZctAAAAAAAAAIDaImQM/EkEY2wORK5aDdpFsX3jqc31D1C7Lj2pXbt21K7rddS212+p9ZPjqdXQw5Z9IBtLXJMwBgAAAAAAAACgrtGMgcTvpTkQgWo15AC1uf156tjtWurzwhs0eO5UmlOYTnn78mnG6gx6f9ZUuvnpV6l9527U+sEhFD2mzNIGZEOJaxLGAAAAAAAAAADUNaoxwAu98WviIk0xLy6h9pd3p6cHfkC5+/Ip/9DKarVsq4N+/eSz1OHqWyl62GFLW5DNJK5JGAMAAAAAAAAAUNdoxkDCt9IciCDF9k2gy67qRdMLUi0mwNnUP24gdex+HUUPO2ppE7KRxDUJYwAAAAAAAAAA6hrNGIg/I82BCFHMC4sVUyBtS6Yl8K+J+g1+gzrd8jBFjfvG0jZkE4lrEsYAAAAAAAAAANQ1qjHQMv40tUw4ExGKHrxXeXwg3JkCRrkOeujWe++i9s/PsLQP2UTimoQxAAAAAAAAAAB1jWYMjPtGmgMRoNa3/YGeHvihJdgPV5Ozp9PlV/eklmMqLH1EumITT9OzaRF+XOKahDEAAAAAAAAAAHXNW5oxcEqaAzZX1PvblLcP/NxCgzXVr++7kzoMyLT0E47ezy2jPYf8tG5vgPYe9pFjW5B6TT9pqVef6ph8ShmLOT+ydEoaA2/BGAAAAAAAAACAuiNkDHAgy+aAvRXzyCi68/k3LAG+phUHvfTiwFeoVZsY+sUvfkGXdulErVq3ohn5cyx1WW+PfJeuffx1Sz/h6P3cUpq+pljZbhV/kiasKqH0LUFLPS4z59WkvLr8qsqjE+Rf3Riw1o8cnYQxAAAAAAAAAAB1jmoMtBh7Quik7dXm+gfow7kzLAG+phfff5maRzWnN0e+Q2NS4+nxV54icZSUuHS8pS5rSs4M6nHjLZZ+wtF7bAwUBkPpxxeVKbMHtPQARymt3+unVbsC5N4ZoBunV1Ta/9ezyqlgR4A8oozrvZtTquRfOamCsrYFaO2eAG3+3E+DnDKf9fTScpr4STGlbw0qfd03r4KGrSih7Qf8tHJ3gIa4ShRjwDzWyNIJGAMAAAAAAAAAUOe8tV8aA2NORITaXnEtzVi13BLga4qOjaYhU4ZXynvspcdp8YY0S13W0k3p1LlrN0s/4ei9nBKavyFIV04spxumVdCyzQFKXlWslN0/r4y8uwLUMUnWfThVprV92yRU0FYRzD8i8rW8K8ZXKH/TRDsfOUuU7ctE3vp9fmV/Tr+0vJT2HvLR9VPKlfRD88uocI+fLk2S+451F0tjoIrxRpKkMbAfxgAAAAAAAAAA1BkhY4ADSrurnNq170iOXSssAb4mcUQ0yz3Pkl+dcva4qH379krb1v5qJjYGOLjP3BpQ7th/sttPbRNke0neYpq3PkjPLS0Naf8Rnxr8V9D980rJvdNvabN1QgUdPOqjzsn6uIatKKZ4DxsOFYoxsHAjGwyybIy7WDURZLrnlDLVGLCON5IEYwAAAAAAAAAA6hrVGGg+ujwi1LbLtTTVm24J8DU1a9GMRs0dWynPecBNK77wWuqylmxMp87duln6CUfv5RTTtMKAsh01poxSNwRpZH5QSXP+IhHAf5hbXEkdEuW+fReUkGOb3NeojolldOhLH8XGV+5n4mrZ7otpJTTlE7nNGr8ySG9nFYfSl4+XxoC53UgTjAEAAAAAAAAAqGs0Y2BUWUSI1xh4d0b1aww8PeAZioqJojfi3qb4RUk0MGkQtW7fhgZPGmqpy+I1Bq688TZLP+HoveximvZJIJTuNqGMdh/yi7+l9K4I1mes0cvMuiqllHZ94aMOCdayzfv9dPfsklA6dUNABP9BZfvFtGJpDKhlbzqKaeZavZ9HU+UaA+Y2I00wBgAAAAAAAACgrgkZA6URoZjHxtFNT75iCfA1uQ566OUP+1Gbjm3pv37xXxQVG01P9Huq2tcbDvj4TerR921LP+HoveygagzoecneACUKtY8vJc9OP01ZHaDnlgbpg5wgzV5Xue5Yd4Bcn/npleVBekcE/q9lcMBfSi8sK6Y1e/zUT+QnrQzQOrHdMYGNglLVGNDbuTSxhNbv9dGYgiANEPtnbvWrxoB1vJEkGAMAAAAAAAAAUNeoxkCzkSURoebvf0btLutGy7ZkWYL8cMWvNrzu5huoVf88Sz/hqPfkErprVnGlvMuTi+l3i4LKdsyYEvr9YjYFAiLYD1KPCZXrsu6bLcv7pwep23g9/7bpxfS+yH91eZDax+v5V6UU050zZfuaOiWU0FsONgYCdFmi7NPcT6QJxgAAAAAAAAAA1DUhY4CD1chQzG/ep9ufeNYS6IerYdNGUNeb7hJtcgBt7QdqeMEYAAAAAAAAAIC6RjMGRgQjR0OOUPseN1G/YQMtwX5NtWDNUrqie3eKfn2FtX3INoIxAAAAAAAAAAB1jWYMxAUiSvxIQYduPemVQW8o6wqYA/+ziU2Ba2/sTe2fSrS0C9lLMAYAAAAAAAAAoK5RjYFL4vwRp+YDd9KlNz1It957F03Onm4xAMziNQX48QGeKdDuqQRLe5D9BGMAAAAAAAAAAOoazRgY7otMDTtGrZ9OocuvupZuv+9OemvEuzQ1dyYtWp+mzCTgv/xKQn77wHU33UBdbuxD0f1d1nYgWwrGAAAAAAAAAADUNZoxMKwosvXxVxT70mK66pFXqXvvm6hzt27Url078be7SN9M3R99k6L6Oaz7QbYWjAEAAAAAAAAAqGtUY+DiYcchyHaCMQAAAAAAAAAAdY1mDAw9BkG2E4wBAAAAAAAAAKhrBpe34uArJuVHipn4Vwiyj8Q1qRgDcaXR5ssWAAAAAAAAAEBtMag4ioOv6KQ/UXTynyHIPhLXpGIMDA9gxgAAAAAAAAAA1BmDDirGQItxJ4VOQZCNdFJ9lADGAAAAAAAAAADUHaox0GxEEIJsJ6wxAAAAAAAAAAB1jWoMQJBdBWMAAAAAAAAAAOqSt/ZfzMFXdMJ3cp0BCLKLxDWpGgMXmy9bAAAAAAAAAAC1hWYMJH5vXfwNghpS4pqEMQAAAAAAAAAAdQ2MAciugjEAAAAAAAAAAPUAjAHIroIxAAAAAAAAAAD1AIwByK6CMQAAAAAAAAAA9UDIGPhOBGN/giD7KBGLDwIAAAAAAABA3YO3EkB2Fd5KAAAAAAAAAAD1AIwByK6CMQAAAAAAAAAA9QCMAciugjEAAAAAAAAAAPUAjAHIroIxAAAAAAAAAAD1gGoMRIkgLEoEY3WpDinf0+1zv7Xka7pj3hlqO8GaX5WunPod9ZxRfVtm3Zt6Wgk2zfn1qevFeLtOrdl5/rlzZdbNs89Qp4nfW/IjWjAGAAAAAAAAAKAeCBkDHIRyYFl3un3uGfLuClryNa3fFxDB8xlLPuvFjJP04KJvQul3ck9Q/KoyS73qdOhLH7Uez0G5tay25NoRpHV7pVbuDirja5+i9zm5sJT6OU5Y9mPdOf80Dcg+GUr/3LkyK31bcaXz0ygkrkkYAwAAAAAAAABQ19TQGIhNOF2tzHWr088Fu92nfkuxyVUH7+NXl9Hr2XpQbUdjYNuBAN0xT54PNjhyPi2mYQXlofLOk7+lDgajwKhnl5+kuRtKQumfO1dmwRgAAAAAAAAAAHBu1MAY4OB/99W9q1VNzQEt2OVg+ZM9AVqxo5juSdWD2ZnrSqnHNDmOpFXl1M9xkvI+C1Lh3iBt+Tyg7MMBcL+sE4oxMGlNKU1bW6bMNEjfWqIYC1pbz6afpFW7g0p/L2WerGQMvOc8odzRX83tif1umCVnKVwx+TtauKmEYgzmxFPLTtEHropQmre7TKk6uDcaA6xh7gpK+UQ3L7jfRxefUrb5GN7Nq6AFm0qV8fOxbT8gjy9pdXnoXHF/a8Txu3cG6b4Fetu3zjlDuZ8VK+dm7MpyytxWEjIGuA8+b3x8BaKNJ5fKPllTxfnqNVOflcGPY8zeUErRpmOxhWAMAAAAAAAAAEA9EIYx0Db+ZKWZApwO1xg4eNRHb+XIO/+PiACWg2HtLrrxUQIObLO2FytBeJsJVc8Y2PGFXwnEOahNEuXJahDOgf72gwHlLwf5XGY0BngfbWbCcxmnKH9ncahdDsyfMATSHHxrwTzrwFE/3Ty76uNlY2BIfgU9n35KMQU4KL99jh6EGx8liBPlWw/46ba5coy8j3nGAJ+r/uKY+fieWX5SCfS5jI9jw/6AYn5w+oWMk0pdzRi4UVlvQB4fnwMeF5senB60ooLGrdTNiuFiHCM9+qwGWwnGAAAAAAAAAADUA2EYA2YDoLr86sTBLgfzrZL1PJ5u/9gSGdCajYHfpekBeVXGAM8W0NIcFLORwNt8l53NAK2MZyEYjYEOImjmqfscJH8kAnkOqtuoZU+LPhdvlgH6LXNOKwG4cbxnEwfgPE5ulwN/vsvP5odWbjYGeFaEVlbVowSb90sjgMVj/0IcAxsad6d+EzIJNPGsAs0Y4PE+LPod6DqhjIXXPHhwoSzrNvVbZZxstnCbbE5cb5hBYCvBGAAAAAAAAACAekAzBuK/pajE76tUbLxqAIi/NcmvTnz3nKe+G/NSN5Yqd8t5O2QMJEpj4N75ershY0BNh9YYUNP3zP9GMRl4e5SnnIaIgFgrazNeXWNABNW8zdP2R3nLlX5fSJd325VZC6JubNJ3SkB+1bQzSuA+iB8jMIz3bFIeJZirj5mDcz4mLa0YA5nyGNgYGGwYo2IMrC8JpflcKWsMGNqXBsb39Njib8jBJoihjI9dCf7F9hTRDz8SwcfHWinaUWY9qHXnbCil50Q+Gy88Q8LYjq0UD2MAAAAAAAAAAOqeejYG9h32UUc1CI8WYqOAg3pOn80Y4BkAyiMIavpsxsCALPXuu1p2m+hXMwZ4m40BrazXDFmmGQMsNhXGeMvpsy/81H1K9efFLLMx8JAI1Pcc9ofSZmPAaDr8Pu2kYpJo6bMZAzfOOqPc6WcTg/PbiOPiRyc0Y2DXIX3cXGfT/kAlY+CBBXJ2xfKtxXJWhqEPWwnGAAAAAAAAAADUAyFjgANyDjStio3/RjUAOPD8+fzqdPuc07RTBNu8yOCDC04pwb7zsyC1UgLc71RjgAPr71RjQG93QNYJytsRpOfTT9Lts08bjAFZrhsD31HnSWeUxQr/mFeh3LXnRwOkMfAtdUr5lj4VQfQrmSeVYHnplhJl3YAOKRxIy7Z6TD2j5M3fyOZC5WMIrTFgymdtE8G68iiBq5w+zi9XHkOIc5eHynVj4Dsln+tpZTfNOq3sz+WPLDqlnCtpDOjthx55ENtpIqjnmQF8HqeuKVWNAQ7yv1NmE4z1livpaWtLlXalMSD3jRbihRnZXOBzYj4O20hckzAGAAAAAAAAAKCuCcMYaDvuhLKtqd3YirCMga5TzlB/EeBzwJ+8ulR5O0HniXq/b+ZUKEE9b3PgftU0PQBn8+DpZSeVYJoD3j5zv6GH+Zl6tZyD+ZfUoJvVc/oZZZE9Ng/YbOD9NAOCjQUu4+CZywY6K5S77sax8qwCNhWMeawPnOXUZXLVwfS7uTwLQAb8bErcy29cMJQ/vuSU0jdv8zEYjQ8Wmxs8Fj527VwZyz8U7cYkyb7ZyOBHESasLqOHFvIjAyfp2mny3PH4+NzyOWbjgB9T0AwXTVxmNC1sKRgDAAAAAAAAAFAPhGEMVKeaGgORIjYEVu8OhIyExqbuU/hNBf5KxostBWMAAAAAAAAAAOqBGhgDLONMAbPMdSNZEwvLlEcS7pjbuI5LEz+q4NkZpJcNsytsKxgDAAAAAAAAAFAP1NAYgKB6F4wBAAAAAAAAAKgHQsYATyvn59chyCYS1ySMAQAAAAAAAACoa2AMQHYVjAEAAAAAAAAAqAc0Y2DcaYpK+BaC7KNxMAYAAAAAAAAAoO6BMQDZVTAGAAAAAAAAAKAegDEA2VUwBgAAAAAAAACgHoAxANlVMAYAAAAAAAAAoB6AMQDZVTAGAAAAAAAAAKAeCBkD34hg7AwE2UfimoQxAAAAAAAAAAB1jWoMtBRBWEsRjEGQbQRjAAAAAAAAAADqARgDkF0FYwAAAAAAAAAA6gEYA5BdBWMAAAAAAAAAAOoBGAMWtZ9wmnpM/YaiE/W81klnqNtknKN6FYwBAAAAAAAAAKgHjMZA/BlI6J2ccjr0pY9eTq8I5fWZe4rW7g1Y6kJ1KBgDAAAAAADnR9TI0vhmI4L/vmTYMbpoyBHlxxUEQQ2ni4cdp2ZxwTOXjD/d1vx9bVBCxsApEYydrlYxY09UK3PdmqjbpFN0WQqbEZXzrxB5PaacotZJ1n1YbZNkeasEuS/X43RsorVuu2RZl/cxl51N7+SU0ardQdq4PxAaR5+5J1VjQKaj4mW/V/IsgiraYPHxdZmkn9dOE76h7pOqrn+5etzcrrmsyUpck3xtwhgAAAAAADgHLhkRLLloyJfUYnQFRSf9iaJT/kKtUn6EIKiBFD3hB4pK+p6axQXo4o+P/WQrc6AGxgAH/7uv7l2tamoO3DbrFH2yJ0CpG4spY2sxbT/gp9ezykPlc9cXk2N7kJZuLqYtouyRhXq7Ez8ppVnrSsj1WZDydwSpYGeA7k89QU6RzhPidi8drwfdHNyvE4H8si1BWr/PT08t4bv/+lheyqigD5xlljFq+04qLKEFG0vo7Rw5PqMx0FkE8d7dAWWcOZ8GaeXuYKWAf5sYe8rqUqWM+x7jKVPayRVpbmOyaFury8bDvA3F5BHHk741qBgS10yp/rNoUoIxAAAAAABwbjSLC265+OOvKDrpz9Rqwl8gCLKZLokLULM4f4X5u9tghGEMtBlTVmmmAKfDNQYOHvXRrbNOKulbxF82B7RyvsOvbd8x5ySt3q3foWdjYLkInLWZAo5tQcraHgzNFFiwsZj6ZapBvNh3jQjA26vtcaDN/RhnDtTEGLhxxiklyO8w/ptKxgCPobVhhsJHK8potLs0lOZ9/pgr22YTYe9hH33kkun2oq1dh/yhmQZDVpQqfWn7viLGxcaJeUxNUjAGAAAAAADOjUuGfv1Ty3Hf/NRqwg8EQZD9FJX4HV0svqfm726DEYYxYDYAqsuvTmwMcMCupaMTTtMXX/pCwT2bARNWlyh3ztO3Fismgja1no2BN7P12QXx3lIaZAjsh+WXKUE2b3OgzjMJuFzT9oN+pX/zmKqSZgzw9hTxl4N686MEzy8vpznr5Vj5bj8bE1oZGwPXT5PmB4tnLhj7dov6d86R5TwDYvqa4tA4eXYB728eU5MUjAEAAAAAgHNg8M6L+EdUVPL/o+jx/wtBkA3F38+LPjpKF8TTL81f4Qahno0B7y49uGZx8N8m6TR1mXhKCd4fXnhCeda+1/RTygKA2gwBNgb6O3RjYKy3lP6YoxsDbAp8rBoDcQVltHBTMT2XVlFJvH6BeUxVyWgMXCXG8qkY1+OLK0LGwLOiLQ7ob5p5Uhnra5nltHhzZWOA87V0odjvhhl6mh+F4FkNvM3nY5gYr3Gczyyr/NhDkxWMAQAAAACAc2B4oCX/iOLHCKLZHIAgyH4S308l2BHfV/NXuEGwiTHAd+T5zruW/+iiE+dsDDwhgvj8nfpjB1Wp4/hvqlz8kGU0BrS+eAaCZgwMzS9TgnmtPGlV6TkbAyniuNjIMI8BOg1jAAAAAADgnAgZA38SAQibA1BdqdWgXRTbN57aXn8/te/ak9q1a0ftu11HbXv9llo/OZ5aDT1s2QeCFInvZ6QaA+Y1BtqOLq01Y4DXF+Ap92wAjPKUKgv7nasxwI8ozFxXoixKyI8V8GMHvECgsV+uO3WNHvwbZTYGeKbB7kP+kDHAQT3PbmBzYNraEmWRwXM1BvjtDLxw4kzRDj9KwI8VGPtu0oIxAAAAAABwDmjGQOL30hyAal2thhygDnf8gTpfeQ099lo/SlwygRatT6O8ffm0aN0yips/ke545mVq37kbtX5wCEWLQMrcBtTEJb6f9jQGOFDlINyqmLEVljcRGMXl5n2qUvvkU3SbsvCgnnfPvBMikJfbHcefUt4e0HdxBbVOlGVRaj1+Zr/LJH3fa6eepCsnc7At01dNOanI2Db3xVPzH1lYQZ0m6HW1+r2UdQCs4+wugnW5RoCed8OMk/Tr2WyAyPQ1U2TbfeacoMtE2zfO0OtzXhtloUMp3q9tkt4/j6v9eD0dK4714YXyMYI+c08oaWPfTVbimoQxAAAAAAAQLqoxwIub8avRoNpV7EuL6dIrutFrQ9+h3H35lH9oZbVK2+qgPk8/Qx2uvoWihx22tAU1YYnvZ6QZAywO/quTuS4E1YpgDAAAAAAAnAOaMZDwrTQHoFpT2yfGUbee19Fs93yLCXA29R8+kDp0v46ihx21tAk1UYnvZyQaAxBU74IxAAAAAABwDmjGQPwZaQ5AtaLYFxdR92uvo7QtmZbAvyZ6edCbdOnND1PUuG8sbUNNUOL7aVtjYBwHYxBkF8EYAAAAAAAIH9UYUBZtSjgD1YKiB+9VHh8Id6aAUa6DHrrl3rsp9tmZlvahJijx/YQxAEE1EYwBAAAAAIDw0YwB/kFlXt0ZOid1+PWzNGDYO5ZgP1xNzp5Ol/W4jlqOOb/3k1+e8o2y2rlRvAL73fNO0AOpNVsZnld559XPo6ooY72QXl5pRXWoliW+nzAGIKgmgjEAAAAAABA+b2nGwKkqfmBB4Srq/W3U+cqrf3ahwZrq1nv6UMyrWZZ+wtG89cVUuCdA6VuDIXVOOUV/SCun/pnllvpVqU3iN8pr4JSV4Ksod2wL0j1zT1jyodqS9go2uxkD/Jnzvx0QZBedgDEAAAAAABA2qjHQYtxJoVPQeSrmkVHU97V+lgBf04qDXnpx4CvUqk0M/eIXv6BLu3SiVq1b0Yz8OZa6rLdHvkuXP/yWpZ9wNHd9Mb2ZVWbJbz/+pPKqN2Pe1VNO0J2zK6h1UuX81omnFGMgKkHP6zrxJN066wRFx58kx7YA3T23wtIHVFvS7oLCGICgswvGAAAAAABA+GjGwNgTQieh81S7XvdT8rKJlgBf04vvv0zNo5rTmyPfoTGp8fT4K0+R+BQocel4S13WlJwZ1KXXbZZ+wtHc9UF6M6vUkj8wr4RGFpQo27EJJ2nehiCt+CxAs9cV0/p9frp1RkWobmtRrhgD8TI9wFFKm/cHaM66IGVuC5B3V4DunlNu6QOqLWnBDowBCDq7YAwAAAAAAITPW/ulMTDmBFQL6tDlGlq4dqklwNcUHRtNQ6YMr5T32EuP0+INaZa6rKWb0qlTl26WfsIRGwOFe/yUviWgaDSbASJ/YC4bA8XK9ns5JTRtjdxmPbagjLJFwK+lW8efkMaA+NHdObmCdh/yU49J5UpZ76nldPCoTxoDVfQP1Y7UYAfGAASdVTAGAAAAAADCJ2QMVEDnrXJq36EjZe92WQJ8TeKM0yz3PEt+dcrZ46L27TsobVv7q5nYGIj3FIvAvUzRjdPKlPyBucWqMVBBy7fIu/8f5hUrGraimD4/4gu10Tq+QjUGKujh1FLKUkwDvQ85Y0C2C9WN7GgMtBBBmPWxBwhqSMEYAAAAAAAIH9UYaD66HKoFte9y7VlnDDRr0YxGzR1bKc95wE0rvvBa6rKWbOQZA90t/YSjuesC9IajxJKvGAP5QWWb1wjg9N2zSytJqxs7rlwxBlqOLadHF5RS5lZ/pbYKdvgr1YdqXzAGIKgmgjEAAAAAABA+mjEwqgyqBbW5/gEavXCSJcDX9PSAZygqJoreiHub4hcl0cCkQdS6fRsaPGmopS6L1xjofP2vLf2EI8UYyCy25A/MCUpjQGwPcxXTpFWBSuUtx+jbsWPLpDEg8rqNL6VdX/jp0sRSpYzT+4/46O5ZJZY+oNqTLY0BZW2SUxBkI8EYAAAAAAAIn5AxwEEedL6KeWwc9XnmRUuAr8l10EMvf9iP2nRsS//1i/+iqNhoeqLfU9W+3rD/kDep7QPvW/oJR9IYYAOgcr5uDJRS+/hSytkeoLTNfhpZEKQZa/jRAjYKZN3YsaWqMSDTQ11BWrnLT2PdAXJs9dMnu/2qMWDtH6od2dcYMC+UCEENKRgDAAAAAADhoxoDzUaWQLWg5u9/Rh06d6W0rQ5LkB+u+NWGV/a+kVq+mmfpJxx1SiihNuOs+W3jS6h9vJ5uPqqEbplWTH1Tg8rfFqMrl3WbUFxp/xunFtMj84upnWi7c1IJxYyx9gHVnmAMQFBNBGMAAAAAACB8NGNgRDFUS4q57326+3e/twT64erjqSOpw/X3iDaDlj6gpicYA1VrzvogXTGh4cdRE/FrP59bVhYSv8mj5ThZFknHYW/BGAAAAAAACJ+QMcDBJ1QrGnKEOvS4iV4b/r4l2K+pFqxZSp269qCWr+Vb24eapGAMVK1tn/vpykkVlnw7qvN4+drPoStKaLS7hFbuDtCyzQGKGhdZx2FvwRgAAAAAAAgfzRiIC0C1KH6koGP3nvTKoDeUdQXMgf/ZxKZAt+tvpFZ9kyztQk1XkWgMtBpTVq3MdatTu6QTdOvMCuVu+h/SyuiRBeVKIK2Vc0B9zeQT1HdhOT27rIwuM91152Cb784/uaSM2ibqZVzvhukV1DXlhFL+UKp+917TnbPkvg/Ot5a1TjxJTy6Wd/77LipXZgMYy6uSZgzwMXG6Y/JJ2nfYR3fMrmiw42h8gjEAAAAAABA+qjFwSZwfqmU1H7iTLr3pQbr13rtocvZ0iwFgFq8pwI8P8EyB6L5Jlvagpq1IMwY4+N99de9qVVNzgE2BzSJodmwP0Ad5JcrfqYXFoXIOqJdvCdLIghKatLqY1u0NhIJ0DoS3H/Ard+gnf1JMhXsC1Gm8HPMTi8po9W6/csf+wzx5935gbkmo3XhPCWVuk30u2FBMM9fqfbKcnwZoomiT90n0ltBv5pUr+ddOkcF/TLz1WMzGQJSow2/4uG+eNAYa4jgan2AMAAAAAACEj2YMDPdBdaFhxyjmqYnUuUdPuu3ePvTWiHdpau5MWrQ+TZlJwH/5lYT89oEevW+kDtfdTS36u6ztQE1e9jUGqpZmDLQeFaw0U4DTujFg3c+sW2eW08EjPuquTLM/Qa0TT9BWESTfME2mOaB+aoneVsFOP907l4N0uf30Ur1s1rogDXJy0HxCCag37fdTbIIs6zO7XAmqefsW0ScH5jHxsixq3AnlzRs3z5Dttk2soL2HfMpYzOPtNL5CCdCj1H2N6izK2Bj4bWo5PbKgjKaIIJ/H0CZRGgP1fRyNVTAGAAAAAADCRTMGhhVBdamPv6KoF5bSFQ++Rl2uv5ku69qd2rVrR526Xkmde95KbX7zLrV4Ocu6HwSpilRjwGwAVJdfndgY4ODWmLdgY4CeXVaqbHNAffVkaRIoZRuC1HdhqRKYHzzqoy4petlrmaXKIn+8zQH14k1ym8XGA89M4O1XRT2+Q5++NRASp3+3RPbJSl5ZTFtE/ZTVxaK/mh2LZgxMKSxW9hssgvuu6vga6jgao2AMAAAAAACEi2oMXDzsOARBNlZTNga0QFfT8i0B5Vl73paL9ul3wFM3yoC65bgTyvP7xmD7newSml6oB9QcfGtl3SfqAfWLy0uVqfncrlF8Z984Dg7W+dl9764AvZEl7+CfTZox0C6pcjushjyOxiYYAwAAAAAA4aIZA0OPQRBkY9nSGBhzolq1Gq0aAOJvTfKr060zypVg+jfzZP1rJlUoz+V3mVChpJWAemJ5qH6qeqedtxeK4HpQXomy3TrhBOXvCNBLy2VZKKBW9+ueogbUvC2C6x1f+KjXVL3dzskVFMtT8rkt8bdTsuyf9UFuCSWvKla224mg+7mlZRTFQapabmxDMQY4MDeVNcRxNFbBGAAAAAAACJf3KmL4R1RMyo8UM/GvEATZUeL7qQQ7caXR5q9wgxCGMdB6ZFDZ1tRmZCBsY+CTPX4lOM5Up8K/ki6DYtbZAuoek8qpYIef8j4N0MZ9cto/P2fPZWcLqLXyjfv95NgWUAJxnhWgmQFXTKhQyrhdLufF/3qrwfe1k2XwH6P2Y9S5GgN1dRyNVTAGAAAAAADCZVBxFP+Iikr8jqKSvocgyI4S308l2BkeiLgZA9UpHGPAszOgbHcVAXlVQfXPife7lKfvV1F2NrUce0IJ1qvbl9cH6MbP/ldRVheqq+NobIIxAAAAAAAQLoMOKsaA+RlNCILsJXs+SsCBZvVqNbq0WpnrVidpDPAdcGsZBFUlGAMAAAAAAOGiGgPN4gIQBNlYkWgM1IY6JZfTYwtqbiRAEIwBAAAAAIBwUY2Bi4Z8qfyYgiDIvmqKxgAEhSv1uwJjAAAAAACgxtTgWWEIghpetgp2YAxANpatvisAAAAAABEBfuBDUETIVsEO/t2AbCxbfVcAAAAAACIC/MCHoIiQrYId/LsB2Vi2+q4AAAAAAEQE6g/85qPLIQiysWwV7MAYgGwsW31XAAAAAAAiAhgDEBQRslWwg383IBvLVt8VAAAAAICIIPQDvwyCIBvLVsEOjAHIxrLVdwUAAAAAICLQfuCPKoMgyMayVbADYwCysWz1XQEAAAAAiAgMxgD/hSDIvrJNsANjALKxbPVdAQAAAACICELGQCkEQTaWrYIdGAOQjWWr7woAAAAAQEQAYwCCIkK2CnZgDEA2lq2+KwAAAAAAEYH6A7/ZyBIIgmwsWwU7IWOgDIJsJ1t9VwAAAAAAIgIYAxAUEbJVsNNIjYHLk8to1xf+UHrvYR9dmlRqqWfWYwtKKGV1sJI+yA1a6p2vBuUV01CXbPf5ZcU0rTBgqQPBGAAAAAAACJ+QMVAMQZCNZatgp5EaA7HxZfT7JcWhdE2NgQ9FwO7Y5qc/LC0J6aHUEku989WN00ro5ulyPM/DGKhWtvquAAAAAABEBJoxMKIYgiAby1bBTg2NgehRxdXKXPdsunx8KX3sknfi380uVgJ4Y/mAzGIlaB5ZEKSklUFlu1NyKQ1fUUzjRfqOmXpwf1lSGb2XU6y0leCtXNYmvpT+mF21MdAxsbRak4CNgcmrqw7Sr55UqhgFv50vZxXwXf+YcWX0m7klNGFVkIauCCr9avXvnl1CYz3yWLnddol6W1x23xwYAz8nW31XAAAAAAAigpAxEIQgyMayVbCjGQOjyqpV9Mhi2n1172rF5eZ9qlLHhFJau8dPAzKK6e5ZJZToDdCctYFKddaJ8sytfnpEBN9viHpbPvfR7HVB6ptaTK8sL6YdX/ioLQffou4t00rphWWyracWldBmUfe6ybLs8iT1UQK1XcUYSJRlo1XTwTw+1oe5xbRkU0BpU9O1k0qUsofmldCnB/1KsH+PCOyXbwnQko0BxbDg9CKxPdatt9tPjPfBebKNcSKf62ploUcJxPbzS4tp2ieVzwMkZavvCgAAAABARABjAIIiQrYKdsIwBmLjfMq2Jk6HYwy8kanejVfTUaNL6bODPiWI1/LYGOAAXEuv3+ujpxfrafcOP93JMwPUdMzYMrpxqgy+Z60N0lsOOZazGQNXTyylaybpbRjFxgCbERz0a9La5HGxsdGC72Zzen4JbT3go5ZjZPouMYb8HXqfrE5JpdRH5LNxsE+MofU42S+MgZrJVt8VAAAAAICIIGQMBCAIsrFsFeyEYQyYDYDq8qtTojeoGAEc/Bul3eVncfp6Q7pABNq3z9CNAcdWvzJ1n7fvnV2q1J9eGKCUVUElKB+c9/PGwNnExoDRvDCKjYHlm/UyDvhdn+p9sEHxyW49zbMSePw8NhYbA5cnwxgIR7b6rgAAAAAARASaMRAXgCDIxrJVsBMyBjhgrVrRI4OqAcCB7M/nV6fBeUEa6+EA2FqmSRoDHPjLtG4MyLQ0Bjj4L1Wm7j/DCwyqZRx8cx+8fXlSKe36whcqk8aA3k51+jA3qBoD1jLFGNjCgb9M95lVTE7FGJBp3RgopR4pJbT9gJ9ajZFlbcaV0MGjbAzIMQwS45TGQCk9vzSoGgPWPpu6bPVdAQAAAACICNQf+JfE+W2t1mP81CHemt9UdEWin1qOtOaHqxYjZFvm/IZQJ/F5xoyy5kNVy1bBTj0aA9dNksHyA2pgz4H604sq7xuOMcDB9HA1uL57drFiBNTEGPjd4mJ6bmnVY2ZjwLzGgNZ/OMZAp6QS2nPIrxxz7LhSZY2Bg0dgDIQrW31XAAAAAAAigggxBl5J89OEldb8n9Oj83zUbqw1/3z1zOLaCdSrUnMRvD+7yE/NRuh5/Ixyz4nWuuGqW7KPNu3zWfLrQ48vkAaPll64wad8Prx9+zQ/XZti3ac29XtxTkeukNtPLfDRmPzwzgN/LnPX+eiNDGtZfchWwU4YxkBsXJGyral13PGwjAEWB9NLN8lHCHgavhYca+IAuXuKbgRMWBmg6wxGwVh3gG6ZJtNXinqLNwaUtqaK/d7IDCor/HNZx4QSWrBBD9o52JeLFpZS//Ridd0A6/jYMODg36gZ/MYAUcYGwah8fby9p8gFFLX01RNLaIphtgEvjOjZ6SevEG/PWx9QxsVlbAa8pI6VFygcmFPzc9iUZKvvCgAAAABARKAZA8P9tlbIGKii7Gz6ZLePek/0WfLPVweO+qgNB7lVlJ2vokf66dCXPmrBAaGapxgDHDhXUT8cdUtSjYEqyupam/f7qUeynu410U8dxsntJI+P+i+vu3E1F+eyUFwLlyfoab42uqjpmui+WT5aI/bhReZasmlTRZ26lK2CnTCMgeoUjjEAQeHIVt8VAAAAAICIIGQMcFBWf4odVfkv6+4ZPpq40kfLN/to8iofXTtBL3slzUeTRNn7WbJ8XL6PWo+WZc1H+Ohdh4+WbpRlg3Jk/nOLfcq04LlrfTRhpTQIBqT76ME5PiUQXbDeR9eLvHi33G/2Gh/dOb3yOHtNlGPh8hTRRlcRWL+V4VOe+52yWrZ7eYKPBos+75npo2kib/EGH90vgsgrEuS+S8S4+s6v3O6vp/loZqFsd6A4pqgRehmn2Rjgc8Htdxzno7V7fPTIXB9N/0S2/1SqXr9ZnAyqOX/+OnF8syv39VtxvHx3ftYa2YY0BqSq+hyqU3PRzx8dcswJbtnWS0v18utS9HM1YoX++bC43p7D8hzzMfFn+7r4LG6a7KPbp/po9S4f5WyTZU+kyn3umyk/u2WbfPRmhuxfa6/DOHnHn4+Vj22GOJdsevA1xJ8r93PNeL0+t7V8U+XjGeaU1xNv8znsIz77Vmc5D1PFuX81TbajzHQwlPF1xZ95gkce/xvpMr9FnMxrO0av2yPZR0PzrO3/nGwV7NTAGGAZZwqYZa4LQbUlW31XAAAAAAAigjCMgbZJSyhmwnP0PwmPUKsJz1P0uOWWOjURB/kcSHEgt2iDnv+QCGBvmyrzX1jCq5DLwErbhwNLDsyuGi+DZg7+uIwNgLRNMhDkoOtxNQjvMFYG1A/Mlm1y0JcqAudPdklzgANZDtA5oOdyDjK3fu6jzglyf25r+wEf/W6hLOfgkvvuJIJSnjHApgLntxRBvWeHjzK3+OjWKTJoZEOCx8dBL/e/+5CPLouX7XIdPja+A91jvDQYxhbo54HNBzYGrkyW7fM54OPggJP35f24/SuTZH02RXK3+6j3JFm2TRxDnxmy7ObJMs1jv0GUO7ZWNgbSN8txcYD8zKLKn5NZbArw/myWcD/r98mxc5k2E+ExcezdxbhHuOS51vblQJ7PLY9L+SxGyoCezxWbEmx4fJAty9qNkeeMzYI7psvPNXW9LNfa43r7j/govkCaDCNFf+4d0ljomSKNmqyten0OxIfkVj6eh+fK4+dtNmb4nPPnaz5uFgf2fM75OJ4X1+Y8w7Gx+Fi9O+V54XPOn5dm0GiGglaXz83HTmsfPydbBTs1NAYgqCFkq+8KAAAAAEBEoBkDw4rOqtj4ZRST8jQNKPiYRq2PV/62mvA0NR+daal7Ng3JLVKCyVsmF5HrUxGsTqxcfk1yEd0/q4ieFcH45v0i+BZBHue/sqxIBnpqvdaji5TAsP2YInp5aZFiDHRLtPanPEqQoqc5gHs7o3KdLglFdI8IWLlP53b1jrU6Vg48zW2ylEcJRutpNgYenqOnCz4rot8t0NOOLUX0wCzZFt9Vf225XtZpbBHtOqj3Ez2iSD5KMFyvw4HmvTP1NB+HNk4u4/FrZRxAcx+8PbagiD7K0ffjMSjGgJr+9VSf8jncOKmI5qz10Tumc2PUKhH49pmmp7ldxRgQ24PFNgfnWllzMXYlkB6j1+fPs0eSnl4ogv1H58rtJHcR9U/Ty3j2w9Opevo68RnyowBamj/rz8Xn32qETPNnyOesnfqZtBV/edE2HgeneXYGXyfa/qze4trbuLdym8ZzbhTvO3uN3OZrj4/tsnF6OX8exs+UjYgP2cgQ23eIc5b/mczn8W7/nE0dax8/J1sFOyFjgJ99hyB7yVbfFQAAAACAiKCGxkDU+BdpQP7HlLw5OSRON0t62VK3OnEgtUEEpRz8c8CtTKc2lHMQm7u9SHkU4IMsGUjePlWWsTEwVQ1CNXH5tRNEsDWyiIY7ZYDMRkA/nt6u1qnKGHh8vp5+dZlPCXg/zpN9ckD//GJZxsH16/zcu6FPTVUZAzdP0uuyiWEM1jnQfUQ1DjI2+8j9mZwBYJQWlFZnDPScoKenry6i3y+U2/ye8+6GQJPzl26U27ML9eNhXT2+qJIxwEr0yECWzQH+fFqP0suM4nfJGwPal5boxgCfKz7X5mO6Il6vH44xwJ8JmzTGtpQZCGo5B/E8E0JLswHBK8hr6ZZx8hxGxck0z94wGwO9UqT5ZMyrTnxdjvdI84jFn5/RYDJfV+87ipRrSktz/dumSLNoCc+SqaKPn5Otgh3NGBhZAkG2k62+KwAAAAAAEYH6A//iYcfPql8mPKbMFDAaA5z+n4S+lrpn07UTjtOKT310y5TjSjAYJwJ6zo8ecVy5wxs7UtZrPvy4Mo3/tqkyzcZA5hZZl8X15IyByu3zneUdB3lKuEyv3iUCwIl6OQdwfefp7XD5zZP1cscWfjRBln+cV0Rj8/W6RvHdar4rraXZGLhpkp5mY+Cu6XqajQGeUcDb0z8poteXV90uq0XccSWobRmn57ExwOdOS09bLYLMhbKNdXuKqI+hr/ezOFCX6XEFbLToZffOPK4YA1p6vNdHca4iunPacSUQvzLJOh5NKz7jKf56WyNc0hjg7aHiXI1aobdblfju/FXJ+v4L1xfRo3PlNpsTAwznJG1TET29oPpz1DXxuGIMaGm+DtgY0NLmc8jH+GF25fZ4Zgp/3ua2zeoprqlPD/DaD0Uh8XlduUvf13xdvacYA3qar18+1/zogrFeOLJVsKP+u9FMBGEQZDfZ6rsCAAAAABAR1NAY4JkB5hkDr4n0hQn9LHV/Tp0TjtNv1SCZ7+Ly30uGH1dWe38q9Th1SZRB5t5DlY0BTv9hkQwKOZDkhfa47MHZx0Vgy9PJjyv1OYjjbS7jO+eDsn1KOQeP5gCOA1AO9Lj+q2myD80Y4CD2s4NF9GRqkdInz17ooQbOcmYCB9RFFDMyPGOAg/DN++UjE9wu76f1qYnvZHMet8+mydmMATYCMrYU0TXj5XngZ/nvniHLbp9SpJxX7pPLl2+WMwa0dvi88l8+Jx3GWj8ro15YLO/k83G8uESOSTMG+FzxFHn+/PiYeqUcp/5plffnc/JHhzymNqMrGwPvZR1XPk8uY3PikXlylgQbHtq5NxoF4RoDfL3xZ2AcD18X/AgEb7MRxefm8njrcbOpkOCu/Pk0i5OfEZ9fTpuvK7MxECuOl88Pf+48NnMfNZGtgh0YA5CNZavvCgAAAABARKAZA0OPnVUXjsyiFsnPhNYYeC1/KDVL+gP9akSWpe656vbJx2nBOjkNng2AgSJYvDJRlt01/Ti9tETexV8ugvlkEai1G62XzVoj81PF/g/OOh5qkwP50SuO0wRvEfWacIwGLOdA3FAuAswZhXLf9xyyjzun6WPiulr51FU8hV3PH5dfpLTbOf4YDc4+HipjcVvXJOvpN9KL6AaeuaCmOVDXxszPrj8xXy9j8bmIL5DtdxhzjIbnHVf60cpfXnpcqcPbzYYdozfTpcnB5+/ROZXbenw+GxNspBTRb2YepxE8S8NQHo6eTJXn8m3R3+viXCa49b56pRyjKavUz2EtGyeVx3HN+GM0Ol/uz+eG979R/SxiRx4Tgbo8Xu1cPDD7GM1dK9vjWRYPzdbbay/OCX+uWjp2xDFK5OBdTTcbfkxpi/9yuoX4u26vPJdaHV4sUDF6DPUv5RkohjGzhuZW/uw0Pbf4uHJuedt8Xf1WjLUvmx6G+vx5D8m1tlNT2SrYgTEA2Vi2+q4AAAAAAEQENTQGWGwC/Cr+Vfrv+Efpl+NerVVTALK/OPhuPUrfzt7KCwSee6Bb32Kjgs0H3mbzaKL33A2ScMUmFs9wUGayVFFeE9kq2IExANlYtvquAAAAAABEBCFj4GsIOquuSpZ32XmKPz+OEOc8Ts2GWevZVc2Gf02dxsntdqO/plZxHHBb69W23s08rjze8XYGmwLW8prKVsEOjAHIxrLVdwUAAAAAICLQjIGPv4YgyMayVbATMgaKIch2stV3BQAAAAAgIggZA19BEGRj2SrYgTEA2Vi2+q4AAAAAAEQEMAYgKCJkq2AHxgBkY9nquwIAAAAAEBGoP/Av4sADgiD7yk7BjmYMjCiGINvJVt8VAAAAAICIQDMGhnwJQZCdZadgB8YAZGPZ6rsCAAAAABARPOv8Jf+I+tWQr/9jCUQgCLKPONiJp/82f4UbBJsYA+84AtR6jDW/KvWZGaT7Zwct+bWpDuOCNKPQT3sO+2jnQR95d/rphWV6nx3jg/RGesCyX3V6amGQrp9kzYfOLhgDAAAAAADngPgR9feLhhz9XoggCLKnLhTfU/N3t8EIGQMc9FavqDhftTLXPRdx8N05kQNta5lZ72UHaES+35Jfm0r2+GnOGj/FjpFj6pIUpDtn6OO7JiVAG/bV/NjnrvXTUwtrdnyQLhgDAAAAAADnwIWDjy68aPCRny76SAQgUL3oYn58o4r8ulS7uC+o6+gDlnwoEnTk7xcPObLT/N1tMGpgDHDwv/vq3tWqpuZAx/iAchd+3R6pMQUyuP8o108HjvrIsc1Hyzf7qefEAL20LEArPpP1Mrb46Zapso1ek4O0VuRxUM51P8wJ0ENzA/SOQzcKeowP0sRVMh09Kqj0s0btc9FGvV7vSUG6e2bVwTq3/Upa1WWs1PU+2ndYjoHVfGSQRqzwKzMLuB82FS5Pkvs/nhqg7Z/LWQdc9+mFAXorM0CPztfbf2hukN7NkunLEoI0Z61sh8c93FW3JoidBWMAAAAAAOAcuXDw0U3KWgNNSLHDvlBkzq9LNRtymPrN3Erthx+0lNW1esfvpUGpGy35daGnp25X+rslcU+lY71B5EUPPWSpD1WvCz868q8LBx/5+wXxxVHm722DEYYxEDvs60ozBTgdjjEwODdAiZ4AtRDBegsRSN80RQ+MzTMGfj09SK3HyO2H5wVo3V6fEnxz2jxj4MWlAUpZpe97w+QArdwly/ku/bJNPopR27plij4ebocDcC1t1BsZAfr0oJ+GOWUA33Zc5fKqZgywyRClHhsbFrMNbZtnDCR5/dRvuZ5+XhyDZmawwcDHx+3wueLjMfbTlMTXJowBAAAAAIBz5MKPvrz/4o+Onrzoo8P/NgcnjUFsAtyZvJsGzN5Ck5YX0ohF60Wgbq1XV+o44iAlLltDU9ILLWX1od9O3EGZTi91Hf25pay2xX1wX2OXrKX0PC+9P38j9Rizn25N3ENLc730zrxN1HPcPst+UGVd+NGRf140+OhuW5kCTBjGgNkAqC6/OnGwnbnFR3eJALrV6MplZmOAyx8TATnfRf8gRz7rz9P5uSwcY+D+2QH6ZLdPMRc0o6GmemBOgMaLAH6VaGvvIR89t+TsjxLwjAieDcDjHZUfoM37z80YeD/br5gZ/OgCGw3mcTUl8bUJYwAAAAAAACg4nc5WWS7v7xx5ntkOp+ewEBl02OEobGHep67IzvM8Lvr8nvvOcrrnmMvrA9HvNOXYXd48c1ldwP1wf5l57v8YzvuWTKdnnyH9lcPlHiI+q9bm/YGNqUdjgIPcAelyOv32A/IxAK3MaAzwzICcbX4R7PvpD4sDirj8qgmybjjGAOv3iwLK1H/uk4PvlurMg3D00jJpTmiGhtkYuDQhSBv3+ZVZETxebcaBVv5zxsALy3RjgPvgRw34EQpuw/iYRFMTjAEAAAAAgCbMzxgBRp3IyfF0Mu9fFyxcuPB/HHneqaLPn7T+RaD8lLlefeBwelepY/hP9oqV15rLaxvug/uq4vyzQudD1T+ynJ4VmU7vw/Hx8b8wtwVsRj0aA0Z1Tgwqd+E1M+Czg/qMgG7J0ijQ6nLQffCIbgzwLAJtfQIWB/7z1ulpnmlgNAY0xYqAe/UuH903O/yp+WwEHPrSR+3GyjSPxTgjoG9qgJYY1i/g2QZGY4DXHOBxaunR+QHF4NDSQ53StDD321WcE15/wfwoQ1MRjAEAAAAAgCZEDY2Aw1ye6fT41fRfclZ4bzC3VRdkOFddJvrbZRrPv9Pc7gaZFi4C7+OhcdTzrAGjMk1mQabLc9pUp0wogc+fuT1gE0LGAAepVSsqrkg1AIpqlF+d+i/303NL/MqjBHwHfuvnPhGsyzLHVp8I9n3K3fYrkgK0RZS9lu6n+2f7acF6P+055BfBuKz7iAj8OcDX2uo23k+7vuB9/fTEAj9lb/OrxkCAHpvvp9czZD0u2/Y5Gwz6eBI9bEBYx8qLJA7K9SvrC/RN9SuPQMiFC2V5zJgA7RB9vpEhZzX0nCjv7j8u6j6aGqAscTzSGJD1eYHFxRtl3esnyXULeHFBPpaX0/xUuMdHE1fJsbyRLuvxmPsvD9CmfX6KGmUdY1MQjAEAAAAAgEZMOEYA1+P6vF9mnmekWvbvrDzPo+Z26wLjowPq31x1e4+5bn2gzFxwev6pjoHv1tfzrAEv9/lvtX9NxlkDPLavHS7Pn03l6zLz3H8oLCz8lblt0IBoxkBcoFpFDZcGQOzQr5RtTbFDv5TGgNg271OVbpnqVxbWS1nppziXGuirZZ0T/EpA/EG2n65IFMHzxACNLfBTgpvfSCDLOozzh+o/Oi+g1H0iVebdO1OuB8B33numBOjVNJl/tehjcK7sk9u7dareRp8ZfnpygXWcrOtE/2+JoH+CV+rlZX6KYRPDUKfXJPk2BB5HcxHEsonBrznkY+QxvJ2p9xUjAns2Mrjur6fJvOcWy3FxPzwuPibO5/KR6nkaJo6ne7LeTlMTjAEAAAAAgEaECOx/eS5GgBERVL6gBaBZTve75vLapopHB3YpMwdc7uXKGFye8eZ96oNMp7eHOp4fhJzKdj3PGgjNWHC5y8X2/9M+wyzrYwVfZjo9B8Rnasz/VpzXGRm5BT3N7YMGIAxjoDrV1BiAoHAFYwAAAAAAoBHBz5qLgHC7KWg8qxFgJNPluUsEmH/n/cT2FHN5bWN6dOAnNgjYKOAykS7n/Aznyt+Y96sP1BkMYlzuzw3P/tfzrAH3f8Rn96NyHnLc/R0uz1x1JgGfr/9kSuPgH2qaFRTlhaKecu4M2i3O7Zvi829m7gvUEzUwBljGmQJmmetCUG0JxgAAAAAAQCMjJ8d9uQgE/1cNCJPN5dWRnltwpaj/nbqfq64XtDM/OsBprcxwt/5vaWlbLjTuV1/wyv/KGFzebJlWn/2v51kDQkfVv1+JwP7/44UYHZVnDPwgztdWw7lUzqfY35nt9Kx2VDYOfhTHtTTT5bnD3B+oY2poDEBQQwjGAAAAAABAI8SR531VDQT/UZOFA7OzV8UaFhvcWZfBeHWPDhjrOPI876llG4z59YnD5VnEYxCBeDynG2rWgLrw4J+U85HnHcBlmU7vfPX8/FX9ywsUljry+PELd5GW55CmgCvL5Znu4Ncc6vn76/IzBlWgGgOXiCAMguwmGAMAAAAAAI0UDgjVIPDLswWBXCbq7FSDSz+bBOY6tcXZHh0wIsoK1Dpx5rL6Qr0Lz2N4UctrwFkDB9W/pbyoYHpBQYxDnd2R5XSnib8lajlluzz7spTFI917tTwhX1auXMxRHNcZsxED6oGQMeCHINsJxgAAAAAAQCOF1xMQgeAJNTAMZuXndzHXUdck0AyE7/hxAnOd2uJsjw4Y4enyDu0Oee7KW8zl9YXo/ySPIWOF92Ytr6FmDUi5lfGIoH8wl/HCkNrnlpmf3178jXMYFih08GMDqikgNFbd/lemy32vqRtQH8AYgGwsGAMAAAAAAI2ULVu2/Hemy7M4FCi6PLvNdXiBQS7jBQd54UFzeW1Qk0cHjLAZoNb7E5sE5vL6wOEobKGO9yferlTWYLMGvNoMgG+Xer3NVQNFmUnAjxZwXZ7tkeV0rw995k73PzPy8/uL7X9xOivP84G5fVBPwBiAbCwYAwAAAAAAjRARHN7Er6/TA0RF3xjfSmC44/wTv6LQuH9tUdNHB4w45J1vrl9gLqsveJaAOoaT5rKGnDWQ5fIGeFzaugds5ijn1en5t/g8e2e4Cp5V3mQgx/4PUf4a/+V0Vp4n3dQ0qE9gDEA21nkZA79q/YjQjAt+1WbDBRe2rvGCtwAAAAAAoI7IyFh3iQgQpznUO8RC32U4V74u/n6ppl1cTwSJj3IwKYNMz0hzO7WB+hx8hdovZTk9bp7FYK5nRtTdoOyT53nPXFZfiP5fVM6N07vVXMY01KyBTKdnh3o+f3A6na2VMqcnS+Z5fVn6rIz/S3O6e4s87e0U/3TkFt5ubhfUIzAGIBvrvIyBC9tOUI2BNUIeczEAAAAAAKhHRLD/WxEAFquBIAf8Di145DcTOLTX1uV5J4m/f5GBpneJuZ3ahNc1cGiBvgxsD/BsBnM9DXUhxL+pY+thLq8v+I68MmaXZ5G5jGnIWQMOp/uI+jnO4DKe3ZCpzxKQcrlPZjm9Hpn2aibRj+KcPmFuG9QTmjEw3A9BttN5GQMaikEAYwAAAAAAoEFQXjWY53EYAsNiEQA+bK7n0Kfoa1pXkzv4tUGmy9PPoa6iL/SvrDxe+8C7JifHfbmxXoZz5W/UOuXG/PrG4fJmK+NwuYeYyzQaatZAlvq2BF4XIk2cPzHGcu0z5RkDhtdOsv6dked51LDuwL/FtfGhuW1QD8AYgGwsGAMAAAAAABGMKeDm58yn8eME5nqM+gaC7Wrdw+ZF9eoanr1gMjA4kN1jrJPl8oxXylzu5cb8+sbhdH/O46juzQlMg84ayPPKdRtc3tCjGiHleTY7XNojBe5/sEmkLETp9C4J1XF55jbUwo5NlpAx4IMg2wnGAAAAAABABFLVFH3ja/Wqg+/Qi/pf5+R4OpnL6ovsPPdSYyBrfORBpPdwXpbT/Yp5v/pEjOEHeV7P/jhDA84a+NR4DoW+FdeAtp6AplPq338Kvcj783oSDn0dgtXivDcz9wHqCBgDkI0FYwAAAAAAIIJQ7/wOFUHdX9Xg7q8Ol3tYOI8EiGDwl+a8+oJXzndoax04PWschkUS1bck8IKIP6U7V3U071tf5OR4O6hj+ufZ3qCgvNIwzztArVvfswaMBkCFIz//0szcVTdm6efzz07n2lbib4E2Pu0RAn4DhUj/n8z3ftGQ57pJAWMAsrFgDAAAAAAARAhykblKryDcwDMHzPXsirqw4FE5dnc+51XzWsWvzPvWJ5ku9708DhFkH+c0GwBinLdm5XpnZspHDHhWg3UKfz3PGnDkeb5x8GKT+fmXamVZLu9LItjXZgSksWHkcBlmaOS5J3C9TJfnDpE+reZXsGGj9wDqhCZqDFwWL2XMazfGR+3HWutCDScYAwAAAAAANofXDBCB3HSH+npBoe94bQFzPbujHgOP/yQvmKjlm2dBiCB1jnG/+kb0/5Y6zj9z0BwKqquWKPcW8rGJ/V43t1UXqLMGDrMhsHDVKssPeYd81aIyc4DXnOC80NoNTvkmCl5fIMO58gqH/hrLvzhcBX3NbYFaJEKMgTczfPTYPGv+uWr5Jh/tO+yjrkl63pBcH43Jt9Y1q0eyjyattOZDta/zMgZ+2fa5C37ZJu2CX7U5LFQqt9sONlcDAAAAAADniMPlfsRhegWhMaiOFMRx3O+QU+B/4mMylzPaugmZee6nzGX1CQfT2vk2qMKR51FfE+g5wjMI6nvxRiM/9zgIr9Ggnm++ZkZynhj3ew7VXMpyetw8g0O005LPuXqM/MaCoea2QC1RQ2Og5bBj1cpctya6PKHqu/PRI33UTQTrsaMq5yd5fNR/ubV+h7GVg/uaio2BT3b7aIIhwK/KGOicYJ1ZcMMkH63aaW0zakTVY4fOXedlDPxP7M0XXNj61cpq+4C5GgAAAAAACJOMgoI2oVfmSQVFQP2QuV4kkOZ2R4nxl6lB9TxzuZlw1kuoC8R5H6HMbsjzvmk0AETeXfKz8AbM+9iRrDzPB6HrJ8/7Dudl5rl/7witL+DZnl5QECMfN/CkGq61jMLCwl+Z2wPnScgYKKpWLYd9Tbuv7l2tuNy8T1W6ebIIxnf5aPaaInJsLaLPDvqo3zIOAGV53/lFtHm/DNq3fu6jl5bIsntnynwO5Jdv9tHLS4uo1cgimlHoI68I0Lkt/ts9uXJ/g3J8dNtU6zhY3Ae3s/2Aj66dIPOG5BbRmHy53WEcj9FHBZ/Jtpds9FHr0fq+ew7LsSzaIMf45AIfrdsr8/jvK2nWPqHwdV7GAAAAAAAAqH1EAPqaCM6+V4O0f4n0lKqmjEcKBoPjWCQfB8/UUI/jP06n8yJzuR0RY03Qxpzl8j7PeVl53rsd8jEJke8uSs8tuFKp6/L8ka83tf6uNOcn7Sq3Bs6LMIyBmI+PKNuaOB2uMXDwqI9umaKn2QDg7TZjimjXFz66VS27arwMvrslyXSSp4j6L9fb+jBHTudvFifTLy8rojlrdZOBlezxKaaCeRwsDu4fTy2idx3SqOA8ozGQIPpLWSm3m4s+5q3z0cd5sv0bJhWpMwZkeZeEIuU4+C+nO4yVRkbXRGu/UM3En+vvZ+yk56Zvp2W5K5PFvxPjqtLPvaEFAAAAAADUEuKHV7csp3uTGphx0PY5rzRvrhdJqCvg8/H805G78hZzeaQhjuNbPp7M3IJe5jK7wms2qJ/BP8Q19jDnZeQWXM0zH9T873nBRaVunvc+kf5OzS/nxSErNQbOHc0YGFZUrVoOlcYA/61JfnW6eZKPCvf4QunmIgD84qiPokQQeJ8I4Ffu0stYaSJ4f2aRzEtyF1F/vguvluVt99G01UX0QZbU6BWqyVBFv1VJMQbmF1HMiCLatE8aEiFjQJTzzIa7p+vt9Z1XRNlbZfqGiaoxoJY9t7hIOS5tLKzC3bJ9c79QzfX+/C3abKFqlZXnyTFf0gAAAAAAoBaRU7m9I8SPr7+pP8J+dLjcQ3iBOHPdSIIXxxPH8if1mMaayyMREVh/qvxIVu++RwLx8fG/4LUp1M/hr/xGAs4X11drkd6h5v8jy+nuz/nqWg/q2yM8f42kY7U19WwMeHZUDt55BkErEZw/OLuIVnxauWzB+iJ6gR8nGGY1Brw75B38ZxfqejrV2md10owB3uZHCpZtqmwMrBOB/u08e0Gt/5AYn0sdn9kY6LfUR7nbiyqNhXUlzxioom+oZrom4bDFCKhC/+JH3MyXNQAAAAAAqAUyVnhuy3R6Dhl+fK3l1eLN9SINIvovcSwb1WPaFekmh0ZWnmcxH1NmnjveXGZnFPPJ6Vmtfh5/yl7hvZ7zlVdIGtay4LcX8Ge31Ott7nB6Vxmuy2TON7cLwsAmxsAV8UXKowOdxsr82JHy+f+bJsn0uHwfvZOh7zfBq07tr6IfTZ3jZTvmfJbRGGgZV6SsX8DBvWYM8OMFf3To7Y9w+Wi8V6Z7TihS1hHQyvi4eNZBdX1B566EpWvNRoBF4t+9MebLGgAAAAAAnAdK4OXyzHKoq8RnOr1n+B305nqRisPlHqT+mPyRH5Ewl0cq4lg+Uo8r11xmd3hdBDHu7er4T+XmurtqZQ59LQKWk+vyTAOxnaLnu7mgmbFNEAZhGAMxQ44o25pih6hrDNSCMcDbQ0Wg7/5MTsnn2QPKKwHVeo/O89FGEYyzIfBEqo+6Jsjp+1NWy/q8HgCXGdte8Vn1swiMxgDrKVHv0Jf8VgKZ7pXiU9YJGOXyKWsV8PaVvN6BKONHH9bu4bUJfJTokXljVhQpxzYo20dxTvmoA5sd5n6h8HTPhF0WI8Ail+f0woUL/8d8aQMAAAAAgHMgO8/zuENbpV/5seVeLgKuVuZ6kUr2ipXXOtSV77Oc7rfM5ZFMVp7nUfm5eb8wl0UC6usJD6rHEMjMz2+vlTny3C9nOj1/V6/L3dnZ3racz4aVQ3/M5bDRUABhEIYxUJ1qagy0HiXNAWNen+lyrQEtfdsUOSXf+Hy/JjYD+kwrCgXo0SOK6JE5sj4vMqgZDJq4r0vVGQhm9Z5YRB0NZc2Gy7H04DcbqHm8LxsLT6b6qP2YyvvzWxH4UYM7phnaTJFjYcOBx2ruEwpfzYYcJvH9P1nJCKhCeLQIAAAAAOA84VXexQ8rp/YDS/wI8ztc7vvN9SIZEXj+UhzXAXmM3lXm8khHff6eP7+/8R11c3kkoLwK0+ku0gL9rKzV0VqZ+kpGZYFFoZKM3IKenM8LR4r0CTX/zw5XQV+9RVAjQsbA8bOq5dCvqpW5LgTVlvjaXJrjTdT+f6pe3l3mSxsAAAAAANQAfjab75wrAZX8cfVPoZRIeeVdOPBx8THyoxHaHefGhDq9Xrl7ziaBuTxSyMlxXy6OoUK9HncaXyPJMwJE3jG17H+zXCuf5HyeXaAtvuiQrz9MjFRzpEFQjYGLRRAGQXYTX5tDlnzSWXy3/6F+x6tVRp7ncfPlDQAAAAAAzgK/+9mhP9fN2qMt/NbYyHYW9HGoayZowWRjhB8jUI4xz/OouSySEMdwjUN/NeFa47PDPItA5G1Wy37iRQnZBJBv0FDWxtCu57WN6TGYOgXGAGRj8bXJ16j4dy3d8P2uUlnSPHjRfIkDAAAAAAATPKVe/HAa69DvvvwgfnB90FjvsKqr2AeUY3W5l5rLGxPiGHP5OHkhQnNZpJHldN8qjuUv6jWaa7w+2QQQ5dMMAcG69IKCGC7joMDBr9WU+cU5K7w36K2CKoExANlYmjHAZnaWyzuuKjlc3hni3/lS7d8E5TWojsIW5ksdAAAAAABcwIu4ee8UP5q+0gMq76oM56rLzPUaE2wGqMcbZJPAXN6Y4FcV8rHyqwvNZZGICAQeDC066PKkmstF/nMO3TwoycxddaOaf51hrYK/ZTnd/U27AiMwBiAbSzMGzJetGX71LL+2UHzn/6V+94v5/zxzPQAAAACAJouy4rsIrMQPpZ/UH0ynxA+oP5jrNTb4sQH1eP/NjxOYyxsbvCo3Hy8/b28ui1TE8TzDn5/6OSaby/lNE1lOz3G1/P9EIDCA89W3HHjVfHLkeRbwbBnz/uAC3RgYehyCbKeaGgMaGSs8t4VmiYl/O3jNEZ5lZK4HAAAAANCkyMxz/96hr9r+k8PlWZTmdkeZ6zU2eIFBcbyn1eNOMZc3RjJzC3qpx/utuSySEcH+m1qAn5XnGWwpdxS2cDjdHq1OptO7sLCw8Fe8uKZIj+LgQC3b09hnyJwTIWPgGATZTuEaA4zyCJnLvVz7N0FodyQvygoAAAAAcM448vMvdRjvmDo9X/Mr38z1GiuZTs9K9bgPNpU7xfw2CXG8/+Hjzs5eFWsuj2TEMcWpn+dPjjzvq+ZyNgEy8zwjHQYTICfH00nZ1+V+yKEvZvinxrwA5TkBYwCysc7FGNDgmXEO/a07P+CxIgAAAAA0GZTX1rncA/lHkPpjiBcZTGgqwTFjuMP8fzzV3FzemNGm0DZGE0gc0xT1c/1XptP7hLmc4XUJRPm3yjlwes9wmvN5poDI26Xuz2sWzGpK34mzAmMAsrHOxxhg+Lsv/h3Yqn/3vXlNYdYcAAAAAJowDmXRNc9u7QcQP2uekVtwtbleY0Z9172yIF1jWJ0/XBxOb6Hy+ed53zSXRTrKowH6YpJ/y3YW3GOuw6gmwH613n/YUOBXHiqvNHR6JjtCa224PxfXSDfz/k0OGAOQjXW+xgAjDXPvCPG9/6f670JZdf9+AAAAAABELGlpWy505LknGH70/FkEQ29zIGWu25jhVanFse9Qz8Hmpnb8jPYaP/5rLmsMqJ9xgfoZ/6/2JgIzyndCLripmmSeA9krVl3FZQ6X+xGeTRBqI8/9gnn/JgWMAcjGqg1jQMORu/IWwxtL+LGjFDYNzfUAAAAAACKODOfK34gfNz4tABJyZebntzfXawo45EJzijGiPV/e1NAfo/AWmssaC7ywYJbTvUn9rE+n5xZcaa6jkeXy/o6vB7Xuj2yYcX5OjreDSG/Rvjf8iseFq1bVSvARcajGAATZVbVlDDBOp7NZptO7JPTdd3r2ne3fEAAAAAAAWyN+3LQSP2rStB83QmXVPXfdFOA7xw65ngI58twvm8ubCry2gHo9BM1ljQledZx/0KvHWsKLbZrraGTl53d26DNJOBBwpxcUxKjvPY936AsWHhG6xrx/owczBiAbq7aNAQ31jT3fq9/9Hxvj41cAAAAAaORw4GuYCv1vR55nNgdK5npNBWXauNPzlXI+XN48c3lTgt9GoF4X/+G3FJjLGxPqsX6tHu9XHOyb62jw+gJZLs94gwlwIivP8wCXZbrc93Jazf9rkwsQQsbA1xBkO9WVMcCwoWiYfcQqYNPdXA8AAAAAwFZkOFdeIX64rNN+xGQ6PYcyVnhuM9draogfdjO1YA8/6pRHKuSq/LkFvcxljQ1+ZEQca6n6+e/hacLmOkbUGRXFav3QwoRiv9YivUb7bjmcbg/nmfdvlMAYgGysujQGGF6YMNPpHerQ1+ip0ExDAAAAAABbwXc71R8uf1V/uPxNKI7zzXWbGvwDjgM8oZ/E9m/N5U0RfhsFXydZLu/z5rLGiDjeHoYZNBt4DQJzHSMOR2ELh8u9XDMB5MKEK6/lxSr5TRYi/Xe17BuRfsy8f6NDMwY+/hqCbKe6NgY01MfRjqnf/f848rxT8UpTAAAAANgGuYqy56AWxAht5Ffymes1Rfhd1OJ8lCvnxeWZay5vqvBCekrAm+eON5c1VrKc7pvEMf/Ax53l9Kzg9QPMdcyoCxN+p36v/iHS43j2gNi+jmfjhL5zLk9qRsa6S8z7NxpgDPz/7H0HeFTF+n7u/f8uYBeFgIhSpHixIajXcvVar90r6rVX7L2ggCC9SVMsICAYyM4m2d0kew4BLKDYu6IinSRUe6/XAvOfd2ZOzslsEjab7fu9z/M+ye7MKTvnmzkz33yFmMZMlmIAQABSX9Ce4XnfLs21lL8EAoFAIBDSDDCJZgH7Yeb6RH/lC1lXmvVyGaJN/LptVuVsRPk6gF1v3S4lZlk2wx+wTxC/+Vf8dihHzPK6gAwevqA1z7MQWAb3HOwUYseQKWsUjhRn/mD4CPP4rAApBohpzGQqBhz4Q/P+w7RLFoOlXsi6xaxDIBAIBAKBkHCwUPlZzPWbBgsRaM2sl8sQbXKRbps/YFVhlucyxKL4DNU29gdmWbbDFwify1xl2jizvD4goCdzI5T/6QtZD8FKQCsbnL74B6wKss6Fp0YxsIJITDumQjEAQGnIPDF9xHhakTNxRwgEAoFAIKQWBcEFbRFV3zMRqfQF7VPMermOucGKvZ1FHBZqZnmuw19W1lnL0C8IrGWWZztYwO4rfvs2KR8B616zvD6g/yGVodv/rCrEsBCLgd2Ya50Cvin6ZRfz+IwFKQaIacxUKQYAxB0RY8Ddnrgjn4q+f5pZj0AgEAgEAiEuwOQDKdLEpONbPfn4wxeyHsz2dHOxQLaVu4vzVtbt3sYBUAYwFaCSQ0lglucCoBDQMrJN9KVrzPKG4AuEL2GuGTGUC0/5/fNbMmWl8o3+/keYF0MezeMzDqQYIKYxU6kYcFBUah8s+vzHzpiCTDhIk2vWIxAIBAKBQIgZRaUV+4uJxsvOIkTwrVxIMxcrfEH7Nt1OP88tKe9mlhMU4EagF7VnmGW5AijXtKz8CRcDs7whzC0v39ObuYBhpzAQPh95z8X/iz3fL8l45QspBohpzHRQDABQBLCA9SjT1kiCHwkeZNYjEAgEAoFAaBQQ3AxR48XE4jc9yfhBLOLuyEXT72iBtHTMSdlIwaAahGijErQTAhGaZbkEJ0OD4K+IF2CWbw+FwXknimPX6nMIhq3icLgjC4VvF59/0t//lLK+u1N+m7wWbY/Pa96qu1kUNVKoGNjlvhX8/OmrIr7PFLa6fwX/z7T67/+UKSt5+yEIohdZZrL7yJX8mEnR1QVx3T0GRF+/IR47eRXf64EVvOWAFfzUR+v/PalguigGHIi+f7ro858544oYY+806xAIBAKBQCBEBV/IOlZMKFY6iw1ERS8utvYx6xFcwGVALMre1m32TFaYcCcQWukUdXT+bAXSFiJ9oZab75HW0KyzPcidwqA1WvB3fZ6fRfsOKSoqrWXtIxYIryQ19kDz/OcFtwr+kNe89SyzOGpoxcAOWIQlmXsMXMHf/3htxPfJ4Kjwat5j9MqI7xvDzsNX8Jfeq//+pz6zhvd+sO5rXDxzFb9wxqqazxdMX8UfWrA6ol59xHU7DK373I1hx2Ereekra/hO/dXnJxfVf88mb/ev5g/a279nXKMxv60W00wxABSWl+cjGKHT9wWfRowSsx6BQCAQCARCnSgIh3dnIWsmc00RPxG8wKxHiIRopxG6zb4qLrbbmeWE2vCH7IudxapZlmtYuHBhc6bN/0V7fAHLE7NONEA+c3GOFzyLgbXFQftM7Bgyx5IlaP0CK42kWA80a9sjL6/djnnN82fGqhhAms+p/vnnXffYEn7Noy/yHfqtSAp3vW8F30ks+vYYoBUDRnnL/isjvouGrQZGflcfsRg+YnzkdRpzbakYeFfdP36T3OGuo55JXOOe4tX8TrGwdr674IlV/KH56vPuAyKPAdFmuA7+x3U7DKl9r425d4cDA6v5NU+tqvl82qOr+CML10TUq4u3M60YML4373//kSv4oneiO2cE01Ax4IAFrFvR552xpShgnW3WIRAIBAKBQKgFXyB8oZg8fKoXD9vEhGI6op2b9QiRQF55hrSE2AEP2f81ywmRQJwKLWtfmmW5CNHXdvZYnGxoioUOU0EIN+lzcbgXFAXnnQgljPud9Trih5jHJgSNVAwgNgcLhe/yB8PPifv81bnnqx6BYmB5g2w+wMf/NvRq/v+Gn8H/b8g18rNZZ3u8p3iVXNRar67hdxet0ooBVTbaWs0XvLmGl4tF+0Lx9x9y4b5cLIDVQn7X+9zz9BWL2Tv8WNAu570fXCGPQ51n317Dh5ZisRp5bYdXzlrF3/hgLQ++vIYXPL+a/3PSSt5p6AruW7Kaz39jDX/hnbXyPs3jTHYevpy//N5aPqJ8FbdeWyN/1yVPqnsGpz6zWt4b/sdv61eyile8voY/L86P+3z2LXX9m+aukoqBmc+t5tOfXc2feXMtf+Fd9/eDl89aWdNu+H24LtoFZXeKdnDa7Tlx3tMeVcftPmC5/G6vB9x7PuvxlXx02G0fXGe/4W75bv2Xy7Zpdb/6fO7Ulfy/09378PJ2tkorBpbzS2auku2A34P7x30cMFrd3xOiHd75aK0sA3e8N/Jc9TKNFQOA6Ds9BJfW9P2ANZUCBxMIBAKBQIhAYbBiXzFZmO9ZMKxgAfsYsx6hbmBH0x+0Vsu2C9k+s5xQNzAxFW22Fe1WVFTRyizPRciAguh/uh/is1knWkhFQ8Aez9wYIfg7wRe07xN/f9Df/eoPWAPgzmAeH1dEoRgoLCk/UNzbNBYMr/eMRbV42vjXIxdlXt5fyHcdfQHvW34vH/zccP7fogd48+EX8+YDo1cOHP/QCrlobDtIfR4QqK0Y6DhULSTBk6as5GWvugvYWYtWy0Ut/t9JLCxxnl7j1OfJFav5RTPcxWsbff6GqCwG3OvNFOd3lAE4HoqJ0/UCuz5CMfDh8rX8Uq0M6DJ8BX996VrebYQ6b+ClNfzoic7ieI1UPLSEyX4/pSBRFgPqXFAMYEH+95GqHMoL3BP+33/kcv7a0jXyek4ZrusoBrztduAYZU2wk1aiwGXi+jnu75j7whp+5mPqc1dxv68uxU5+7d9V8tJqfvxkVec23yrerx4liVcxcN2cVfzF99bU3BOUNuPnufevLAYiz7FdprliAEDMIDEeTGJ6zMX44g+Ge5r1CAQCgUAg5CCwGMCuHENas6CMI4A8yEMxgTDrEuqHWszIidZGsrBoHFjQrpSyF7KONctyFTqrwAYlU+G3scA36zQGOiDm087iGubEot/fz9yUmvI6Cc00EoViQCxSJrv3Uzd7j3gnclHm4a6jL+V9y+7lo18YXcOLigfx/xt6dUTd+ghFgHeRiZ1qr2IAC2osKMdYykR9qShzdpfPEItZ+L/j/xMfXil3+53jcAwWs1hc7zMk8rp10asYgCUC7mPfoW45duFHhuteEDvEQh3H7ezZAX94weoaRYGpGMCuulOvLsUAdtadz1jgw3oB/0MRMKnCLdtF36+zCG8vfjOsDtBu4NsfruWdhqmyQ8ep86Ade4xaIS0EcDzKYJHgXMNLWC3gfszvTZqKgbG2e8xxk1dKRQj+z3bFgAN/wDpZ9KXNuk/9JsaCfhQPh0AgEAiEHEZxqX2oP2i945l0vxSrX3MuQ7TZaUzFY9iK6PBmOaFhsKC9UMpfwL7eLMtloC/KBbzqm4sRg8Cs01hoWXWsEUCkMpsg+I3+/AfSJybExDgKxYC4vu25tzp587QXIhdlHjYbcQZ/4LkRtRQD+Px/w8+MqFsfh5et5jcXuovHtoNdxQCsCLDjfPGMVdL8Hjvn2BV3Ft34i8Uldrkfe3p1rUU2LAiwC46FKc5xX0nDrgSgVzHQaqDa+XfM50Hssk/wLMbrIhQD2OX3fgeXgWsL1L2ZigFnpx6sSzGgYgyoz1jEw2oB/984J1JJgetCMYB2efrNtbIOFvqOe4NjtQAWv7hGuksMCrpWEWDPsSukyb/3vOBTi13rjIZoKgaGlLrnxu/2L1HnzhXFACD6+B6iP5V7+tbiucGKvc16BAKBQCAQshgwexeT/4lYBOgJwTfi83VmPcL2oc2+t8h2DNgPm+WE7cPZJcZfsyzXgewEom2+V+1jlcbD3F9mzlDByL5yFgW+oP0iC7nWA76gtQ67iuaxTUIUigFc17NQqZPXPrYkclHm4Z5jL+C3zhtYSzGAzy2GXxpRtz5eOXsVf/xpd/ELdwFHMYCFJBbrTtmxYiHrVQyAzkIU5u9YzJvnB7FYxjm358eORfsxk9zFM3z+4ergfH50YW0lRl10XAkc839cEzEAYNHgXKM+xQAsEu4tjk4xgLSH3rbpMVopTfBbERsB7gtOGRQnH3xcWzGAGAFQprz8/tpa8QT2FG349kdra9wbHEJZgGvgf7hVOK4fJqNVDMDFAgob8/iomGGKAQd49zNtMSj4tT9kn2fWIRAIBAKBkIUQk/1Txcu/qmYBELCKi4rsNmY9QnQQbRjUbbkc6eLMcsL2AUsB1Yb2QrOMgD5rn8B08L14pnX0++e3FIuCh5gbfwB+xy+IayhFl7re3KbEOJBotuf+eS3aHp/XvHVFXvM2C+T/+M4AMiT4g2HH97le3jrthQYX0x3GD+KHT7+qlmLgoEev5y0GT4yoWx+xI4/YAAied/VTK/mc59fUKAby71e+8dhF71uggtiZigGY+qP+iLLaO/nYTb/LrwL4YaGKHW/z2iYfEItYmLpjcYtF8HlPrJTBAK+YpYLo4X9YNJjHeelYDMwW17ts1krpRoDFsOPf35Bi4ISHV/LFb6sghwgW2JBiAG0AVwmUIwghfp9jMYBrwR0AbQqXA7Qp4hF4FQMIQvjK+2tlcEPzN+BcXoUIjoMFgiMLsDIwrRUcRqsYcKw9RpWr9m5IziKYoYoBwF9a0dUT9BSKwllNdV8iEAgEAoGQplD5jC2/Z4JdzULh0816hOjBAuHLdVv+BrcMs5wQHRBbQLdjlVlGUPAFwueK9vlTTtpD1oNmeVNQGJzXyRewGNMByRBnRFzjfed6gl+Jz9eYx0WN5vkTBasNRliH+MrKennGp3p5+7TnxULs4/p531t8h5Hn8ROfupXfu3A4P2xaP/63YRfwFvjerNsA2w7+WCz8V0rFQDux8D5fRrxXZZ2Hq7IrxeK3zaCPxWJ5pVhEusdiEQwf+Z5jsWh0v+8+ElHxV4pF50reRxyze//I65rcWZz3mIlIEwjze/Vdr3Er+C2+VfwKcf186VYQeZyXew78mJ8zFRkNlvMb5q6UyoE9BrjlJ09ZwfeWGQE+5sdNRnrD2sf3GL1cKiSOnLBCLMiXy/txyqBEOeMx9zOuBaUAXBygIMF1W/ZX50abXjV7Jb9WtF37IR/zsx5H6sba14Ji4fRH3fM5PFNcQwUJVJ9hyaCCFarPvR9ELILI48CDxyznR01Q94DfctiDbpvhd580xT0O96gUIO65o2IGKwYAWBL5Q9YYT79f6w+GjzDrEQgEAoFAyGCwgN1XvOS/1i/7P2CyXVj47E5mPUL0QBo50Zbfok3FomqQWU6IHshGoGVza0J827MEWJwzFcsCO/n3muVNBaKT69SAziL8J5+buhR8WbCHeVy8IM5d4rlWvdx/2HuRizKDLfov5v835Cb+/4afJv/is1knUWz/gPL7hyWBWUasn1iQ/2eqSueoLBlql0PxMu2Z1bJ9oVBBgEdYGJj1UsYMVww40IpaJyvI74KD4+HCRCAQCAQCIYVQ5oHWEndSHX7PV1LRy6xHaBwQvVksoJ7X7foaTZqaDtGOX6I9ExoVPwsAhYCWu21N2sVvACpiefg9Z9zwBe2fmetu8DsLhMfGW4EzY8aMv4nfg4woEYoALx9n8yMXZGnGQcFVfJy1incaFt2iFVH9oUQwea8MvhdZvz5ePEMpI0xi99usm468ce5K/tD8VXJ33yzLCGaJYgBAZh3msTAUY8Ar/rKyDmY9AoFAIBAIaQ5Msv0h+wGm/ZKZ3Pmz76EFbHyg0zuiXX8sKQnvZ5YTGg+mdqO5kNuLzTJCbcCVQMvfn3AxMMvjBXHu88U1PnYWB36VytRZpFeJMeVM85hYwQL2TZ5z18tzJr0auSAjEtOBWaQYcCDG48tEv/tO97/v8NmsQyAQCAQCIU0hFg1HM89kHgHdiovDHc16hNgg2rQHcwLBBcM3mOWE2ICgemhTsRgdbpYRIuG0F2TRFwofb5bHCzIgoFwchNd4FuiOD7Jg2Grq+DLbtncR45SjxGyIf+7c7yOxAMMijEhMN2afYgCApQAsBjz90A+LArMegUAgEAiENAFe1OLlPY3pAGKCn9Hua3wBSwyPifV8s5wQO2DRotu1xCwjRALWP0IWy3SbfY+0hmadeEIGJguGr2Wu7zEsCGS8A0G4GsAPuZl53PaATB6+kPWhc86GWBi03sHiK3JBRiSmA7NTMQCo8cYazFTMAfTH9YhFYNYjEAgEAoGQYmiTXyfF2DbsJiIVmVmP0DToiM3wt/yiILigrVlOiB1CZs9Q8mt/YJYR6sbChQubizZb7Mjk3JLybmadeAOLf7EguJEhq4mxcPcH7bWIT2AeUx/kYiNgvWqepy76AtbWR3z2aaQYIKYvs1cx4ABZCkR/XKv7JSyHRkNpaNYjEAgEAoGQZLCysvbixWx7JtCr/AH7OLMeoekoCpYfpSdCaOc+ZjmhafCXlXXWbfsLzNfNckLdQK5xT/7x9RgTzDqJgIxjEgxf6wta6zzjj2IobBUGK/Y1j/GCc/5Xb4DD7dEfsOZi0aUUA0RiejLbFQMAxhxf0J7l9s/w2+JzF7MegUAgEAiEJAALJzH5vl28lH/QL2dEDB8RiykvYftQiy+9SxIKzzHLCU2HlOmg9YtcBJaVdTbLCfVDp3tcqceCFXPLy/c06yQK2C1kAfuqmv7hMGD9Xhiwx8OqwVsfrgNFauxy0qfq+vZGFrIf9ofsYXVRLDy65w3n/2cuxIjEdCJk1Cvv2QzRL88Tffcr3Yd/hKLQrEMgEAgEAiGBKCq1DxYv4TedCTWCAhWWlP/drEeIH0Qbz9DtXc3Ywl3NckJ8ADcCtDPcCswyQsMoLrb2EW23QcvpW1BmmXUSCbgF+ALhS3wBa3WtBX/Q+r44UH496hQGwv1ZwP7JW+5DTJSQfX+0GVNa3LPsfzv0W/a7uSAjElPNFv2W/WbKa7ZjbrBib9GPF7l9Olwm+vIeZj0CgUAgEAhxhHjZ7iBevOOYG/znW/j6cs7/YtYlxA9Iyabbe2tRsPxfZjkhfhBtXCLbOhTuZ5YRtg/sqiPWgJbXRamyIFJ9xnYsGJwFgxMUtYb+oP1hY5WaO/Zb9nqLe5b9YC7KcpGt+n8Q8R2x8RQyFfFdDPwFsmnKay4AcxAEj/W56Uw3NybWCIFAIBAIhEYAL1nDlzfoKyvby6xHiC+0ifanaHNfyJpolhPiC6QqlAvGgPWkWUaIDoWl9mHMdTEKpTJeQ3HA7utZLNSieNZDzPpRYXj17i3uWfZri7uX/SgWY1vrWKDlBNsNXMofKlzA9x/6bkQZsXG8+KGX+K3Tnuf7D4mxLe/+6BfIJGTTFNdcgq+k/BDmpkre6g+GJ6dKOUkgEAgEQtZBL0wLPRPqDSxUfpZZj5AYeNLBfWT6ShPiD9HOF8lFY9B+xSwjRI/C4LwTRTv+KmU3ZM00yxON4uJwRxYsn8/cdIaIOWBYDNibWandN6aFg1iA7XD3sjekW4G5SMsBQinwGJsv2/HWqc9HlBMbxyumvFgjl2MKnubHjXmD79zvo4h6dbHFPR//D7KY60oBB7Bs9AfDj3n6+QdFpfMOMOsRCAQCgUBoBHwh60rmBvb5U7xspyTbbziXoQOqwQf6f9gJMcsJ8YfecYK8f2mWERoH0YZ9MG7I9gyEx5rliUBxsd2OhcKzvUoAMY6J/hNGjA4VWDIUYUHwFWIMQAlqno8QCZ2JZn1N+4rxqbC8PN+sR4geoh0nGDIJhdrn/pD9ALVtbNDpZz/T7fkLgiWbdQgEAoFAIGwHJSXh/ZjOTa65lJXMO9ysR0gc/GVlHUS7f4/2FxOcAWY5ITHQcTTkopIWik0HC9h9mbNrn8C4DQXBBW19IeshFgw78U+4WFThuuX+Mvs48fc79X3YguWNL2jfJxZeP3vGOKUwCFkzxf8HmecnKEAp4EcAVLfd5LON2S2DIMHqUgxoiraFTMNqr4d5HKFhQKnCgnaF2572wqIiu41Zj0AgEAgEggHkBcfOGdM7a4I/YwKNdGBmXULiAJ9s0e4vyklh0H4llT7auQgxeayUbR+yjjXLCI0HC4X76/Fkmz8YvtosbwpkRPKA9ag/ZBtWAHaleH5Hzy0p7yY+f47vRjz4yFstdu10eV6zNv/BsYhc7guGpzHHqqE2F4u+dw71PRfaUqCqjrYCt+D9YR5DiA6sAcWAhxPM4wjRgYWsW0T7OYrAz8kdkkAgEAiEBsBK5h0pXpgfeSYhzxYG53Uy6xESD3/Aulc/gx/oGSQf2FWS7R+wZYo7QtMh2nK8luk//KF5cmHeFMgYAiHrCTOwoF98hoUNlJne9InHHH/WF39p0ebnvOb5GwQ/8p5LlPcQ51ngPY9DBFxFtPNcT3+mlAJhqTCLYEhZDfhD9sXmcYTowEgxkHAg+4joz+877Sn69bQZFRU7mvUIBAKBQMhZMLZwVx2oR5pPI9WYmOBdZtYjJAdi8nJgzWInYPc1ywmJByJZy4WO+GuWEWKH9P1Xk/JffaHw8WZ5NBDjUxd9nhqXAYf+oBV2FGk6aKqTrnBFn4uu7ya+/kteizbXm4oBBwiY6F04GMEK4aM8W8hEb/O4XIBoi6lme9fBnEyVFw8wUgwkBbBqQXYfpuc7giuLS+1DzXoEAoFAIOQcfIHwueLFuMmZePgD1lO5vjOWSiA6OiIoq+cRtsxyQnIASwH1DOyFZhkhdgj5/n+iXcv1ePO9r6Sil1mnPoj6B/kCFhN///AslByu9AXtU2rqsoW7iu/e1WXrsdtdc6IGFAOAzIeugq5udM8fdlyrHL6FOgUFS1qYx2crdApKs90jiHrmsYTtg5FiIKnQWVOcuc9vcJkktyECgUAg5CSkX66bBk8wvMYfsE8w6xGSC7HYeFA/k88oEnXqgNgC+jlUmWWEpgGB//zB8PO6fT9HDACzjhdFwfJ/iXpIO2guksDvYObv9W3HYl18v8Q5v7+0oqv3fNtTDDiQ51HxVr6tuV7I+lwHgnOu/zUyteRKKjTR1h/W8Qw0dbsErKnmcYTtg5FiIOnw++e3FG0a8rTvC7WUiAQCgUAgZDOgEddBeHSEbmmOOzqXdr7SFWIB9E+mg6Ah6JlZTkgetBk6+sdWZCkwywlNw2zb3sUftN7RbVx7Rz9P7dozlerwTc+kfavftRbYCusmU3mGuAK+oDVP1/lWLNp7esslolQMOIAFlY6P4FoNBKwV4u8Wz72BryG9aDbLC2IIGL/Z4W/671rzWRKig2i7HkxlHnDasi6SYiAB8IWsa0Tb/qDb+Bsh5/816xAIBAKBkFWA77p46b3umWS8ju/MeoTkAwulmkj4QXuWWU5IPsSz+FI+j5LyQ8wyQtNhxABYPre8fE9tTXCt53sE/4Py0ptW8A1R5wjzfFqZgIUV6vwMRZtZR6KRigEHxcV2O9E3ZzA3tsFWPzKHhKxnPd+B3yKoWTamd1VZa6yvPL8VcR0cZQ0pBeIAKLvEwvQB0c6feNsZLApZM836hPhAp2j2KiIL8F426xEIBAKBkNGANYA/ZI1h7uT1O1gNkD9d+gDKAPVs7EqajKQHxPN4WS58KNJ6wlAYrNiX1fjy25thqu9MzH1qB08qZzTXNrSTh5SFut7v/oB1hllegxgVAw7gmuALWMXMDV72p/hcKq45ERkMPPcLLmOhcL9sypvuC4SHeH6fk+aRlAJxhlTCBK2LRJ+oWaz6g1a1WY8QP8DiSLTzCFaj7LIrka3JrEcgEAgEQkYCcQMQP8CdyIXLsPNl1iOkDnAbcCbZ9e5yEpIOsdB7Es9FLISGm2WE+KCo1D7YH7QR60Smu5OLn4D9mVxouovPL8Xi+nZvHAETeEa67lbx/yVmucSOrdrltWh7fF7z/EmClfL/v7WNeVcf1lZioVbqufc/xH3OKQzOu4KFbB/zuh5IpWzY8ofs82AVYZ4rk4AdbeYqBEgpkAT4S8r/47Q5KSoTD1/IOlq0dZXTr0WbD0PgVLMegUAgEAgZAekXG7QKPJO3TfHIHU6IL/Qk29klHWeWE1IHBLXTz6XELCPEDpj8FwWss0W7LvaMT3JRb3z+hQXCY8VYtpt5Di/8AesO5xh/MHyzWV6DZvnn5jVvvaQWm+XPMas1FnA1waLfc99YwPn9wYojdHYLr/sW+A0LWTP9Afs481yZgqJgGDEW8Fu+JaVAciDaerBu808LwuHdzXJCfKEzmziuSeDrTipUAoFAIBAyBv6QfZlY1HyhX2ZbxWT5MTJPT0+I52Pr57QUqQrNckLqAHN09WzsD8wyQuMhlZWhcD/D3B476Qv9QWsR81gNiDqro1lw6rSCjkJhsFmeTCD1oifwIbhNWmiV2oeK8bi7+DyO1UqBKLlecHSmZTXwhezX5P2Hwv3NMkJioFLZyqCXiEMzzSwnJAYM7hxuZpLvEWDUrEMgEAgEQtoB2mzx4kIgLGdy/WFhqfUPsx4hPSAmGH31s/qVgkCmH/xlZZ318/mF4nHEDgThY8p66VdnbBL8moXsmWKMKmeuWToW+IjroD4HwmPNc3mhXXCUL3DAnmSWpwrKgkCmQPNaQMyHhQCsJXyh8PE6poiTGcbhx/DfF2VdzHOmG5g2s0ZaT7OMkDjo1J1QoG2ld3vygFgoPgQadfpqyA6Q1QaBQCAQ0hIyYE4o3J+5kbvh2zoQ35t1CekBrcRR6ZFC4X5mOSH1kKk9tZ84lARmOaF+IOApUoB5UhI6fLcIJtGhMHzwnWj2WOiEnF1zcdx1+jvsjN5jnhtQsVOUogFpC7HgNuukGoUl5X9nyhTZ+Z0gAsn1gWypoLD2f0UbhX1B63+eOoLh98TvGpCOcod0jEwrPZBZwiwnJBaQdy0nS+kdnzzo98FA5gZx3ggln1mPQCAQCISUQe/GLfVMKhcj7Y5Zj5A+wARDLHhe0c9rCe1Gpy/gRoDn1GCUe0INsFsO1yUGP3p3TPpVtN9cvzT7DyPQoHcn3a4rHSQWxbp8mzjf1d6ywlL7MFaTczxcFp+gYO12zNsh/6i8Fq2vEn+PMUubAml5ErCmoh2c3+0PWqvF77rBCUQo/ZkD9lVC3hay2qkP5QIQlgRQNJjnjjuatT1AZm1olj8sr3nr08xiQNx3T31fX5plhKjwFyFjR+c1b3OnbOe/5UfIf0PQaT5VKtV6FGeExEHIf2/R9qt0H9gq+u34hgKjEggEAoGQcIjJ8M7iBTWFuWa4X8Hf1qxHSD94Fj3fiUVDB7OckD4Qz6hEPiuy6qgXelF7U6R1gF0pZP1eBD0VY9VznjIoBsoxwTbP5YUYzybq+n/AbQDf6V14J4XhorhF+G/R5p285vlbJJu1ecosjgfEmN2aBcKjxH1/5WmLz/0he2RBcEFbp97c8vI9tdUE4i6YSgIsSEYXBcuP8p47bmiW/6Zog2cFq/Kat55iFgOIiq/v5WWzjBANWu0i2nezoCX4fV6L/CvMGtuDxw3tx+Jiax+znJBYFBY+uxMLWNPdfhl+r6i0Yn+zHoFAIBAICQcLlZ8lXkYbPJPFQjLpzAxo/+Pf8NxIkZP+cNLgIXWhWZbrgH850vMx14UJcU1gEl9SGLBOLSqddz5TpvPOOPW7TOcX5c433ANE/dn62F9ZWRmCgG3Sn9/E5Nw8Jnbssav80zx/eqIUAw5w376gfaf4DdWetvkNVhUIVOiti4CNsJhgQbtCtoFbH/xUxioQ7wOY93uPazJatC6uTzHAVJ53jswKZhmhkWievyYWxYDsGyoeB+Sg3CwnJAc6zomjqPy5wawoBAKBQCDEE76ysr3EyyfoTAwR3VtMJk826xHSE9jdFM9tGZ4d8p+b5YT0A1MRqWGy+4pZlouAm5JWljg5vh0uE4v4uwqDwU46zaN30fsLC1iPIoCXeb7tAW4C8MGX5wmEHReEZVgwm3XjgiQoBhzI3xayzxO/51VvW2o3o4tM82RYiYnvL/UFLMZqu2rIRQlDgEOxMIlLSrWGFAMhO4BrinfP3WYZoZGIUTEAICYH00pmpP80ywnJgZ6XPeP2X2serIPMegQCgUAgxAXYHYA/KnNT5sC8dFzcd4kICQUip+vn9wlZeGQGtIUHnlnO+lPLNIMB+ybRBipFncsfsGuM6Oj+0oquWPyL7350J8j2FzCdb+okuby8PN9z3j8Li8r/adaJG5KoGPACbhV6wS8Xepqfws1gbrBib7O+VCoE7OOYSoG43Hgu4CpxzsniGZwS03uiIcVA0PpIXiMUPt0sIzQSTVAMAPr543lXz6io2NEsJyQHMtuIsgJyrHo+pf5BIBAIhLgDZreeQHXgm0Wl9sFmPUJ6A9GLmfKt3kaB7DIHuRqBHYsMpqwlyo2I+X+IzwvgZ15YWLiTcmuSZu4yiwCINKliUXptPPz/0f4141+gxt9+PSsra2/WjQtSpBhwoHcfhwpu8bY5ngMWGvUFKi0uDncU7XMrUzuXtVwO8Px0qrWhRcHyf5qWCHWiHsUAFBLO+XFNs5zQSDRRMaD7qZM68kGznJBcIO0wcxRnGBMD1qPIPmLWIxAIBAKhURATsGbaZNfZQfpBTAxvr29iSEhfiGe5G8NiRi1uppvlhPQGgujpiXdW52zHBFb8zj6+gFXMPHEDFMPvwVWgqMhugx1sphavGz11oDyxC4PzTjTPGyuwgNVR+nH+b3zF1rHMjQa+HEH6zGOajBQrBhzIFLRB6wLBJbWfg7XBH7IfKC6225nHOMBiUQZ8DFhPMmfcqc0f0a4IDOkrqehlHi9Rj2LAF7S76HP8TO+iOKCJigFAPJMz9TP53Un5SUgdpMtgwH6YucrSj2kzh0AgEAgxQwb1ClorPRM5myIPZy4QVEw9x/Ca+AZMIyQDNYvTgH29WZbpkMoAFcy0kNWkAFREDBOGCPhisaFTbGIBYjO1g63r2F8ge0C8U6TK6ykFBa7zkxOFH3EKmKuQeCvu/SlNFANeyEwMaqHhzWbwByw1fIHw+VAim8d4gWcD2dXt+bnnHA6/QcwTMU7dAUUBlBL1KQbgy66eu/W+WUaIAXFQDAA6DSie5cswazfLCckHC4X/LZ7HJ7q//A8xOejZEAgEAiFqFITDu8Nnl7ma5i2Y+Jn1CJkDPD/9LP9kJfOONMsJ6Q/4auMZ4q9ZlolAekF/yL5MB5GriQmguR55uZ1UguLzQTptoNe0HXwB7gTbW5TGCjEOPqGv8xsm2N4ypAVjOhI40iDG5R52yD9GLIavEovhJWKx9rL8v0XrtLIQ0cFLL9VuAd5n8aVor0dEW/Q0j6kLMHeGPzSCpIljv/ee6/Z+D/A+F/X9PX+fA35q3b7Hlv0P/mdxm44HXuQcK467T9f1e89JaCSat7kzr1n+MMGvhLyVy///1rpWRorGAK41TPdl0V+vMcsJqQHcz2qCp+rxqiFrHwKBQCAQJMQC8kKGgDXqBbIVE2OYoJv1CJkD5CaXk3Y800B4lFlOyAxgt1X1S3uhWZYpgO+6DmD6LKsd4A7cgB1pZ1cecqszCyz11lPBBO1Jc0vKu5nnjyf8IWuMvuafgheY5QArmXc4cy0cgk02a2+W318pBTxs1maQWS1dgGCPup2c9I0Ol7GQfX+0GSDQbggeKY4bCAuEW+8e9NN5F1/Lvbx38CgOaydYPgkZel1fZ6h5LkIj4CoGXDZBMQDoPotn82VC3GwIMUOPvT/p5wPLnz5mHQKBQCAQ8vxlZR3ES2K+Z2K33BeyjjbrETIPCNKmn+m7UQX8IqQltGsPnmPzQ8t5AACAAElEQVSVWZaugMkqFvqIag/584wvNeMMygpL7cNQX2ce6IsdLVbLVUAGHgyJRcc5yZBh+L3ra28T7X6dWe4FC4VPcgIjivubYZbnArCwF212qmiDEmYEHRR8SbThjY1dJMIiA7vOaFPmBlKrRZ/MjBN+D3UEb4NyIe5uHYRGQcWlsD/A80F8CbOckFpAoeoPWu84fQjPiPoMgUAgECRkdOdQ+C7mmP8hcnQgPCQZk29C4qHTu2EC8At8hM1yQuYA5qD6WW6NKfVbkiAX90HrUqbiBShLFZdwT3pVTEYHIIBcTf2A3ZcpKwIn4r/DV7Go9PvntzSvkyggk4G+Tyz07zPL64I/ZJ/HlGUBrHLGmuW5BLiIYEEv2vF5pjNpaP6m3QYuikV+petJwDoVwXD9HqVRPUTqxBLxbusnnuFpsD4xz0dIHLCpoJ/9VtpgSD/IgKpinGLOmBUMr4H1k1mPQCAQCDmE4lL7UK/mGD6jiTbPJSQPMqe7NhtEQC+znJB5YHqh7SspP8QsSxUQOFDI18lIU8bqtgr4loXsIrFQvMJJtSiD94WsW7RlgKEMQOYBmKHP62ReK9HQsTj0ZNkaZ5Y3BEOhcI9ZnouAH7M2LTfl4kfxjH3ib5/GKglwTn2OP3zBYHecQ3C0VjqYMSi8/E7wLcECKHxgfSLY3Tw/IT7Q2Shk2lAZSJKQdvAH7OMYXLhU//jdF7AGYbPIrEcgEAiELIbOOTyBubsu32BSa9YjZC50nu839PNdRFGIswPiWb6MZ4qAe2ZZsiB3m0rmHcmkP7i1SPAXLWce2h/A9xzuD85EE+4ComwEM2IGgIguj0lpvLMKNAZikXiK4xIQazpPFgr3179pGwvYV5nluQy4BmiXEpnv3sOfEIASMh2NSTNcN/Rxq8wyAMonWAlg8S/qBJmyHvBaLphErAu4KoSg3IIftpIFu0uTY0bkMOA64kM8ENm/SVGWrkCwaU/mFfBluJaa9QgEAoGQhdB+oDUTM7wQCsvL8816hMwG3EH0M/4GkaLNckJmomYXLhAebpYlCrAIKAqW/0vLFBQBTvAqLzeKe3tK/L3UGU/kbnHIupIplwKZLsvDP2GhBF/+VCoDHGhFh/O7SpqyIGRK6Yrz/IFdabOcoNs7YE9i7m6lw19ZMGzBuqS+oLeiTW9DXURZN8vqA3aske5SunyE7PthwSItU+qWZZPr4RYhrjtL/D8Y9+YLhY+H3DbW2iHXAJcS3YY/0HsovQG5Zm52kO/EeH+JWYdAIBAIWQIxgWntC1jMM9mpZqHw6WY9QuZD78w65tmXmuWEzIU2y8ZzLTHL4oW5wYq9sYDyq/SIr9XsotfmlzJneci6xTHHFmPMzuL/M5GyjqldWvMYxDEJQlmAuALmdVMFpM0T9/W1vsen4xFfRYyts/X5fsUi0iwnuICSwKdSUa435AU7+U8j/oQ3cCELWFNleZxiOWB31B+wzpCxdoTsapeEjwV/Nu6nPn7DlLxDaVYgOELGxRB9CM9enL9zOsl7MgFLNeZYOQWtUrOckF4oLg53FM/qNUe25ZyRLdzVrEcgEAiEDIbW2jsT3z8w4Y/GZJOQecAOlnjGK/VLvdgsJ2Q25AJG9mP7A7MsFmDSB2sAcd67MXFnkWnnHG6Wu6wqmGUPHCujjwfsY8QCaBhTk38zcCDMt99k8P8WCyQhm83M66caWLQx15rhVbhZmXVigXblKdfn/d5XUtHLrEOIhHg3HSFkajyD4rq2LOG99byWv1fxHXY4zePjjaIiuw2yajAVTHOwthp4QXAVc9NUNoawkIDbwhLBQnG+aeg/gg/A9QT0B+wT0F8Q7wcLtUx/V2vFmxobaDMi7YGxS1uHOa6m1aIP/NOsRyAQCIQMA3wkmZrE6ElJ+D0xmept1iNkD8TzfUw/783JjOROSA70QhbP95fGmrvLrAbwzw6F+8Gnm6nFjblwAf+Az7+UpUD4csfUH0onGawKptgqtWldC6O1LGQ9gSB+9ZmCpwt8ZWV7saBdqe7b/gC+tmadpmDhwoXN5WI2KH2sv6DAro0DoqQjToU/aK2uQ864dEVIsXn6bNveBRYzWMzLhX3QGizk/3GmlEJLmFJwfBtx77ER56lmypphCVNZPArgwqOVC8OQ7aNGwaBdHhyiH0PRACbbBYLVuNfYlXBNMssJ6Qek/hTvgXVa9v4U74JRFESSQCAQMhAwhUUgL+bmk/4JiwGKNpvdEM/430xFRd+G4FlmOSHzAWUA08H+oCQwywG4DRUG550ofbHFIgW+/CwybaCX1XALEPXuw8Lf2TVX7kfhc7VLAXb+YdptHvslLFNEnWszKWAVTLvFvS/Tv2EtdobNOvEAFo6ibd/W11mf6oVspgKpVuUuZiD8QR0y+Lo3/WW6Agty0U96YpGOhbu43zultU3IeoIpFwQs9JfoxZjokyrDRRIIV4hqTUfpAC5m6r4UxcLQUUCwgHWro4CAEtBVQFhHO8oHb+wiWD0wHU8CASi97UJIX2D80rFjHFl5K937GYFAIBA80EG0nAkv+DRe0mY9QnZBL3RUqq6Q9YhZTsgeYHdbTrCD866AAgipKGGSLPgKc12G6mF4DUP0dURsD4X/7bUqEd/3EBP765hcCMh6dRwvXQoCuCbSnXrvK1OgFylOxo5NiR4fpaVG0Fqhr7fC6y9PaByw8NTtiMUs3FfMbAN4943AAtw8NhMBH/2ahTZ2cLH4DtqnuYtyaxAW6jpGQwGoI8wv0XyJuYt+0DEPTzY/E/wc//sCYTwzpI1ExogCce8Pyd+A+ClK0XChjM0QDB+B343FqdkuhORCPKcLmOpzeJY/iufU16xDIBAIhDQCfIW1CaMzUfqcosrmDrRpOJ77CjLVzA5gdxm+nWLSfBlDNHSVkWCRr24TfpOwEFgsJtdTxCTuephle32VdUq3c7ALKOo9w+o1d7Y/0MHeLk3sArpL87wWbTvKvwkE4hyINnnO00YyXkKiUVxs7cNqIvCH3xb3sbNZh7B9wDJFP7tn8BmWHlK+1W67adFSJd0NAvYx5nkIeXnY0XeUDr6S8kOcXX/EAXAUD1gA1rgpKOuGmcxRQKggjUtAf9B6h7nKh/rilDSVm7TCcomgzZQVw1jpGgWFgrh3xDMoCC5oa/5WQtOB95HjGqUYLsvVoJoEAoGQ1oC5r3pp6gE7FJ5NA3bqgEWAM+EC4Vvs9fX00jMBazRdH9LyMeq5W3+I7693zu3suJik2AOpBXzbkTpNPf/w5XLHPxAeLie6YjGvTYm3u7MnJuowNUagSVvuGIpnj0Bp5o40/IkZggQGrLuZ2qUz88g7ROq2F6AskLuSyYhGDWVA8/z3BX8X5Hk7tE5YkCu4UukAi/itP0BZYtZJJOCL7tN53QUXIwaBWSdn0KJ1sXjeq+Qzb55/s1lcH5hKccixy2yWIaaF7E/qGZsZBTYjZgYCbTY2NgchdiBuh/PegZLzhjsG9O/5j5O37tqqM547HzbmoSnaWgBBHQuYUlIuYcryo7qejCjRcrO2rnoaSlWp3AiGrxb/nwzXFLJEaDzQd5BilrlKuM2IW2PWIxAIBEIKgDzhMmVYzYswvAaLDbMeYfvAJMEx16wJJBWybpGTFnfRBjpBpWp8QT2T/UwlchdXe4hJ2RIPEWiuoIYBa6p3F8kb8Kq2wqLuwFdgsoNfxRvObht2qOROVXDeiTVtELQG6knoFPF/oW5D+O460e+j5Z+QMblLEwrPho+1bNuADXlEQLtXzPsCRNlByESi3Aus91n9SoaPZFq9gH0TTK9TEoNkl3at8prln5u3Q7t9xELhj0QqBrwpBPG8zPJkQLRzb1aTK1zuuCW/zdMBzVoPEM/7VMGPG6MYEPK8QLZdwL7eLPNCKsOCVh+m+t93htx/JvrGDCxoKJhaktG8VbcTTz2/4r7Bo6Vi4KDeJx9kVjGBxahULDjKVJi1B6TLwRCpKAqF5zBXmfCp8ay3R/TFFSxoL9TxWJAOtg8sKJKiGM1QwI1MtZtsw61QTMMay6xHIBAIhCQAfodignkzcyc8SAU0mkzIa0PmYxcTcfGyPxO+087OhD9ohZkyf0S060SZPTrERKXapYyCviQe9KugctIEXPyW7wTfZbUX+A7h38nTnN4AWKA3CFZthmwf8yoq4kDDL1fSMI91yONEyAVyn6vfE7Ie8cuUZeHLhaweC6sTU54dyEmrOseXMO9kagGEqN/IQFKfmwHiT5SLSXR/KL7ScrcsgYoB7YONdvjDH5r3H7M8mdCLGxkYFuORWZ5TUNYiUSsGmO6DjUmfhgWLNI9XiqGvjH7xFXaToSjKWSVNkoHn8diMOeugGBj54JQCszwewLsf4ySsA6SyWimwn4QCwBe0PmTbjcVSwy918NAS6bYgxufCUvswUhrk5SFILZTPTltBCQ1LDLNew9itZV6L1sfm7diqnVlCIBAIhCggBuAegq95XlyvY9fSrJftkKnGAvYxciEVCA+RO0DK7xBBjbQvb+OozRZhvohd1iVisciYWjiOVv6V4f7OrjBMrdVuuBuFOdkm+tK3Ut37D/VFqK8P2Cnz7uBjR9+7w19rB1xZAVxdy0oA7RG5wEYU6yUeYkeh2kNz5y7TiZ34ak30SSgToHQqgDxqmblLyMiVsk1FP4WVj/ksogViBMAUmgXLB/uVG4F5Pw6hHICSAMqCPpgkm+dKSyRIMaAztKBdtkGWzfJUAMoJ5lpyTDDLcwaNUAxgIcJ0DB3TXSZaYNyDpYB+X5gK08+kNVTAPg7Kd/NYQvxw39Bx50Mx8PDUWX+mKogprEr8pRVd8a5D7AqkxmQhu4ipDCwyUOJ2COXuYlgawB1M8NRczDrCQuVnedrrZ1hamnXqwF/F86+CDMhxv3n+jWYFAoFAIDQAmRM7ZI9krm/X90gZlK3+kvAXhXkzg1kfzPukmZ80I8Vi00nDGA2hJICywHYWa1jkOpGP1WIt3DHT2pHBXFz7X8IawizPBGCi71VOiOfTxXRBwKLaq6AwlBXXmsqKWMgQvMw4t3kf4rtjPG4QSYnfoWJT4PdbU7Wy6s865BvuBu/LnZuA3RdyYZ4nY5AAxYBok5ucthJtdKdZnkpgHGI6JR3ccczynEAjFAO+kope+ll+bpbFAoz5sn8rJYGZznOzkJ2HkeXHPI4QB+yU30YrBtDWb6bj+1eM8zsXldoHQ4kn47Oo4M5Qfm/PXQEK8FcR00KOP0bg12wEAj6K3/y02wZ2hWi/1mY9D/6S16Lt8Xl5e+wq5GApKQYIBAKhEcAOhjZ7l4Ou3JXMEs20jNatzDzv0vmcX2WR5p51cZs2y18k3QNCMmXTdXAbgPtAxuySxgBpGqtT1gnaZjkh8wDFn8xAIPOxy2jfTmookxsFQ8zx7yyJancmMxBnxYAYEy5mbpaWEWZ5OkAqPfV4lqkKviahEYoBv8rOAQXPi2ZZU6EtCf7tVznba2XoQJwPxJmBVZV5HCFGaMXA5MeflK5PQvYzamEIVwLpUhAIXy7uf5yO9QT3N7h1mmO2w5UIjCnk+AEoG5piPZaugOUEczduPsXczqwTAVIMEAgEQnSAabryi1O7SgyRlUP2eWa9dAfMMotKK/aX5rMwxw9ahdp/+8c6Xp5ewtTzDZj3wcwPE2eY/Ql2Mq+RS2ABe7zTPgiCZ5YT0h+wiIESSzzDceLvK6xuK5hfZJmKxN7HO5H0B8OTUQd/vefNaMRRMSCVjXqSjp07szydIE2Y1fP+UyxAzzfLsxqNUAyI9hmNdoJ1jFkWT6iYBNI8GoELzXfUG7DUQ7pP8zhCI6AVAwNHjB+m2/Xr7ewwZwQQp0L8loO0UhKuXAjc25CFwRa50ROy7xdyfQreC+Y5Mw0yIK+K44Dftw3xcxqMf0WKAQKBQNg+xIB6keeFshWToUx4aUgXAFg4IAWbTEEUfo/VvehxiMk7ogmHxMt0pDTxLyk/JNtN72IF2hbygLYrClhnm+WE9AR8opmMpi3dApxJk0n09xBM3mH10lDEdOn+II+xF5plGYs4KQZgecGcdHUh25cJ/uJCLqbjfuEehIBpZnnWolGKAZ2BJxS+3SxLFOCHLq55qYxaXzu7x+/asueiBhc9hLqhFQPNd9tnP6aC5uK5zjGrZQsw/qNfK5cEmUVhKavbNQxchfhGeA/AlSUT05rinqUrjruptQxuGWY9CVIMEAgEQv0oDFbsy5SW2XlJLEeAO7NeOkBbNJwK82c9aauu4yXnEDsv7+KFJ82lA+FzEcE2HX0L0xUwX6xp45A10ywnpA8Q9R+7jsi37nH7MLkSFkEy5kXQ7mKeoyEgc4E+R5VZlmH4CxYIEZT+p42HjksiTcGxcGtIuZJOwDjIQnbAGSvF7zjCrJNVaJ7/jGC14G95zfK/kv+3aH21Wc0Lpt1nUqU4gXWWMpWWUeq9/fhbuMFl/TOLB3Zq3VY999YbdV/f1GznvT95aOosKLu3QfFtHpKtgNIJczvlRomgh+E1hlw5xMbKyzIrAiyhMigjAuaHTKfplTGRxG+NUNSSYoBAIBAiARM0qSHWposYRBFtf8aMGX8z66YCeIlhJw4+sfCT0/795gtMUtT5gkG5IV5kcH1obMR8Qt3QOw3S5xWBkcxyQuogJ3lB+xQm/U1lVOuI3SBYCojFwxQoxZpqiozj9Xm34tpmeS4CEcaZjjQPP/RM28lVsUOsZ/RzRZyVHmadrAHSk7Vo27EWEYisHuA9yLRrSDrEjxHy1R0WbixSGb5cLIbuJRevevH/Ip67YEFRmbSYEfw4XeY8qUBBOLy7kK3TRDsMZsGw5YxnBrELv5QFrEeFDP4XGZrM86QT9LsKGaOc+3+m1j2TYoBAIBBqQ+Ulr7UL8RImHma9ZAI7mAisIyPrKncArxmll9WC5QioA9N2RKc1z0VoOuB7rNv7z6Jg+VFmOSH5UL6U9n3imSxidbjLyICh2EkUk7emKgLqAtOR1DF+mGW5BgRj1WMR2v7dTNpV8wIuVAx+7Op3bPKXlXUw6+QiYF2m2+R7syzV8AfsE5iKR6DcVxR/gwIdizyyits+sCBmehEMi0KzPJeBuZgvZF3DQuHZ3iDUXmKzAIEzEaCzqMhuY54jHaAzxPyk7/nLgcPHXS0VQ83zl+c1azNIKQdb7WIeRyAQCJkLmL82z5+a16LNu+Lvc2axCW1K9iBzI9l+A99hs16iIdM2lVT0Ur7NsAaoN1jO5wiUgx0R6S/nn9/SPBch/oB2HS9S/QxGm+WE5EC6BwStCzABE3+31NE/1svJWTB8RTJ2NRnMS8V1EejKLMsl6B0plaUhaK3M9CBm4v73YCruCod5Me0+y4wE5+nn+6ZZli7A+IAAucxV7DjcCOu/bIxCH0/oCP9or59IIVY/sPDHRgGsz/SmjZN5xcuPZIDaUPj0dIrXhA0vfc/8oMOO57u06vzDX1q0Wa/diuBOdJV5DIFAIGQuWrS5QQxuE/KatZkttaANAAtraHlrBvKQHUjWbjtM9aRvmzRXs55lkZGXQaQD/EAM5NOw0KFUTamDDnyFZ/Ju1ptZNm9zjuhHQfF3ZV7z1hVmcbIxt6S8m7YKeIFFpqL6SfThBQiGhnrmsYkG4hPgPpBKzSzLFShlTY211QakPzXrZCKUMlC5awkZez8TAs8mEky9q/CMC8yydERR6bwDdPA1b+pdWN2Vw4ogws+aICHaZ4lqq7BllhHqBsZA7cs/Tmd7cgL+OfyNwQo1EB6CeR/cVs1zJBPSLUhlVnIUGquwMWXWIxAIhOxBi9Z961MM6Oi0cz2D9gYEKTPrxRMyR3PJvCPFtQYypQhwzLm8/B5l/pA9DPmc8bIxz0NIPvzB8M36+fyClI9medahRetrRN+5V3C64HtmcaIhrWcQ2E9OXOoMBrUK6QORNjPV0aIR70PfU4lZlgtADAGmFDYyrkmq3a/iDShjmWu99XIux5JA0FrZDqFwf7MsnYExAhY9iHlRexyxK2F5B+sQ85hchnYZwUIWffocs5ywfUCmZOyBoD2jnlhQ38tg0QG7b7I2o+qCdsHZpO/pNyjgye2GQCBkJ+pRDGhTOcck/E+YgiUqiJw02QpYt+qUSj+YLwdMpMXfIAtZt8BHmXYw0g/YhWaOEieJKbrSAs3zb0mWYkCmVlJ5yws8/VP3E+t/DAHhRF9KtyCaYmFxhrpP+wOzLNuBXS8dnAvP6bts3XFCii8GFzP1O+dnSpaFeMMxP87kFK1y0ausCL72jDG/wHc8W+U3FvhD1hjdNuvTyQw+U1EYnNdJp7ctYbUtWDTDb8sNoZJ5h5vHJhpwRxX3EHLuRcyJn0+GGx6BQCAkF4ZiQA7MaqdeD8T2B/FObQRLBF8gfAkmGQxWCBGDv/W1DoZ0G8wczeMJ6QVp5RG03tLP7tmcU9wkWDGACSd2VUTb+lmkK83X2qrngnSemEJRoe/3l1zaaUFfcDJ04Ldne4oz7fYlA9th5zyXnjUgn7dWkCLzhFmeaZCWLgG7r6Ps8PAN8Q6/MFeVPw5gGSPaokq2ScAeb5YTmobCUvswuBWI9n2dRbodfKLnkH2S+e6TwRXd9/DXiKFg1iEQCITMhVYMYFcL5oLMjVb8i+DAeL34oVwQ5xuqB3gzAA2utQiml7QbkXmA37jzksxJDXoCFAMzKip2xMRbB9hE//D2lw2w4CkKlv8r1T6Y0QILROd3pJs1QyKhd13xzP5ItBtWugB+6UybWCNTjFmezSguDnfE74b1Tqb0zWhRWGr9A8oebZnkjEWbBQcmIpNJpsC1hrJ+R/YXs5wQHyCwqRhPr2KwHjUsSyGTYqx5DtZyyZiD+JAJy90MgVXrrERZ1BIIBEJy0aJ132a7tK/07gjARKqpAfwQgApWAXo383PvIK5ofwANuxhQT8llf9RMByaLTKeHxELWLM8JxEkxoP3Q+4jJdzGLjK2xVnAc2ts8LlMg+zzGFzGRNsuyEXqnC89uK1JzmeXZDPiq43frcWG4WZ6t0EoRPPOPzLJsARZoWra9GYF+hZ84XBDM+rkArcDFAvGVnLOYSwEQFBCxc3wh66F64uu8ykLhflDUmcfGC9pScrTgn+qa4j5S4OJAIBAIcQN2Jc86/8pn2nU62DHR+tofDF9t1osW0g0hFL6L1R0VHQEDgzBLpFRI2QFp4q5zFWMnySzPGTRBMYCddExwdFpB9BFPn5HBmEYjroZ5XCaCKb9RTJ7vMcuyDdi5qnmO4n+zPBegc4HLNhDyfYdZno0Qv/Nu+ZtDdsAsyzYEg8FmUHjp6PLOuIW5xHyMaWb9bAYrK2vP9C62mENda5YTEgu47eC9wlRaXNPl4F3BwYly7ZEBgIPWen2t30Xfvz/XXKgIBEIW4Ph/XzCs6wFH/bpXx4N581334fvs1/Oz5ru0D5n1toeiYPlROgDPx8ZgDCK/9TiYPMfLJYGQPmAh6wn9nDfkdIqyGBQDxaX2ocgYINpui9Fn1sOSBr6V5jGZDsflBKkLzbJsAhZLzHWXGmqW5xJ8AWuQboetSCVrlmcbxJg4U//eEWZZNkPFlgiXsZrdU8ml6Au58u6vUQoFra9y2bUi1ZDpUwP2TbB8Zdqa0cNlCF4Yb5cPzH+YVnyDyOyRLeloCQRClkMMYK2xu/vYzDl88IgJvP+QsZ+edd4V/fNatD0+729ttxtkUMUisE9gAWsqU/6F3kH3dwzG2B2C9YB5LCF7oP0qoZnfCnkwy3MCzfLPz2veekle8/w1gj/I/5u1mW1Wc4B0SzqOBxRm3n7zFZQsRcHyf5rHZBO0ebk0tzXLsgXit52JcRC/E3EgzPJchGiHyVrO/8jkSP3RgKkdSw5ZN8tyATLIaMB6lNV2hVov+sWdsFA062cTMDfyBa339W8uMMsJyQcUNCp4pvU003FPXIbXQFmNjErmcbHCF7KuZK7l37c5615JIBAyAzpwi5MC5g9M2KKJ5irzG2MhqCLA1kqRpgdBREu/NKd3jXMI8mWr/UshQ2Z5zmCHPdpLhZqXf2tVa6df5wZHRoH56HOefoNAfCVYKMFf0ntMtgIuEfq3f2mWZQOQcUA/V1hFzCVfYwUdqb/AkXtYkJl1sgU6tS7GxZ5mWS5Bp3YbyGrHIcDcYwQ2J8z62QIdZBnWQtuyWc4zEZifwmpJp46tFdAX7jCw+IC1gXlcY6Eze71Rc/5QeM5s297FrEcgEAgpg04VtsgZqKDVFgNkb7OeF/AfxO6XDh5oRIC1v0AUVlF2KuqZxxKyG9pkFLKwDAtfs5ygF8Fq58ybBxx81ReyrmNs4a7mMdkOBBll2sQ+20xtpWtI0PpOP2M72yLSNxXS0ixohXX7fJeN2We0whS/bysF1FWQitFg+AYnFo3mL7CmgV++WT8boK0p8TtX0PwoPYENMfF8LmVBu4LVjocFV5hFiLXVlMU83Ge065zeDLArMzlwMIFAyBLIqKmhcH/mpiD8WSzo76vP50/X/7cOhPaNZ7AEN2Gh4wuFj6fAKrkLvDAhD0gPlC1B8eIFTCQwCWbB8NtG39nAAuFRou91MY/JNeiAihwBm8yyTAVMUZmbeeUFZJcw6xBqFonw+0U7fR5PE950AFyB9G+rMstyHZgz+EP2ecbY+BvijSQqKFyqoP3NlUVdyH7ALCekF6DQE+PSzXBx88gm+KtgUCzwz41VwaNib1jV+nx/IJsHKY0JBEJKgOBlHn83cFF9+cNh8qaDJpluApuh2cfgZh5DyD3oHN3Kfy4U7m+W5ypYwD5Gu9k4CjipOEFkcjHZOIVMyl2woL1QtlHAvt4sy0ToaOQyIjXMUZuyy5QLUMqzmij267Np1xgyrX6XvdAsI7gQY+VJHgUR+KdO0drDrJupcOKpCP7S1NTPhORBzJE76ICpZjDtb6DEisU9BNaBiOvlOderuI5Zj0CICTuN+bzNzgOrPtvxvtXbdrhnGSfmHvHsdx5Y+SlkwZQPQKWQk8GenOjAXyEgilkPL2GdTWCDMQB+BlM4+MvGuqBRcrpuC8lpdnHAzOekjAyb9Qzf8Z6PIsozhaoPVW2prw9FAxn5WFnjrDL6z3L4KjbVVH63QdX37zRw3a879V/Fd+gX+RsylVc9skS2E/6aZZnI+3WfmDh3AW/d/4OI8u1SPFs8YzGm/7zToA0R43Q6Af1ll4FVXzZ1XEc7TZy7ULYb2s8sz1Rmm2zXRTl2DljXpLHTASuZd6RoL9szdsLNyO8L2t3Nuo0Bxk7Rn1I+djpjw30zFkWUERPLeMipcge0xzNYy9Z+x0MRPLqxcsqk64JyN5sdnLcY99fUsZSYucSzx/u0KTIqX8o73rt6204DK/nuo77mLcf+wPcY9xMxh4hnjmcPGZCyYAiUGKhOY67Zkswt712g6Kjod7Ng+D1joPtWmvQF7BOa6iag5HQVyWkWsuvEL/n9c16Vf82yTGHtPrQqog81BAQJhFmhL2jNY7UDCf6ImBtI3WkeEwt2HlBVuUO/5XzXBzbzlqO+4S3H/RjxOzKVR03ZyK998n1+zJQNEWWZyM4Tv+KD574i/5pl0RDPFs8YzxrPHM/elId0gBzXlVI6LuN6U9stHQmZhmxDxs2ybKBn7NzW2LGzIYjx8yDBIHPzz/+J2Eax7LTvNKCqKl3Gzu7iPTmw4DX51ywjJo41cjogPnKKDTK40GKOzNw4Mprht1kofHu0ATVhKQClwL6DlmGOvC0eYykx8+jIKN6neK/GLKPiBJ/vfH+lOCkGOmKucychC7AcgGxgUDJMlaoQGFCX7aAisVrP4oXrqfObDgZ1QTwDyO18/7rNGPDM+yUS043oQzsNXLfZlGEToo/0YAF7EnP9yJXiLWi/4gtZ10ST2SNa7DywasmO967gLUd/G3G/xOwmnjmePWTAlItUY5dB1d/T/IPoEO94vOtNOWkKikrtgz0BKsHfoXCN1t2Exk6iSfF+3xpPOUX8GGQZ0psD3qCFv+tAhhdsLx4BzZGJXuK9iverKSdRYcf7VvLdR37F94B2iZjzhCwImdim86ZGpCCUZlAh63EWoeG0XhWLnJvE4LWHKWPxAO6J5JSYCXT6kCnDAPwCVSBB602j/2wRHJeowGk7ifvZdfhnW817JeYG8ewhA6ZcpBo73reK5h/EGjY0djYVyFjBVHpXZ8z9VcxzHkQKRLOuF+g3uw37bJt5r8Tc5e6jvtqWKDmFNa4vaN9mzhFk1q6Q9VBhSfmB5jEAzZGJXqqxdBU35WT7GM6b7XDPx3z30d/xlmO+JxJ5l/Gf8kFPKh82NRhZ78OUGTuY4vNbtQcqa534OxTB40zRiitITokZRMgp5BVy64iwNhlEis6aQIKCv8kUjaHysxIaUfju13eA7xn1n9ylksllHLJgikfKQOM60WBdY2e8oWMQLPGMw18jrkudFo40dhLrYDLkFNCZaUazyHgEbyGTU43M0lhKNBi7jA6o3A2DHkykWo6BQBFznQOfekUNPAHrF19o3kg9KNWYOsuo6EGrBBGATXFKGEhOiZlEIaeQ1yuefKmT6Cf9RH9Za7zUP/YF7XsKy8vzTVFPCKj/ELVMQhZM8UgZSC6JJpMop2JsPl2MxR95xuWN2ACppaQlGSXWxSTKKYAYXZBXf9AqZXJDoUZmMTcfcf3MV7qRnBJrMWYZdQY9BFOBQBFznl3Hb+FDZj3L55RIvybvAFTtD1j3RhsMJa4gOSVmEA+ZuIHfMvV59BnkK3b6z3csYE33B8NHmOKdcFD/IYpnH9skIYEguSSaTLKcYsGl3SZlalDNj2HFJSuQjBLrYpLl1AvMwTEXZ7Uzf/1267Tn+YETNkXeKzE3GbOMOoPeyK/VwJdqDv+cd72F8V59ruH79zqMd+rShbdt25Z36tqVdzv0CN79nFt5/o3zIo8jxo9CFm6ftrhmdxOB0Pwh+7yEmjpvD+kmp3FkqxsqeNezb+NdhXx3FHIu5V3I/d979eaHnXc173FboewX5nHE9OUdT75e038E3/UHw9ciWKcp1klDsvuPkNcONxbxg/9zrRzHO3rG8e69DucH9rmZt73JjjyOmDiKZx/bJCGBSLZcRkMhu51uKuKH/KdvpOweejg/4FyS3YQyRXIKk2xYcTE3rhL48njfglPSSUYx/91fzIO7CVmETDrzBcgq5s1dxPyZ5gtJYIrk1AvMyX2B8PmYozsye/es1yPvNQ3Y+oZ5vJuQ27rmub37XM273+ojuY03Y5ZR/WJGkAKkOEgZR3zB97tiMu/S4wB+9InH8Bvuv5lPKpnCZz5XwENLLfl3YvHDvO+91/MDex/KO/c+ju958zOR5yE2nUIWug15lxeU2EEE6zFFJiVIFzmNI/cQ8tux17/4AUKeIdeQb6+8Q/7RD9Afuh5wAP/71RNlPzHPQ0w/HjxhPYf2flzhwhNNUU4JktV/hHy2v3QK7/z3A/lRJzQ8jh98WE/e9fBjef4tT0eehxh/imcf2yQhgUiWXEZDIbv7Xvawkt3tzEEOOuxQ3vWwY3lrkt34M8VyKhZbu/lD1hjmiQXTb/oi3v3BjZH3mkRivot5L+a/25sv7Cfm0Z3FfJrmCwlkiuXUxOg5zx53xxPP8wPGb4i81xQS89xOUcot1n9dr5xEchsvxiyjzot5xJfq5ZwCtuz/Me9y1CniZfxPPqHoIV724bwGWbrU5v0n3887du3G214wIeJ8xCZSyEJswpRApIGcxpOtz5vIO3TtLuUY8mzKuEn0i6NF/9j/6JNlfzHPR0wzplsfSkL/gVx2OPxU/o8Tjm3UON65W1e+70UPRpyPGGemm0wCSZDLaAjZ7XjEqfzIExo3B+nUrRtvfyHJblyZJnJaXGy3YyFrJgtaf0A5cO/sVyLvNUnEPBfz3cbMFzCf3u/IU2i+kCimiZzWIE3GUi/zz5/YaLnFPLfrUSS3cWHMMuoI0/AvlEAlmS3v/ZDv2/1Afs0910oNkikoDXH607P53w89VAqfeV5iEyhkITZhSiBSLKfxZKs+E3n3nr2k/Joy3RDRP9BPOu5/gOw35nmJacR060MJ7j+Qx727HsSvuvu6mMbxA3v35PteOC7ivMQ4Mt1kEkiwXEZDyG77bkJ274lddtv/98GI8xJjZJrJ6ZCCxYffM30x7z52feS9JoH5503gPcQ8N9b5AubXNF9IANNMTtNhLPWytZDb/Zsgtx1IbpvOmGVUC9Nuwz/nu434IrkcXMX36dGb3zDolgjhiJYQug5du/GWNy6MPD8xNgpZiE2YEohUymkcCTndt0v3Rg+WXt4o+kuHA3rJ/mOen5gmTLc+lMj+I+Sw3f6H8WsG3BYhq9ES/aFzt2689c0LIs9PjA/TTSaBRMplNNSye+3ApskuLAda3USyGxemm5ymUEYxX8COa1PmC5hft/97b5ovxJskp/USctshDvPcfXuQ3DaJMcuoI0zDPlMClUTmn3IXP+XC8yIEorGEmcq+hx6fkt+QlRTtGJswJRAplNO4Udz73j1P4PdOGhwhw43l6Refy/f6952R14gTD5vyCW8/JoPbOtVMtz6UwP7T6uS7+dHnXhgho40lxnHEHEjEPYI9H/6UdxwX3bkh++gD5vf18R+PfML3Gh3duVPGdJNJIIFyGQ0hu8eed0GELDaWkN39DjsuZb+jsTzy0U94Wy2vvUS/2DfKfpEUppucpkpGxfU69PqXlC1T3hrLk/97Hm998l2R1yDGTpLTuimuv49Yj8VDbk+9sI9cJ0ZcgxgdY5bRGmH6VJwIApUc7n73O3zvjvvxghdZhDA0lvBd+XuvXrzlteGI60TLk5/YzJ99u5JfVLC55rt9x30qv2s5IrJ+VlPIQmzClECkSE7jSchnt569o/K12h7Rb9p32k/2I/M6jWH49Uop4+DsF6r5ubOV/LOXq/hJT7h9gdhIplsfSlD/gfzt1aELfypO4/hBh/Xkra8vj7hONFzwlivLgVcr+T2lG/meI9zfO21RNe+j5dvkkY9u4WfOdMsg++gDZr36WPZalTyH+X1aMd1kEkiQXEZDR3bjNQdBQMI9r4tNdh0WLKmqkWGHl87dFFGvqZz/ZiXvPUXJ6ywx7ntlP+VMNzlNkYxivtBDzGvjNV/AfLsp84Wzn9zEbSE37y5by198fx2f+Xw1bzfGbZNzRPnhj0CZGnmsyc4Pfsr7svjLdVJJclonIbf7H5o+cos5AMbR8Qura33/xOJque4z65v852Nb+KnT0/zdXh9jltEbHGH6RAlUktjq7JH8hIsujRAEhxCqS2+/gu+Rvyf/61//ytt33ofv0XoP/nDZYxF1QUS73PvU2yOuEy3PEi/G15eu44vfXcfzR6rvOo37hH+4fC3fY3hy2yb1/EQJ0w2NFaYEIkVyGk/mn3Inv/KeGyJkN1aZP/2yi2Q/Mq/TGELmT5++iXefsIWfO2uTfOn/Q0wY2UuV/KRpmyLqE6NlmvWhBPUfyN9hfa6MkM1YZRrj+N/PuTniOtHwvWXr+AlTN0tZPkzIsP1GJb+haGNNecexn/A2o+r+/df4NvJx89fXfIbsow+Y9epj2WuV/MhHNkd8n15MM5kEEiSX0RCy+4/zr4iQwabIbtezb4m4TmNYIWT2kjkbpQw73Gt0/Ntmv/Gf8FZQmon/Z71Qxc+cmU5jfZrJaYpktP1pt0uZMuUsVvk8Xsy3Y50vdJvwCX/nw7VyfMVnyM4ZMzbxtp7xdPLT6/mlc93xtiFifIasm99nFklO6yIsWa+Jo9yefMklMcstCFnFOu61D9byox5139HYPIAMm/VN3ly8gQ+13blBZjFWGdXCtOvQLYKfJI1tDjmZD581LkIIHF562+V8l9134dcPuokPeWI4P/uKc7m4Wz5y9piIuiBSYHTqeVTEdaLlWUJA/GIiOH1xFb/Bv0F+13HsFilQLYepthlura/ZYR0/v5q3H+222VCrml9csIH7xDkWvlXJrxPnOHDSZj5nSRV/WtS/vWR9reudIRZjxS+r3YGHFlbxDmOS2/4Nc0uMwpRApEhO48l9Dj5ayqkpu7HK/KjZ43i7nidFXKcxhGLg8Cmbaz5DJrFIwqKoL9sg5fcZIc8DyjbIQQZ1dhd/7wpu4PPerJS8PYBBU5X1EBPZiQuq5bF48YfE4PuvxzfVnL+T6FMTRDnkPvhKpewH5j1lB9OsDyWo/+QffAq/9ZH4yTT6R/fe/4i4TjSEYuCgia4sjxAv80Fhd9y9N7S+RhZvLNog5XzqIjUGY8x+4b11fO6LVfz+8vX8xKlKMXCHkO0Fb62T/aL3w+65jxB9Bt+hDGM7FAP/mKLOffbMjbzwRXVe9nIlP15fE/0G19tvnPsMDn1os+wv5m9JDNNMJoEEyWU0hOze8/ikCBlsiux27XVkxHUaQ4yZpz5R95h4a8kGfmXhBj5jsZItjMkYTx9/Tn0eKeQdMoa6rUd8IucoGJ8ho5i7tB7pngsyh7Ea/0vFwIy6r5kappmcpkhGO4v5bDznC8OfHCdk/uSI60RDjJsvvIuFfGQZeNoTG6UVAeQXY+glBRvlGOnIavnr6+T82KmPecXbH62VdZ98vorvI+a/jwk59p5zyjPVvNM4NeZe8NRGeQ6cq0iMuxg3zXtIPklO62LHQ+IrtyPFOrHtIbHJLbjncLXBe1uJms8630vFgJ5/Yv01aaGalwbEvPTfegzGfALrt8XvqLkB5hD4Pr3Xb17GKqM3vOsRpuRxr/0O4DOeqT8wRctWLXm/iQNqfXfmZWfzJxcVRNQFZy2ey/fp3DXiOtHyrBkbpWKg10Ob+Etigth21GbecexmrRjAILSFnzxtI281YgvfY/gWqQgYPQ8TOnU8JpFQCnQWA9mBkzbxNz5Yx58Qg2K38ZskXxaDJs6Nusc8skkK1MGi3u7iXJhYYgA17ymVVML0biOFKYFIkZzGk3t37ibl1JTdWGUe/WfvLj0irtMYvr50LT9cLmi2iJfzZimnZ81UigEsaro+uFnK9EIxuYT8o971/g1yUEX/QBle2FcX4qW/Rcr4e8vW8puLxURU9JVLxGQAx6Jst2Fb5HE4Hn0K8o8BF/3FvK9sYFr1oQT1nzadD+ST5xVGyGasMo3+0aFLl4jrRENH7i4Sk0gs6GEx4Iy5IBbl585SMjy6opovErKHxXzrkVv4tWw9HzvfHc9PnLpRnu/SORvkmH9T0Xr5fkBZ/sjNfIl4R5w3a4Mcv28R11wqLW3UtfC301j1zvjX42rCjGPwGe8N3JtznRF2Nb8r6H5ONNNKJoEEyWU0hOw+vrBuOYxZdvfrGnGdxhALq0HhainDDtXiSClU57+pxkt8B4UtZPLQyZvl2A15x9iNuhh7j3tskxxnIXtTnqmqJXc4j9M3lGJAHZcuTCs5TZGM7iNkKd7zBcy7zetEw71Gb+EvvLtOzlMvn7uB95wc+c6e/HS1HC+dz3i/95CK2i28x4TNcrxVC/otvPfDm6SsO3X3E/MMzLu954P17v5i7txu1Ba529t9grom/mLeYV4/FSQ5jWT7zvGX23Yxyi2453C1wdthjJrHnjRVjXVKMaD+L1hSyR8Ir5fv+uMe2yjXb868FHMKvLed82XC+s3L2GTUEaYhm5PITXyvdnvzojdDEULgUNwZfyQ8NeL7+lj8VojvtVc7ee7I622fZ83YoCZ+4v9JC6v4PWKy1nHMJqUYGKrOuc/oTfx8MRm8uaiajxITOryIneOxkDr3yQ01n+cKQbsMg6T+PPW5Kn7BLPV59LwqPqB0Pe/24EbJHuPVYqr1iMj7ShVjE6YEIiVyGk9ukvIJOTVlN1aZR//Zq13sMg9CMYCde+xwYjCE7EPeTXkeLgbGG/zr5f+BV9bx/8x0y/47ewP3vaj6Qq/JG6VywSnbXUxMsWiCbPd+aCN/4b21NXIPThTXu56p82Yb06oPJaT/bOJt99qbszdKI2QzVplW4/he8tyR12uYGEPxAr8zIMZnMcZiF/+YRzbWlGMMdmR6dEUV71/qyt3VhVoxoD+fOFVZxDifO4ix/80PlVyf+sQG2QecMsg4ZP4fU9S1dh+6mZ8ybSO/SpwT9wIlglN2iJhMPPf2OnlM/ohN/JWl63iXcY3/rbEyrWQSSIhcRkMhu2k2BwGxWMIYDLlxuP+D6nwTFlRJJZRTd0xFNb8v5Mrs4PJqfkeJ+3m/sZvk2HyrOAa7Wk8+78qzVAxMVjI56/kqfuZ0dzxPB6aVnKZERhMzX4DMxyqfmA/fLuSr4IVKuduPd/7eo9xyqRgoqP0uP0qMv5gHQ44xHl+u58SYC0jFgK633zi1Iec9VioGhOy3Hr6ZvyrmKTgW92DeVypJcmoyMXKL9WKscrvnMLXBC1nF+g3v7t2GqnnsGWLcw7t96cdreZsR7vkxXjpjLdZ7UjGgyzJh/eZlbDKqhWmXBzYllduzGNh515354MeH1vou+H6Yl35Qd0ALx2LAvE60xIsRigH8333cRjlh6zlpoxSo3Yds5F3GbuTPi4HqLjHAXTh7Pb9NCM3TYoLnHI+F1ImPr6/5PHNxJT9ruvv54aer5HH4f5qYoPpeXMfHza+qRQimeV+pYmzClECkSE7jyfbbsRhorMw7FgPmdRpDKAZOnbaedxUy326k+70pz4PKqvjN/mr5/zNvrZMLLqfshMfEIuoN1Xd6Td7AF7zp9gvwnY/UoHuyWGxhAWXK/ZkzNkTcVzYwrfpQgvpPm84H8IfnxU+mHYsB8zrREC/nAye4soTxtvRVJZfg1OeUsgv/Q3FwLVPyDF49dz0fW1FV8xmyjz7gfIb8YjKM//8rzvvEIrcuCPk/4mF1buzOovzip9bLe3hWvCeOfdS9rzlLKvm/p23glxREnifRTCuZBBIkl9EQsjt14VMRMtgk2d0v9jkIiMUSZMP8HpwgxsrL57gyO9SC26M7RkNJcHdQlfd+aIOcr2BSCxnE+A25c+rOfwOKAXWdWc9j56zua6aKaSWnKZLR7VkMNFY+HYsB8zqxsP2ojXLMg6LA+W7yQrgQuPKIOTIWX1fMUTKIzTIoYFHWe7JyNXTqdhbzaygGvNeANSHm4vj/qCkbpPwveW8tL3yxUs5XzHtKBUlOI4l1WLzlFhYD5nWi5R5D1QYv5rdQLpS+VsnPmaFk8/QnNvCDJmyU82DvMRgv7y9T7+abpGLAfU9nwvrNy9hktEaY0NGSxzYHn8xHNBBjoE/fC/jue+7Orxt4Ix8+cxS/fdRdvPVe+fzu8fdF1AWdGAPmdaLlmdOVqajzGYLw0MJKrRjAJK5aTPjc8v/MdBQD6jN7aZ1eSKnPSjGAQVN9fvjpSq0Y2MgfKHeELvI+0oWxCVMCkSI5jSf33U6MgcbKPGIM7N3zxIjrNIYYEA97CJPC2t+b8uwqBjZKs6vLClzZvsZXLeUd//eavF4rBtxzKcXARt5DLNqg+W81LPI+spFp1YcS1H/gs3r7o5MjZDNWmXZiDJjXiYauYkB9xhiNxZHzWSkGlExDMdDX58rwlXOr+fj57viuFAPusZBfpRjYyI97VMUd2HWIKms9fAN/68N1/IiH18t3xQcfr+X5w9V9QNahZD72Ubcv9RH38Piz8GVcJ5VyzvfJYFrJJJAguYyGkN1+DcQYiEV2u/WKTXYdKsVA3TIxYT52XF2ZVYoB9/N9oSqtGNgod2gHlbtzjOtZtVYMqM9KMaCuoxQDdV8zVUwrOU2RjHbueWRc5wuYb0PmzevESli2YC7rfJ64wFFcqc/lr2EDwR2PMb++ulCV95qkxlCnbO+RG+T4uttQ9RnjJwIhdx9Xe26CMXeMGLsxH/F+nyqSnEZyezEGGiu3KsbASRHXiZZ7DFUbvO1Gqs8YXzHOYtPg9CfWi3f7Bjl36DzWlTVYV109V8kqxtgRtitvmbB+8zI2GXWEafCGpHLPM4fxky6+OEIIHIaWWvzyO6/k+Xu34X/561/47q1a8nOuPJeXvFMWURdE9Nb2p94acZ1oeeYT1dz/4rqazx1GbeBvfLBWKQYeWM+PFJM+mEGfPq1aKhFCr67jT2Ng0/WZOPbEx6prPkvFwBPu54cXVvILZ6nP+49bLzWf1/mq+HGPrOdnT6/m/YJVEfeUSsYmTAlEiuQ0nsw/6TZ+Vb/6sxI0VubPuPxC2Y/M6zSGUjGACaLxvSnPSjGgZPQMIdfPvb1W9plzZ1bLfnHKVHUO+cKHYsBzLqkYwEJJ/A9l2/RF6tzg7cVVvPekyOtnA9OqDyWo/0D+juhzeYRsxirTGMd7nHNjxHWioYwxIGQU4+ydJVV80bvr+N0Bd1yVioGZSqZHzavkfQvdsn+JhfuzYjy/+CkllyD6gFMO+ZWKAfH/bmLxXyomvVh4YfzGThn60REPqXPPE4uuO4Rc45yTF1RK/9hjH3H70h7iePjrPvfOOnku83ckkmklk0CC5DIaQnaPOv+yCBlsiux2Pys22XVY8YaSK8iww8P1+CwVAwWuzA61KvkNsHrRn6ViQMv7f2ZUy8U/5Pj8J6vlmDznhcqaulIxoMddqRjwzFXSgWklpymS0X1Pu6XBrASNlc8TLrok5vkCxrnHnlVzWPx/o18FD/SOa3iXP/XCOlkHsoWxDzKL+veK+S2sBeViS9RtO0LNr/H5fD0vhiJhgJDhEx+vlmMqlK3dxVy5myDk+oTH1teMy855Uk2S00i2O+W2uMrtKZdeHLPcgnjfSsXACPc7WK/AfQDrOXweKRb+WLNBxm4Tcow5bfuRanw8daoaPy+eXcWPF+/0TFi/eRmbjDrCNGh9Urnrba/K/JTxyiHco9ehfLerAhHXiZYHPljNL3mqqtZ3Zz9Rxe8sruS7DXY/j6uo5PeXVvJDJ6zn18ytrKkLoek+trrm8/kzq/hBD7qfz5lexXtNdD93Gwv/QHW+B8Si68THal871YxNmBKIFMlpPAn57N4zfvld23fqLPuReZ3GEAupjqNcuXRoyjNeyMc8XPvzKBuRsMVg+qj7fcdR68VLu7Ys3y760J5D1P+7D1b9DHI/VizOrppTxfcaFnlf2cC06kMJ6j+Qv706xG8cP/iwnrz1tSUR14mGtxdVyvEavK1ILMwxafWU95lZzQ+ZoL47bWoVPxILeU/56dPUeH/BLCX76ANOGeQX53Q+dxCTBrwHIMMnib6ABVvn0ep8+4tjh4Yr+RhblUHeu4ypfa9QFN9R7L4/ksW0kkkgQXIZDSG77eIouwcddijf4+rY5yDg1XOUDHrpzA2giD18kiuz/xYT1qM9Moxx2Cvzl+lxtl+gkvcWx100y5VfXAdjNf4//8kqOf8x7yWVTCs5TZGMYr6AeW285guYb8c6X2g9tJr///bOO0qLIv33f9wNgoGsoiIoggQTYNbVXVY36JpzWLPuuoZVkDSkGRiCCIoYQBERRVFQFBPmnNewiivMDHFwf7/fued3zr33nBt+4e6tW5+ut6ZrqvsN08zLW688dc730N3Vobr78zz11NP1DmfrmHbiyjhmPXJOa2bwkRc/bPg9Ye4mtVftZjVq+YZof3zpr7XPPcrhFZaJDaxfJSbGbxJTHKHPfc2jG6Nz7KHjg+uWmusiON4tF5NXWsJpUnA7cEj7xbnbwm3UngmbIya752JQxPiNbYNzfo+4FJ8IXzXPbIhYdM9hx4LEEKyHPn5zlY3RHEy71Gza7urxyxvVr84/KwFDWzV6zjjVe8gJ+pwbE9cQZVM2mMpYKshp+2mj2vvQE9Xo2TUJhtuqUy88U/U8+YaUa4hCUVA2VEb76Tb8RnX8WeckGG2r8OP9jzhe/dD9+AHTNkVfz3pP3f73GRSTlDJyWYpg9+fnnJ1gsa2C3QMO/+Gzu70UFKcVY3Sj6qPjWtjyeWuriLOJt5PXEG2LhNM0bVT7HtY+3P7mgjOjmbbJa4hKVTZGLUzjNm5/jVyj9h00VP2h5k8JIErVgtWLVJ9+/VWnK59Jnl+UWdlgKmOpJKftKDjtfUD/iFuf5VKFvew3eEhkP/75ReEoKBsqp/1oDvcaMExdM/aGBKulCnvYv38/1f2ap5Pn/wHpusfWq5c+aVLnL1yfqNseCopJSjm5LEWa3b0HDFXXjtu2GAR2u139w2Z3eyooTivIKPEC8e22xgu9Bg6VeKEMEk7T1V7c9h4kce62KhujFqaxGyqiXW/8QPU+cLC6csTV0W9PfDgKCegGDT1M7X7GlMR5RdumbDCVsVSY0/ZUt9OnqgFDhrTZaWIf2Mn+AwZFduOfVxSWgrKhMtsPPO7T7yB1xYhrMvnxg4cdpnqfW5s4r6h9FRSTlDJzWYpgt1d/2M0Wgxyk2d3nbGG3PRUUpxVmdA8d3w7WcW7WeIH4WuKF8kg4za8ep09Rg4Zk57bPAOG2PZSN0RxMO49dXzHtetNH6sBjhqtjhx+vZj1xZwIUX/x2hWkq+/Xrp/Y8sy5xPtG2KxtMZSwBcNqewmmSUYXjUn6LhV0c+8vj1ODjfqE63fxh4nyi8BSUDW0H+8GP9zniJHXML9rmx/v276f6nDc5cT5R+ysoJinbgctSBLv7H/lLdUwbYxBmCux7Tm3ifKJtU1CcBsBoz7Pq1H6atTbFC5rl/kcPj9j2zydqHwmnhbWHHp/t19Y4d/hxaoAeD+52s3DbHsrGqIVpTFNlNXqdOvCSKarf4EERGNeNu17NfnKuevC1xVEGiX/5LzD4a5cHH36YOmDYcarLlcuT5xG1i7LBVMYSCqftqE5XrFD7Dz1eHTRsSMQ1fLu8wz92gD3013ZxyOV1kZ345xGFqaBsaHvZj+Zz3/Onqb6DBhf144dqPz7giGPVHtc+lTyPqCwKiknK9uKyFGl2e19QXxK7/JHMAzW7Pa4WdsuhoDgNhFHi3X467oW9YvECcXR/HU9LvFBeCafF1fmK5aqv5pZxWyncDrxUuG1PZWPUwjS6MQzd9p0a/Mf71FFnXaoGDR2q9ut3gNpzzz2j2QEDhgxTB51+tepxxWPJ40TtqmwwlbGExmk7qutlS9XA312jDhxyuJkFo3nfX3M/eNhQdcw5F6vDbrhP7Tbqu8RxorAVlA1tb/vRfrzv1QvU0DMuVQMdPw7XA4cOU4edeZXa55olyeNEZVVQTFK2N5elSLPb79r5atgZrWMQy+6hZ1yl9rrq0eRxonZTUJwGxujuOv4lDiYe3j8XL8AorPJfxw7+4/0Rw/5xovaXcFq6ul+xVA0+7Wod5w5riXMjbnWce/TZl6iDrr9f7SJxbrsrG6M5mDqObhCJWpQNpjIW4VRUZQrKhsR+RKMDY5IiXIpSFBSnwqgoj4RTUejKxqiFadQ6kahF2WAqYxFORVWmoGxI7Ec0KjAmKcKlKEVBcSqMivJIOBWFrmyM3rq1Kwd2m/E/VbeZ/0skiliIYBq7pYuPS8WKcCqqJoVmQzd8303sZweXZVL7Uh+PihXx6yJf4jtF1aDQOBVfKvKVmdFbNnXmwC71/011mfbfRaKIhQimMRvamGUqYxFORdWk0GxI7EcUGpMU4VLkKzROhVFRmoRTUejKzOgtX0UwdZr8z1r/IhIpWIhguq6tMJWxCKeiqlJgNiT2IwqNSYpwKUooME6FUVGqhFNR6MrKaA6mXWo2i0QtMjC19XcpZSzCqajKFJQNif2IagJjkiJcilIUFKfCqCiPhFNR6MrGaA4mkchX22EqYxFORVWoYGxI7EeUUzBMUoRLUR4Fw6kwKiog4VQUutrO6HWfd+TATpP/KWUagmjH1D9ZmDr6uFSsCKeiqlJgNiT2IwqNSYpwKUooME6FUVGqhFNR6MrKqAtT7b+IRNsAUxmLcCqqJoVmQ2I/otCYpAiXIl+hcSqMitIknIpCV2ZGJcskSigrTGUswqmoqhSYDYn9iEJjkiJcihIKjFNhVJQq4VQUurIyKjCJEsoKUxmLcCqqKgVmQ2I/otCYpAiXooQC41QYFaVKOBWFrqyMtsD0d2X+mwuR6O8ZYSpjEU5FVaXAbEjsRxQakxThUpRQYJwKo6JUCaei0JWVUYFJlFBWmMpYhFNRVSkwGxL7EYXGJEW4FCUUGKfCqChVwqkodGVlNAfTbpP+rvXPIpGChWwwlbEIp6KqUmA2JPYjCo1JinApSigwToVRUaqEU1HoyspoK5j+SSRS2WEqYxFORVWlwGxI7EcUGpMU4VKUUGCcCqOiVAmnotCVlVGBSZRQVpjKWIRTUVUpMBsS+xGFxiRFuBQlFBinwqgoVcKpKHRlZbQVTCKRUTaYyliEU1GVKSgbEvsRTQqMSYpwKUpRUJwKo6I8Ek5FoSsbo1UAE39Aod/t3ye2h6jdp3yvek+rjrYWUjaYyliqgFPUZ/r3qseU5PbtpT2nfq96Bcxf35nfq661ye0/RAVlQ1ViP6HzW+0KiklKFXCJP8ev+9tDFLaDDfnbq01BcVoFjKK9pv5d7V2f3B6i9pvxvepel9xebRJO264oRq6Sd9//9q3R+NPfXk3KxqiFaeLfg9WeerD91bdNie3l0An3NKuFb25Ur362QT3+7gY16blNqhtg5Op/fu9WdaCGxT/O6syFzer+1zcmtlebssFUxlIFnKKH39qgfju/ObG9vXXTk5vV+Q8nr3Pt0i1qyqpNie2ueuiB+bkPbUlsLyaOG/vMJvXcRxvUqo83qPte26iG3xe3oVf99+rUBck2uXr50/VqyOzvE9t/iArKhqrEfi5dskXNeqkwv+2h4+dtVUve3hBp3qub1KRnN6lTNLud6ExT9k8T7PebWV0sB8UkpQq4/I3254u1X/e3l0OXLN6innxvg3rl0w3qIR2HXL10c6v6c7TfjoLqlGMRvp8+wN9ebQqK0ypgFN26fLMa/XRrXsoh4uER+lorP1yvXtBxwHwd7+I7bT3x+hkPFo4Dlr+/IYq1/e3VJuG07XrwjY3qdw+U30f11vHotBc2RYyu/Gi9umv1RjV0Tjx2GzBzqzrxnvxjuc46Fvj6b01R3OvXVZOyMdoCEwFOmNpzytZcYiBZ1546YMZW9cnX69W5i7aovtO3qkPuaFbXPb5ZgxHvc68eDJ0VDaqSx6Pe9VvVYbOBLVlXTcoGUxlLFXCKTGIgPx/tpdkvb1Q3PckAqvV2uB08qzB/faYZzv3txVT/wsYoWMUuuM7J9zfroDm+16PnNqtnPyp8XvbZva5w+34oCsqGqsR+Ll2yWc16icRqsq49RWCy+rP1UXCKLnp4cxQ8LNBBbpdJpfH5wBsb1GlRgJOsC1VBMUmpAi7xcSYxkKxrT53x4Bb1xufr1fHzjH898q6tkT24+3z0VZPab3p+PvH9HOtvrzYFxWkVMIpMYiAZE7S3xjy9WT32zgY1ZLZh7ef3NqvTH4z94EE6PoBj/zhXR9zVrHoysyWlrpoknLZdD+p+0yQGknXtqUfe3qCmv7BJDcr5xDMWblHH3k0yytTzceyeVwv7dWKDzpOS26tJ2RgtAaauE7bklb9vPh08q1mNWtHaaf1ad7gXLTYd3/76xdWs3BQNrAjOzlwYn9tNDHSe/L2a8WLr8+AQB0Zf8c06nenCNzdEgRswuPt2mmRedo+6ZBsZ0L34SX6H9sv7tqjX/rI+Ao42/Hp+c3R+EgU4ZL4+nbJgSy7Lb+75Zj14I8vPgGru6o1Rlsqeb5BuM1msRbrugkVbon2B2L9uJZQNpjKWbeS0VFbhY/Jzm9R+TGfObSMQY+YIdaz/8YlN0awQOLjlqdaJIzcxcK3m4PA7Y0d0qmbD7UBxUnNf2RhxA8PdnfOgIXO2Rskqd5tVvsTASfc1q/MfNtfoVa/b/aw5P/YAY2zHzr5Y0xQxjNIG6rQF533PqxvVhQ8bnvlCQPDq72vFvh98Zc5bp58Xz4WMLfaGTfM8+KJhA9cblm1Ww7VNsT+B92WPtg6C2T9y7pGtbYnW2Y6jfk4P4q5/Ij5XiArKhkqwH+TbTFvtB8GLnxzjCxMJJZbxo3e8ZLgkCeAmstzEAAMkd2BEH2G+iJl1+B6/0vjdO7Q94E/da2LDrv25gm14drfRz7yh/ft5OTtBVz22OZoZwzVuWxHbyq/uN8Ev2+EXu2M7/Ras4+8vfaT0Z7a9FBSTlBK49DnMwiS+1/pFK5L+x+UCxWP0v/gq3id9MgMXu5+bGDhUD4bwO7aOOIKEqV3fQ/MB65wH3z7M42/vqcbvu9us8MvuuXzB4ufab9M+mCOWIGaw9jRn9aboHi2L3DPBL30U7Zn4rPHJ9nwct+D1DVFfho8miPavWSkFxWkJjCKfzSycXqP7uJ/Na70/sYdNBuG3iCN5n1Of36j6OvGBmxiAWTf2xff+aVnMbT99HMdzHpjDt7rX7Dcz/weuR9/ZqC4p4Nvorz/9en1LfEHcxL8nasb4sAazf35qU4vf5575yGDbg12656MPIK7Cx8P2jU+2rq+kqo1Tn0tf/v75RFzpsscHUWI+GyMTq9l+E3/o+h03MYBPIwFq6+DW/fB61NzmFt5HLm/tvxCMwrK7zeqzb5rU0DnpvhY/zDlf+8xwCo8H3t4cXYPr03/zL3VdJ5tjuGf8JH6deje50U3vw/iWcxKTECcz7vOvWwllY7QITMDyycDD8qpUmHhw736xvtXAd+m7G6LOi2WyjDzo/jObo46TrznWQbqJAc7D9A733E9/sCHq2FlmsMRAm2wmwD3/yYYoiHPbwfFpX1UZZADTBP1if3Fvc3Rdt551gLjyMdNOMp5kT9/7cn3UIeN8+fJkfkpgEhB8mcVZUzfuGQOObQfTBQky6OCp49oEw367KqFsMJWxbCOnbWH19hc3qj84nROJADcZRUfF+4Shu7WT4N3ZOjcxQNBl+UZ0iLbjJvB8XQ9C6OiwCa5Jx+i2g+O5trvNKl9iAIdsfkrwfRTo4cxgFQdqA0Zsg46b7cjNiMLfVH38W3rQM+9VnF9zxCp1bGdAToIBe/WvTVKMaVucE2e9V+4nQGYKV3PkeM1PCYxdYf/YLnZCgP7WF00tgfrlj25Wz3y4IRrYEVC89Clfc+PsLvfDsyRRR9DOYJSg3G9TJRWUDRWxH1TMhkq1Hzp3pkPbdfwbPtImvuCEmSNw8nttSzBBwpc6NzHAO4Vzex5sjn1Z5qs+A3uCXbjC/8KCGzhw/FPvpyd60xIDqFYHNzOdGQsEwFyXpAODL2tb9AX4cpJZ3AfrJLmZIku/Q1LvCc13oQC6EgqKSUoRLtuLSfwIfFhfR9/98V/Xq32nGZ9BghI/xLtkQIUvsv2/mxhgMG37cHse+m27jv9ngA8vcI4fdZPMHP9mnq+pzD5hRgAxAf2DDUitCL5pM3zRTuwJvvGTxCtwan5KYPougl03NqFtJAmoY506+iqWmQ7+5bfp7aqEguK0CKOovTglmeh+xaQ/dj9WMVihL+X9E0/wc1db5yYGSLoTm9o6+LDcwiwDIq7FeRiIM1vKjQMYfJPo99uHuAZ++GLt70iU+fXYEdzb+IJtxNwMFOGaj3jxTwmIczZGP03ENmCbn/Hy0Y06BlfcP/0F4wJmJBI3+NeslKqJ02KMtoVTkqhuoonkjttXw1bUb+rY9k69naSkrXMTAySK3I9NnNPG03BO8p3xG/6UeNb/KMzxsO5us8Jnwzz+3E8eEG/QZj6YwSiJN9jDl/Nh0CYczE8JzDGMX9mf/fhQxdjOJtRIBnBf3DP3xr6MI/02VULZGC0Rph41G1plllhvC0gIOMgescyg6h3dMbmd3z5Tt0bOgi82DK7tvqUmBshW0dm5yQcG6oDp7g8I+aaLEkAwSCOI4KtqvR6suW30f0qA82V/u84XIzcxANg2i8YXrs++Nm3HUTPIssfRHtouiYE8JSOnWVhlIOoOGui0bCcWXWuy+epDIEeg5e5bamKArLo76CeDyWDdsoIIBP3klFUpiQEGMiQGsCt3n7SfEjDAIRmHI6XDZ1Dvn5tAlDYTjMDxS7rDtgN55P+UgHNgq+5XfT8xYGcxIBIjNqhd9l7r6WZc100MWNkZQHRUBCM8F56lv18lFJQNFbEflM+G2mo/+DIGVnaGADZCZ+vuQx0dPu8fv8fsKraXmhjgWH/QT0LY/WkLiaJ8067zJQZoq/XfiHuBa/YnALHXR/5PCWDf9RP+IDIEBcUkpQiX7cUkYvBDv8syv+X3Bz4ksHhnMIlvY4o020tNDNhA1vXhJJncWS8EmYVmOcEZAyVmXn341yZ1hTeLyv8pATZAjGPX/cQAX1ltHbPVYJZlYiuSYLaOtktiIE8pwihqL07pM0n+ECuyTvzpD3x4VzCJfyRGtTFCqYkBkpU++8Q47uwquCb+cPexIv7hSy8zB4hZSDJgF7Y+7acExAHuDAQ/MWBn2SJmhXEvLDMQszMWEXYriYE8pQin+RjNwikfbfkIZNdJTpJcbbnWZDMLi/6ROJUPtLau1MQA8aDLPpwTd7pjNxjN95MUbAk/R9vwbfhKd2zo/5SAAT+2Z8d7JMr8xIAb7zKb1cYb73+1viXeQczC+UEkBnadsDVVXcZvjoDh31K2F9KwO7dETmS3iVujKRtk1m3dSblp+jXPbFR/5qs/mXe9TN0edc1RYoDlrpNMFsc974oPNujgbUsUCFLHC3M1LneetmrYnC3qbR3gXvpI3M57NUhn6cG/XR+jHfEtT8X1UWLgNXO9E7TxAKOt615rEhwsn7XQZKvc6z3zoQHP3VYpZYOpjCUjp8Xq0gSfcAqvR95lfovMNur2mdqsXvx4vZr1ouF08nMbo3p7LNz+Zr65DgNZvhrZOhIDTDdimQQCiSGfVRjx25OmKDGwLObO6prHNqm6VWZ732nNUXKAIJOvl8PvNW3BmZIYcI+jbXzJIsmFLXaeWJjD7pO3RveOzdptR+ln9eyH8XpPbY84ZPc4kxgw56aDt21C2Pv1j5u2v6L3I1CxdWaKdmt7sRo4szl6F7wXniHvyN+nEgrKhorYD8pnJ/m2FxI+1/x0jC9A69URzrukw2dGwa26D+C90eHaenwttsXyBYtMYsAed3AuMcDy7/V+JJZ9+4Fdvy1pImFHYsDfPkW3bfoL5poEIqu0jc552dj6eB2w0B/YfR94ncRA/EwIKrAztz0zc/cSioJiklKEy3zs5dteSHwhsmzhe1zfzPuFB+ISluHM+vFf32+mMrOMv+K92uOiYPUbwwQJYQbuPpPnPFR6G62wm7N1jEC8cNCsuJ2cv8+02JaIL06cF9fj+7lPlrkP4hNbh23Y+yCBcP0Tcd3eU0xiwG9HpRQUp0UYRfl4zLe9kOa8vCFKCNHH0nfTj7MdJpjZsVgzxbtFsGd5IA618cUNy1q/++H3mp+TsHyr3u/1z5O+0/XRpYo2ck0GRjZmGKx55fzufsTlu9fG51/+vpkRzPKCaHAYPx/iGnsfxPa/uCfm+5f3msSA345KqZo4LcRiobo0wSKzOBl3MU4iDuyUi5H30j7x+Y83RLEnjPJxyuUhSgwsMNdhPOW++z9pn2THa4yP6H99ThkP+u0pJvwb4zLic7sNv3zPK/E6/K/6OG4n9wO3MM46cUq/GfG1sUXuA+7Zj/GnrSMZQmLAb0cllI3RjDDl215MdL44KUAaOjs2eAAhM2jXyZSmJQZ4WSz3yDkZAOVLIYBS9/Ffm9SgWW0HJ5+YTm2dFCLD5Hb0OF/gt+ulJgaOndt6wEkdnb4kBvKUjJwWq8snBi0TV5qBP4Nmu53BCqza9V/NN1/a7bqbGPBZIWizLOE0+QruX7dUlZIYcIXz5cssy73qm1uCWVc4QPaDX35rPUnfO5z6+1kxcP+r5tkGBJFj/ah1YoAvGu4xycRA/HzcxAAdAIGxrcPG3MRAn/qt6ip9rwww6YRuXLZZHTA9DNuxCsqGitgPymcn+bYX0mH6HRMMENS5ySKCQwYgNgFG9h+/l5YY4P27tvZzfS6bGGAQ5vrWtiotMUDwQLLh9NxgH1vgp2O2ngGYmxiARzeoITHlDtJCVFBMUopwmY+9fNsLiYQorOG3eI+wZ+vYzkxCu86MgbTEgN+nM2i3vhSGYd4GyO0hBlxusotZBPs7fo620Ca7XmpiAH85w0la4eclMZCnFGEU5eMx3/ZCYvDLeyV2eMj5eERci3+yfOGv6H/TEgN/eNzELvbYcxfFiYHLlrT2q9uqATPNwMgm5Afe3hx9ZHD3MV9e8ycGrM9FbmKAdl6+JK6jz5fEQJ5ShNNCLBaqyyfeU+1z5ss4ySa7HW5Jmtt1kqn5EgP8zJSY2taRRLCJARL0+Cn/ulnFB103VvfjC/w3H+vseqmJAZbh3U2sEd//QBID3FRSXcZvygHDTRbfXkzXLDVf9lZEnWu8nUEIg50D9IM/VTsJOkSTGGhWe9RtyQ2ozb44zZuW8dvpLWrk8o1Rx3z0XF5Qs7pthflDFWSx+s3Yok7WnboZfJhjO080Gf++03BKrdt2wjymX22KOkmOPWvhpujLqnv8xJUbo5fOvgdM35JLDJh2ojMXMrACNnM+E0SYuu61NsHRrKFrjp5B3aqN0fm5d+7ZDMSSz217KxtMZSwZOS1Wl08DNFvvfNkUDaZhwW7nXeFcDp3Nb/02R1PejbMx9YvesgFls3Zqm6Ls/sDbt+iBzOYoGB21wrByzFyzTtDJ+Y+4c4u6ZHHr9o16emM0s8RvG4IXHCeMWR2oz2MSA+YaFz68KbIDOD1PO1++3LIdG+DrJqxyHOv++XvVb1FXPGoG3hfl2kWgwTEH62B46Gz+uMyG6P7sMX2mmfP+6n7+qNcW1bOuOZcYiM9rEgPmekvfbW1bcWKgORpw0d7THtikO45NUaBuEgNM1zJ/jwBb5Ln5bQ9FQdlQEftB+ewk3/Ziwr/h669dGh+H38OmeL9wD1NMD7Tv0SQGzHsePGtzNBCCJWwN2zKJAf7uhZm5E/3RIH0e9r108Wa1bxScGp103+YWW/B16gJjx/CPDV6nuWN9pr42bWQffDEBDawfNttMITeJAVPPuRlccQ76kyuWbIpmfR11l7m3E/V2+jL/2pVUUExSinCZj71824uJvhluala25oKAEH+Hr4QpmLR+3CQGDHf7TDW/LcXH4QfnvrIhlxgwfgmfBtP4/IG6D2FAxrK9Dpzzd2n8diH4uVL7b2aqcQxxBQkLrmn3gS/sCeaIi0xiIGYMJomxWOZ4kxgwddiDvQ/uk0CX65HcxrZMYiDZrkooKE6LMIry8ZhveyF1mtQcJebh1O3/95rSHPWv9JnEJ8QA9K/0u9SbxIBhCybwXWbWI3/7xPxMkDp4YiDDu8dPHXIHfzB7k+oyKW7DOQ/ZwV6yffTT1HMccRAzHFZ8ELMDl9jEKQtMfME2kxiIOTaJAVO3QNukSQyYOmJ7ex+/1PdKW3kOZy80f+MIG/PbVClVE6eFWCxUl0+M1ejLiZPxdXY77/y1z/jpiIkTeV8mMWDqTWLAXOcPj5vx2iDtS/FDfOQ1iQHjKzk3HMHp4XrdzN6O2zBiuWHRbxu682XzkY62EW8Tq095Po5XiSuYmYo9cW6uZxIDpp44wCQGzLpJDMT3Of/1+D6I9WGaeyAGh9kJXh9TKWVjtESYuo9ripateoxrbDNIqHd9cxRM8bLd7TgrBjoM2skaMQCxTpEXY6Z3mn1xSHyNpTMDChwijpI6OufLdQfLNBTOxXE4R3ssTpfr0460tt2sO1McFcdyDQZ07j4MmBiwcQ6CAwJc914ICslqsszXBM5n63C87n1wzzhAZkdgTHxtxZD8dlVC2WAqY8nI6bawitMxPxNpvZ1BBHwwmwSn4gZfODoGMSyTCCJIZF+cHTy7HeDxd2+OAkvqyVz6Dg4HQ2LLvz7CQcKgK1ikIyUJEO2z2GRuOT9OEkdtj+frK06S49wOO002YGAwZW0UYQd7T2l9LI6SfcgkY7fTnm/tHEev2NSSlGO6I7Zs63g+2JRdx644F4EC93LX6tippyUzQlNQNlTEflA+G8pqP7y/NF8L9wQHfA07X7NKAGo7XPygmyAjKcRghsEUzMKPretTbxK1sMi5mOVDUGrr6fhd/+uKPsG1Hew8LSnLYNHaJ7bO9Wwd90V7OB67Yxs2TAKLY2wC2T9nJRUUk5QiXLY3k7wP3peZnh9vdxOd9N8Mrq0f598/PhG/d/wgvBEYcj5+GmPrmN1In87751zw4fKPvxufC3x90QYSFsQ1HE87bRK1ZZ85/L0OwywJMfh27wXfb1nE/syMFlOH/3fvg3XOBdN8WGHaut+mSikoToswitqbU/wefZ8dlFgRj8Ie8S3LfFDbc4qpIwnpxhckkOCIBAK+i2natg52iDup51w3aY6IjW09Ayp8n98uRIIJ5m0cALP4Yncf+nHOD6fE5PxLMtfWk7RiMMgySQk3wc99ufcBz8QR9BMkB8wsimS7KqFq4jQfo9vCKf0mH2f97cSudgwFe24iFt/KQJxl+Ga8x774RfyVmwyjTybuox7/bGNbK5JbJG796yM+aJG0svEB8aZvT/wkETbhkQ/NxPy2znJr41/z97piTuHW3gf7XrzYnAu7gVX3XJVUNkYtTOObU9WlxsCUT9T7x4hKU9/6LS3LfF3ia1TXicn9KqFsMJWxbCOnwmp1qbt2xvuQdMgtL3pzvbqCbHHKvqEqKBsqYj+omA2J/VS/gmKSUoRLYbJ8cuMPAuNoWm3KfpVQUJwWYRQJp+VR5wlbVG9mgenlLjo2ZqDJ11l/v0qpmjgtxqhwml17122J4lSWiVuf/3i9Gn7P5sR+lVA2RltgopNIV5eajXnl7ysqXTcu26he/ZS/6toUzRYgOeDvUyllg6mMZRs5FVarS/vVb46mdWEfTMuaskq/Q2YJpOwbqoKyoRLsB/k2I/bzw1JQTFJK4NLnUJhsHzHjwfpXZuUcME3ij9RSAqPIZ1M43XbtUWv+FozllJ+ZdZ+c3K9SqjZOfS59+fuLStORd5qfyMMpPwO6eVk4zzIboyXAJNrxlA2mMhbhVFRlCsqGxH5E4wNjkiJcilIUFKfCqCiPhFNR6MrGqMAkSlE2mMpYhFNRlSkoGxL7EY0PjEmKcClKUVCcCqOiPBJORaErG6MWpprNIlGLssFUxiKciqpMQdmQ2I+oJjAmKcKlKEVBcSqMivJIOBWFrmyM5mDaRZ9AJLLKBlMZi3AqqjIFZUNiP6KawJikCJeiFAXFqTAqyiPhVBS6sjEqMIlSlA2mMhbhVFRlCsqGxH5ENYExSREuRSkKilNhVJRHwqkodGVjtAWmTSJRi7LBVMYinIqqTEHZkNiPqCYwJinCpShFQXEqjIrySDgVha5sjApMohRlg6mMRTgVVZmCsiGxH1FNYExShEtRioLiVBgV5ZFwKgpd2Ri1MI3bJBK1KBtMZSzCqajKFJQNif2IxgXGJEW4FKUoKE6FUVEeCaei0JWN0RaYNopELcoGUxmLcCqqMgVlQ2I/onGBMUkRLkUpCopTYVSUR8KpKHRlYzQHk0jkq+0wlbEIp6IqVDA2JPYjyikYJinCpSiPguFUGBUVkHAqCl1tZ1SyTKIUZYOpjEU4FVWZgrIhsR/RuMCYpAiXohQFxakwKsoj4VQUurIxamEau0EkalE2mMpYhFNRlSkoGxL7EY0NjEmKcClKUVCcCqOiPBJORaErG6MCkyhF2WAqYxFORVWmoGxI7Ec0NjAmKcKlKEVBcSqMivJIOBWFrmyM5mDaeex6kahF2WAqYxFORVWmoGxI7Ec0NjAmKcKlKEVBcSqMivJIOBWFrmyMCkyiFGWDqYxFOBVVmYKyIbEf0djAmKQIl6IUBcWpMCrKI+FUFLqyMSowiVKUDaYyFuFUVGUKyobEfkRjA2OSIlyKUhQUp8KoKI+EU1HoysaohWnMepGoRdlgKmMRTkVVpqBsSOxHNCYwJinCpShFQXEqjIrySDgVha5sjLbA1CQStSgbTGUswqmoyhSUDYn9iMYExiRFuBSlKChOhVFRHgmnotCVjVGBSZSibDCVsQinoipTUDYk9iMaExiTFOFSlKKgOBVGRXkknIpCVzZGW2BqFIlalA2mMhbhVFRlCsqGxH5EYwJjkiJcilIUFKfCqCiPhFNR6MrGqIVpdKNI1KJsMJWxCKeiKlNQNiT2IxodGJMU4VKUoqA4FUZFeSScikJXNkarBKZdxjSq4+eYf+225z9uUsNuN8uHzWhUe01MHteeuuqRRvWnpU3R8q3LGtUlD5nlUnScbvtdLzWpR95qUvNWN6rLF7c+9vDbm1SPCcnjrP74aKOa+HRye7mUDaYylirhFB0yo0ntPSlev+2pJnXLMvO++9Q1qoHTkse0pwbUN6mlb5tluJr/anKffLpB8330HcntE55uihj0t7vqMd5cz99eTN1rGtWfn2hSD7/ZqBa/2RRda1B9XM+z5Jn6x7n6ak1h+6mEgrKhKrKffSc3qsHT4/Whtxtfz3KnsY3q2DnJY9pT9DFL32lSB05tVLvp5RXvN0Vt8vdL0y/mNqrpq5oiTXuuSV27pEkd5NxLKYr6gvHJ7e2hoJikVAmXe2rfMmRmvA4PH/819knH39modh2bPK49dc8rsW9+RPtJ10aK6YKFjVE/QPwxc1WjOnle3HYYJz7xj3H1wGtN6pR7k9vLpaA4rRJGUd8pjar/1Hj9V/Mao36VZfrZI2Ylj2lPdRnXqJ7+oCmKxfFhKz8w1/X3S1PXcSb+eOh1EydPWqnjesfmfBtM03tfNqm+dcnt5ZJwmk0H6/HaPk6MTPxHnMxy1P+XOUbur+3kcd3H09fD1MLXC8eXrmjf+BWGUY4b9VTr+MC3QV9c+63PS7/etioboy0wNQStLuMa1Nd/a9KdWLyNjmqviWYZZ/Kbe3gQyWPbQ9309V/9jIDNrHPdVz9tVJ3HJvf1dYg2go+/alIXLgT4BjV8LoPF1m3FmR49O3mse44j70huL5eywVTGUiWcogWvNapT74vXSV4NmWmWL1vUqKatwikkj2svzXmxUZ1yX8wXtnHcnOR+aVr6TqM654GkHR0xyzDob3cFn89+UHifNM17uVHd96rhn2d16aIGPcCK60+7v1Hd/2rhZ3bugwwak9srqaBsqIrs5/wHG9SdL8Yc9ZxofD3LvSY1qE++LszCtgrbnf1ifI1LHrJJ2eS+vkgeY0Mksc9eQMCjg9UvmqJ//X3zadVHTerwKOGdrNtWBcUkpUq4xB89FiVbzXrXmobo/dr1L79tUrtPSB7XXjpK+9Ylb8VMnjxP+83VpdnBpbrPeemTJj1IbFCDpzeo3+m+gX7I1jPg+ss3hc/1c33/BLz+9nIpKE6rhFF0w9JGNW5F/J72rzPxJsvEIC98VPg9b6suX9yoxiyPr3/zE+ajlr9fmoiLFr1B4te0lWTWb52Y3rfBNJ0xn0REcnu5JJxm0z2vNEbvyq4fNtPEfizT3856ofB73lbd/nxjFFfadWL2E+8qfs1d9PiTZFfdsyamJ+b9w6N8mI738W3QF3y61y63sjGag6mjPkG5tat+qNc+2hB9Tbl6iX4R2tB/dmdjS/0g3WlNeNp8cblkkXkJtu5iDQuJAQKsmx5vVHtMMJ1br8kN0aDn5U+bdDBn6g6fZY6hM+MFTnuuUZ00r3Vb+k5pUBdpx/PLu81AjYF6Vz34J/PP/mNXmGvY/c/Vg6U7dLDongO46WRZ7lJDO/TLdtpshbMks+Rvtxp+NxmkRlX/nGk/nTfgHD3brPM8jplt2sr+h8409afPN3W0Hdjs+QbUN6pJzzSqKfp8fGHgmXefkLxuIWWDqYxlO3KKeCdwgYHzxfL3D8cs9NDP8obHDcc8+56T4uN4Zy9+3KjufMm8u6P0YPeEu8wXpb31fny14QskdWc/YM4Ji2OXm3fJu2KA67YFx3OodjwTVxqHhJ30qW2I2jZVr+NQ7b60hYGIew4GWjhau87+ezltdvXYO3G7XPE8YJBljuW+aW/ds01RR872ybp973xh7o02++dAu4ylgzeOH7tlG1/e3Htw1U1zfdfLjeqFj83zxC/0msyMG/NMuX9s+0Zd13mcOebqR0xGmufDO3R9DD6FY2n79Us5R4M+3tTvp4MoEhTYFolIvy1tVVA2tJ3tZ/8pzDIxPo3nzzOHf1tPUMC7gR9sxG5ncIVfJcHE+yY4xMfj66m/TnP1+RrDGMLv8t4ZkPNOeefYk9sWBkSwxvtmnzPnGw7pg1inH3D3x1cz8HLbxJcoywTnxwbdY6xoBwy52/DHtNkyzrXpz7h/ro992n1h8d0veC7m/gZNM9tPubchepZst3aTRUExSdmOXOK3GLTwzH97b2PUp/efGtfz7Okz8SnEDnY77wt/xYcB3gnvmP72j4+Z94m//Opb0xdQD+f4mQsfMteiL6ZPd9tCrIBPtb6IwTvb4YL1a5a0jiXYdvFD8Tqx1NuaE3wh69gIwbV7Dau7Vxtf52+34n5IbFibwufSDxFnYMP48rMWxCzyAYZ+jvunXdY2rXh2xFA12haH3G78rX/NYgqK0+3IKIIV+lJsHZ/Bu7O+pxBXJAGYHbD0bfMu6cfwPec8aJ4/74PYgLo/5XjoPr4hWuZ8o57iK27rtuArj9CDH2bIsg/M4nPpb1m38a8VftvlkOuv/iT2hwM0Qwc6NufqNW1frt25SrNB/DKc0n/wrLhf+gfiM44hZiNusjZv+3kr+xxJXsAzPta/bjHtyJwWsvNCXDGYZgbg3JfNu+TZ4w+Jk/kIwEegZ3L9/3m5vhG27XvEH9lYz8r1V/jwg3T8t6+OkRnH0W/aMSFiXOf25wj/Rsxu17E7N16xwt8yDrWM+UqzQWIF7Ihl2s9zI/Zg/9001+yHHdeuNP0+zNrzYWskGmwfQVzC8/OvW0jZGC0Rpg41S9Vu9RerH9f9VnWdfoHac8qDiX2KicHP4jcNBHQmBEAjlpkHxIvEMfCCGGiQwbF1iBfLCyHI5HheKnAxaCMIfeo94+yo611nAs/nPsQZNEQJCL7CEAzY87Hfh181RS+DZa5H22Y8b84BtARudn+ckjs4RAxAgI5lHCDt8wd1iPvhKxf3zH5+PY6SjD7n59oEMED6yqcmaMUZYwxAz/4ENIBNIML+87Uh0ZFQB7BMUwE8AkiCgs++aYoGkv51CykbTGUspXI65gvVc3qtZvR89aPa36hdpl6ifjru8cR+hcRgkUQNnR7JGAbyqz40LGDIsAabDJTptMkg0nFRz+DyiXeaoo6Td8Nz5z3dsswEXDhRWKMOBwCrr//FvGfORyYTBt32wClf/eEAxuGCn6PgJOggCRAtdzgfPwnVb4pJFthAk3thP/++Ub7EwPinjUNmmeQGzp6kE8/HdrgEtQQB3JtNIljhtHHS3OuDr5tAE6dHHV/C6Aw4jg7FPY7nTceNo6Ueh825Pv7aJAJxsgQb/JTAJr/e+MxM82JASFBE4oHAmToSOrwf/AiDTmyFAIs6gu1f32M6CN4/A4QfzCCsRPtBXWsfVl2mXxj5+k7TLlK7THw0sU8h4ZvhABvA95FQ5X3h46nnHfCTERI7v73P+H0bTHIs9mL7CbYTdODrqed9f/a1YQHxzu59xSRzYY7BE8EjQaNtD4EC287X75v3i+9k8E6SCXbf1EwSlLAvAQfnd49H2LxNMMGjG0S4SksMIGySDp5l7pFBFc+Gvgke7eDqQN0/MBMNW+L+SPTRzzDtkTbCNPbvJlPaoqCYpJTIZadJj6jOmkWY5F/W/X0KCd/35HumD+W501/iV+1ABDaYtYePJXFJcpd/7bEEnvh53gmBGQEifoV6/Dj+h1iDevw8cQUJLvwHvg6fRNBo20MwiN++YrFJlGIvMMLAhjbBux3QIY73k1FwxrlZpv/Ad/v3jeCOxCo+Py3Ypc1frIltCp9LbMbXWWIm7veB1+KBE0EqDOI/eV7ELrY/oU/gvlinjmf+ojMwLFVBcVoio2j3KQt17JHznTpe3nn8Y4l9ConYj+S6SXybJClJG/uRqhBXxH7Eo/gm3iODDWIEBirUM8jC11KHDRCz4Hvoy/GdsEeczPu37SG2ZBvxNIJ5ZvgRI8ADNmSTEwzEqHc/6CH6UvpolulTSd76943gmbbiE/2BV5oNkqAltiXGhTXagW+3z4P4f9m7TVEfQ9s/0m3Fv1J3+cMmbuNaPEeei//hrxRVI6fEyHtOq2sVI+9U07YYuZCdF+OKmBjfQkzMuyRm5oMv/T4xIeNEfCF1xHr4Wt4P/TXnY1zmvyv8FTED8ShxKvsTI9Nf8q6Jf20igMTmI2+1ZpA2wLJll76Awbx/39wbNoedkTDzPyCl2SDjiPe/NHEmMQ/bsQn2p69g3Mh4k36AhDAxqX1WjAeIb7B37uuDr0xSzG9XIWVj1MI0al1eMbDqPO0cddXK29T412qjf7vPOFP1rH8gsW8+7TJ6XTSdfkB9Q8s2vgSOWGbWCez+sCSu6zN5XfQw7XrnseuiB7jr6Picz39EYsAcw8Dp13zlydVh9D+7M17/rXZiDEjsOg/6LR0Q0i67Tvs6jTHrnJcOz+6PgzlpXut7OuUeM6hhucs4c46dnfa5OkNDxu8CmbIHFAQEbj0gMl3QrgPWbU/G7eXZTHja1J+rHdmT78Z1R87CCZr1cx4wU8dt3T4TG9RfdcfC83SvV0zZYCpjKYHTDmPeVjvVnaOOWHC5uuH5sS2s7jr1PJMcSDkmTbOex5nF7+KsBWYwzTKM8ft9d/+n3sVw4/UFeuB8KkFUbp33eMsT5pjLFjFlLj6e7ePpKHPrXTTnDEy6j4vPh8M6moynXoYv1n9xV3x+nODBdM56mWl7U55t3b5dNNN80eo5wawPu52fwsT1rqLEwILWbCLaaO0TW7hoYUOL7VgdMWtd9MXA3QbnbIPXK/UyPPrn7qXZrHvWJEgIsEk87Fcb1592P1nk+LyHzlgXBQTdnGcUJQbGm2Uc98+d5/PwG426MzDrXOPw2+PjCFSixIDXJs51/gMMYE3Qznvy77eYgrKhEuwHdZ38sOo246xWvr7L9LNVx/FLE/vmEzZCoGDXu9esi/zeQZrR3TSLBI/u+4182zPx+zrvAfNzGLvOlD18PcvwQ5LB1h0y3XTU7ruZS+DqMIw9jFsen493Xu/YCIEIgQnLB+pgkwDS1rnnvIQvtnq5b906NWha63qrqx7RAe4rSZ5mPB/7byt+VmY6fBIH8TEEUcNIlIwy/SZBzYD6+LjLF5lEiH+NUhQUk5QSuNx1wqOqq8ck62z3980n+nNs33JCHEE/bP0EMw7xX3Z/fP7dq+NnzH6POn6fn7REiYHcOoO3Hjn/s7f2rXwI6Epwl6uP/KfTp9z0uPm5jF2/+XF+xx+vRx8dcoxyHmIf19/Zc9p+BR962MzW9VbY3PWPmYEQ58Efu7HRHuMbIvt0jyHQHk7SJLceJQZyPnS67r9GPxW3lfuamPOh9G3R1+hcHb77xU/azmpQnJbAKNpjysIoLnY5JW6OBl0p+6eJn9ExELDrB0wxcS/vqBSuePYk4O36yXc3RP0fy/DBTwlsHe+X2MW9/uO6/z/BYWP+K2b2Ssv6qzFzCD8dzWTRy8fPieMkV8RLDNBYxo/hY/19EPEJ/QBJJ2JW4thodkGu3rdB/DD79XRimSgxwEcwvUxMfNp98fHYM7Ezy9iAGyOMeapB3cGsSq9NxVRtnLZXjFzIzkvh6p7VJGvi9SgxkBvvXLywMYrBbd2NS0mIxeuM0bCD3XP+FuGv4M9dh327jn8njmAZnumPbR0irsaH49dZp//F3tx9rAZqhme/YAb7+E3aamNP5Nvg7+41z8aODfvVmb6HZXw69g3Ldn/ieeILxgAkbG3cjohHiTH8NhVSNkZLgGmnusvUVc/cpurfqm8R691mXJDYN594cBixO7AHBJsYYIBNphSn4IpOjfq2JgYYOPCA3XMxYLP1BGTu4Jrz2OAT4ZD4kmTXV7zXerCBcHZkxtxtxcR9nKmNiKmlLshpiYFoimlu3U8MkFSxdYPqDfgsMzCsc4wIkfDYERIDP5r0B/Xzh25qxSm64ulR6seTr0zsn08YnzuwJ2C0Hd7Vj5iBic+pmzRqS2KAjpXOzD+f+75IBPR2BlJwjXOy63SAdrCLE53sDXR9p1dIpSQG4JT9yF7iIG3nnZYYgFPsmsDXTQrmU38dCPE7Q3eglJYYsLxb+YkBN6AgIDj9frPuJkgQ95SWGEA8czoRroWvcH1PKQrKhkqwH8QMgTRfv/PUSxP75hPBrTuwR69+1hglBkgI8A583t130JbEAHaGr/fPZ4NVRGLA7UzHLucrarzOIM0OdPClDMRtnRWc8+XB3+4rX2KAANsmH7BD7ASmGWQx6HL7ETcxAKv0e/79uT6kLQqKSUoJXO5af0kqk2z3980nYgObxLciWKVPJ3FKbAKj7jMmGWT39QclhRIDJOoJ6Px3hm+2+8McgxG7Tr/i9tsXLowHKpw3mo2Yi4WsSGjxlc3dVkwE06OeNF9+bfI5X2KAANau+4kB+jFbR8LMJqrw227Aj+3uKIkBZgqkcdpBx8/+vvlEnMB7dbdFMwb0OyqFK39QUigxgD9Li2V+m3vPCL/lDq7xgxcsjNdJ6JPwZ/nEu9ZFU8BtnRV258ZDpYjBPQkSPkLYbb4NMpgidnKP8xMDfASxdTBq+wUGdcQato7tO0JigBj5hIU3J2PkZ9oWIxey81K4aktigK/mvC//fCTN7D74K3dwzUdd+7EMPf0+f7jVrDNGcj8MWBFHWHZKFTZFX+5+2PBtkMSAm/RNSwy45+R8jEdJoLkfxxHtDiYx8OPa30WZJRck1n8y5dTEvvkUzRj4urUxEvzZxADB+++dzsYXnaL544PxNjcxAKgueHwdcJ2Cr7YmBgj2+BrvngOA3QF6W0RGjQDarkfg5r4KIxIDNruJ/MRANJU1V+cmBvjK6c6MIJu6o8wY+C+TT1W3rZ6ccHqw+iPNsL9/Pt2hueSLjV0nkWMTAzDgDlrTRFbd7UzdxACME1jZOhyKtYF8aktigGQSU/3c48l8MguhlIFtKYkBKwJW2h5NYdXrtMHOXHEFe3zV4BnyJflqHUjsW4BHAlDs167zLAlQ7DqJAab6useUmhjApq3PQATj7qCUwJnA55E3zZRu7s991m1RUDZUgv2gn9Sdmurrf1xXuv0wO8sd6NL50emSGLBZcAJd/zgrEgPu11Q3MWC/mtk6Zuq88FGSOVckBmzwigolBmCa9pHAdc9BstDtX/IpLTEA67TZzipiEMhfhrf1TFlslRj4MO676O94doXspS0KiklKCVz+OC+Tpccf+CYG/varDckAfIFN9hOA5ZsFgtiP6a923U8MwIz9gkWMw6yTQv7WZQ7BhPtVzE0MIJL7ftBKvTtAL1XM4CGWIm5gnXbzocLdxw+0/cSAG6u5iQG+xLlfsBkQ7iiJgfbwnbxPd6YK79zOGCiFK2aGuLOj3MQA/abrK80s1sLvhn6XgY1dJzHgfrByEwP0k29/kTwf79+dpVeqmNXiJoF9G4RPOHWPKTUxgI91v2CTYNsREgPEyCNXt2Y0S4xcyM5L4Ypp/tFU/dy6mxhgNmr0N7FydSTKXF+ZJt9fFUoMEN+6H5qQ9YF+v1+KeA7EB3bdt0Hsx41fS00MEM+6/QqqwIyBtXn1k9rLo4ySCxKZ0M7TL0rsW0gMguhgDp2+VjsX82XGDIrWqpPuNn/lf1g0HW6tfnhrc4FYfDxGz359dd2uo9fmEgNm/5mr+G2KqeteszbqeIFz/1qCgLXqkOkmiLTnYtkkBsw65zHBp1k/cKoJHOz6tUvMIM5tT712ipdHHeRatc9E02FyLXcfdPLdZCSZFqbbNm6tNiIT7Jmpf2YfnssfHzXt76b3MYmB+HpxYmBttN0kBkzdoPq1ucTAWrXnhLXRF9pLF62LnjPOjq8BfSYn21VI2WAqYymBU7KhRy8YkXB6Fy6r0XVkQ5PHpInMtwka16lj7lgXDWZXRQPetZGRYtTnP0Cyyjxv3ifv1R4PF/wtgYjF8Wu1w2tQtzxh3t0p96xTy/X5DpzC108SUuui93V8js3etWvVaffHXKAPv2qMttv113SAO7A+XjeJAbPMVD3q3eN/NY8ZNfE2bG5Yzm58Mcgf+SRTnI29oH01O3FiYG00yN5rotkfzvjyxjJfgwlgsTXszj83GqKZH7fc/IzH2iPrR84iYDV2R2LL5fvY2SbxNUDfM22JEwPxeU1iwCybxEB8/TgxsDZK0Cx5i78oazow3uWknF3TfjoYAgjXV2RVUDZUgv2gfF9nzVev5P5p6jrWJGYZ7OCDeJ4MjA+abp4pnT7Jt56aoc5j10YzTawfR7+4ywR1sNxrsmHG+ubdtM2R5IIJ7AsbxDb/pAf6XBcGON71d1Oi4DU+v0kMxOvxIM2sM3sLHu06fQ02aJmnXzIDo+S902ljQ9Z2Ll5ofpJGAG33wXewDz6De8AfPJGzIbTojQZ1zRLTF3BPtH/ey/wMx/gcbNdMe09ev5iCYpJSApfMVklj0sxiSe6fpl30O+RrJr4YJmEAX4WPp573T8IXP8v7pm+GMXv8wdON3yd5AFu9JpmfxNh6kg6/u9cwCaPEHvTX+DT6c1ign7b7+8zFiQGzHicGzPr8Vxuifsa9J7iyNkX/gQ249VYw+et5JNXWRjZ36xP84UL+R6Xcs9HtZQDGOWg/6ybQjs9hEgPmWnFiwNRd8pAZdLHMfeLbh89dp46eZX52ZgYMyXYVUlCclsAoSpttRdz8Ux0/+/vmE1wRF/P+4ZR+0MwYMM++GFfE1exD/Iy/IvY0iYG1kS/lPdN/7l9nfCVxDgMx/ArXIKnbI9ePovmvGK7t+uwX+GPG8bpJDJj1nUeb2NPt+3vq+IhkBjYRte8BPrSk+65R2jaJt7g+sTIzdsxHGFPv2yB8msRAfA6TGDDnN4mB+FomMWDWsTc+zhE34c+xX9feSlW1cUqMfOT8ZIx88VPj2hQjF7LzUrjC1xF38Q7Z/mftk/DN1MEsvpoYDnuAV96z9dXEgGa2QXw+31+ZxED87p9+n7+JZdZhi7bDq60nZjDJDLNOvO7GAFbE+8z0wjbpm+kniBfsOBb5Noj9YEe2nu0mMWBs2CQG4muYxIC59pwXGyKb43pXLDaJQZMYaN2uQsrGqIXptrV59dNxS9XOU86PnJz7u9NdJzyS2LeQOukXwbQnjP2Gx8xAPgrQcvU8QDKCTBPhwV6KETvHn6SBuXc1/4dvowbGJAMGMADQdf3rzDp1GPou+oFcox8ggPEbYTrW4YCVO9ehGppavhTm1jkPx9v13pONY7Lr++rr0S7Oy/pu+l4IfnF8rPeZZJz2rrl6VwCKU1rxnrk3HHWU9HD2OWSa+QLAOY7XAclN+jkBq63HmV7xsFlnO/W2bv/J5lj3ekzFof0/m2MCmD1qWj/LYsoGUxlLCZx2GPOW+kntuWrIfVe3/H7q9yvGqp3qLowY9vcvJIIgsopTVzaoM+7P/WY6Vzdw6lp110vmXeJw+OrchSArV9+31gRPvMvTNNMXPdgQdYjUwQ2BGQyMZSqp3nbinSYTyPkYIFz/WGs2aIflDPE1lXdu17kWbbLr2NAROJbc+oxV/Nda8TlZP46g17mG1cRnjA25glUSYFGHfpsJqrEr2kvboi9PueOxWYJI7M0/tyvspCuzf/TydXoQ9OBrxk7pzGnD7g6vO+t9//QYfzvD/LaapEo01cw5H8/Tno93g/3aOpw8NsUyAwQSHPigWx5nJkdDy3vAP3UhgElpbxYFZUMl2E/U5pqlib8nY35/2GMBNH8AAAh8SURBVDb74R3BGVMGT5rLH71qVAfQces6bIUgkAE9CR4GvUNJkuaO5R39WQ+cFr3Ob5eZUtfaN2NTcAebDK5511yLYIBOlWX6B7s//cCpDGpy6zDq2gOJVgY3dv2qxTETiPZHswBy6+ctaO1/XdGHWbuhjSTUsG93H3wAfQ/txe7Pmr/O/PwnV0/fRDDAOY7VwUznMcZnYBs8L57pUQQtKdcvpqCYpJTA5U6avU7157ZiknW2+/sWEn04z533wjPH1zIQoQ5/hI9Zqf35y58Yv2Z9hhWDCfwG/nfP8Wawbut4x3DMO4Nz+lveKV9o+WkI79PGKshn7rT71kUzqew6sY4bG1HPOew6jES/482tn6wDdGzFrrv6lT7X3S+bdnBv+McoaHb2ob+DcdpP27mXXvzGNlePvdo+A//pxi8kHfDhdv0388y58NXYajS9PKVdhRQUpyUwinYevySKiy2nV+p4mbi5rb5zyAzzrkkKwCBfMm2/VIwrfCsDF97jzdqH4ifor209iUp+6kh/yzrHwrOJZZqiJGQ3J5ZhsObaAXE7/tCuYxOub+XaLsfEPm6cjS++jK/2uXVXxBi0Db/IvdGWvZ24x17P2iB8wqlbz/jAHkNcNMCJi2AUW2CZmIKEBueCber4oOO3qZiqjVMbIx/mxMiX6Ri5Q4YYuZCdF+OK+JXj4JS4kvgYVqjDFxOXEdNFf39Lb8P3sM75SELAodsW318xHrLxBiKOP4gZYbl1+l3r+xHtszE6ggW/30bYF32xjde5N9pK7Oju49og9hMlPXL1xCb442jfXBLZvQbPxdo08c3IZSY+hn2Yvnhhsl2FlI3REmBCPx27VP108uXqR7WnqI51v1cdxj2W2KeYuEkM0i4TGKY9/FCFgzudKeK3meDQdbghiWyyXSZgiKaPpexXSNlgKmMpkdMOo/6idp4wS3fIF6v/Uvsb9ZPJV0Ts+vsVUzQDILdMhj5f0BWiSIDZIBInhPNiMOLvtyOK5AEDT5ZxynQy0ReRlH23VUHZUIn2gxhwddA+Hl+/U+1l2ezH8UEMbqM/9JqSNA1RBDAMwu09EDxGM9lS9q02BcUkpUQuYbCDZhEm+XdbmRykBwz8jRR3W8jCZ/FhwSaESX4xIPf3C0HuMyXBVrey7X1nUJyWyGjUbuLinO9kpsC2ckq8yXv39wlVxBsMEBnc4e9JXrkDtFBE329jItrKoJNZGv5+xVSNnBIjd2wVI287p1ntvFLig6n98EsiiYSwO7gPRe4z7jnefIxm9oC/XyFlY7QFpu/KrhPvNF/dyZAw1cR8lUnuF6p61Hxnpm3p5YOmMXhM7hOCZj3fEH3JXvau+Qp79CzT5rYoG0xlLNuR011GfRc9N/6aLn+sB173mpDcL2QdlXvnvSau1R1zsn5H1eEzzbRf3unrf2G2B7OLkvu1h4Kyoe1oP2jyM2ZWyeNv818F8kfe2u6DKim+NPUcr33BaMOMX1+tCopJynbkki/w/CTl0bfM3w868/7qeq/71zLrwSxb/x6iXvrE2P2qjxqj2Wv78BOclP0KKShOtyOjiK+f/LzoyXcbohlCw2a0/flVUgdPN7Fxl7Hf5QYxyX0qrYFTv4tmsfHll/6JmHm30cn9imlH5rQ97LySsj6UdvcLNEY+/T7+XoKJV9/+3M4mTu5XSNkY3c4wof0mk7FLbhe1n7qOiYOILMoGUxlLBThlYLDn+OR2UfWr92RjI/729lRQNlQB+8HH8xMrf7uocgqKScp25pLgv29tcruofUW/uS19Z1CcbmdGUTc9qO61DfGbqDTxjLflA9+Ozum22rmoNJEUzpK4QtkYzcHUYeR3IlGsTDCVsQinompTSDYk9iNCITFJES5FaQqJU2FUlE/CqSh0ZWK0Baa/iUSxMsFUxiKciqpNIdmQ2I8IhcQkRbgUpSkkToVRUT4Jp6LQlYlRgUmUpkwwlbEIp6JqU0g2JPYjQiExSREuRWkKiVNhVJRPwqkodGViVGASpSkTTGUswqmo2hSSDYn9iFBITFKES1GaQuJUGBXlk3AqCl2ZGK1VPzIwfSsSxQImzYaPS8WKcCqqNoVkQ+ct/4nYjyhiUrPg41GxIn5dlCbxnaJqUEicii8VpSkrozuN+Ob/dhjBCUQiI83Ef/qcVLrsNHLNv/vtFIlClbah//AZrmTRHcS/dRzx7f/w2ynaMWTe/Zp/87modNlpxJp/+G0V7djaaeQ3/+5zUsnSIYo91kicLIo18tv/2Ckwf4rdJNop2qFF/+pzUlLpOGLNN1GmKeWkoh1Ra/6f/vdLn5NKF92uj3eSzllUHfqH9quf+gxXsux067cPdLg1sm2/raIdQfrdw4DPRaWLDrA3S/whstJ9/H/S1/ucVLKI7xQlteZ/dxy55iOflUqWXIz8n8m2inZMRTNINvuclFZqN3XOOWNzItGOq1vXqJ1uXfMfMOFjUvFiOP133cZ/JNotEoUiBmCa0xBtSAe4byXaK9ohxLv3eQiijFvbzcwaSLZZtMPpH8H6zhFr3k1pr2gHFOMlrf8THKc2RhZ/KhoRcfoP+lcfk9KLBqrjiG//Zr7IJi8g+uGLd9/x1jXfBOfs3KLbpgdeX0giSxSiIi5v/fbLkG3opyPXnNxxxJr/2mGkBA8/eOl33HHkmn/deeTfLvE5CKqM3dJFt3e9xB87rnJ9+udB+84R35zSceS3/9pBBl47rHJ9/CfBckqMrO1IYuQdV7l+dD39qo+HFClSpEiRIkWKFClSpEiRIkWKFClSpEiRIkWKFClSpEiRIkWKFClSpEiRIkWKFClSpEiRIkWKFClSpEiRIkWKFClSpEiRIkWKFClSpEiRIkWKFClSpEiRIkWKFClSpEiRIkWKFClSpEiRImVHKP8ff8QTpMLa6BQAAAAASUVORK5CYII=;" vertex="1" parent="WIyWlLk6GJQsqaUBKTNV-1">
          <mxGeometry width="1030" height="391" as="geometry" />
        </mxCell>
      </root>
    </mxGraphModel>
  </diagram>
</mxfile>
